<svg xmlns="http://www.w3.org/2000/svg" viewBox="0 0 200.82 38.21"><defs><style>.cls-1{fill:#4f9ec8;}.cls-2{fill:#80c41c;}.cls-3{fill:#fc0606;}.cls-4{fill:#fd7e09;}</style></defs><g id="Capa_2" data-name="Capa 2"><g id="Capa_1-2" data-name="Capa 1"><path class="cls-1" d="M70.41,18.4a10.5,10.5,0,0,0-9.55-2.29c-.27.07-.55.16-.84.26h0a10.39,10.39,0,0,0-2.58,1.34c-.21.15-.41.3-.6.46a10.46,10.46,0,0,0,1.67,17.29l.55.28a10.44,10.44,0,0,0,4.43,1,10.61,10.61,0,0,0,3-.44h.06l.11,0,.46-.16a10.53,10.53,0,0,0,4.33-3l.35-.43a.46.46,0,0,0,.08-.19A10.47,10.47,0,0,0,71,19,6.21,6.21,0,0,0,70.41,18.4Zm-6.92-1.84A9.67,9.67,0,0,1,69.86,19a1.21,1.21,0,0,1-.39,0l-.75-.22a5.2,5.2,0,0,0-3.29-.26,6.05,6.05,0,0,0-.8.32h0a4,4,0,0,1-.83.3,1.24,1.24,0,0,1-.27,0,1.75,1.75,0,0,1-1-.37,3.46,3.46,0,0,1-.85-1,4.69,4.69,0,0,0-.6-.82A9.47,9.47,0,0,1,63.49,16.56ZM58.93,34.8l0,0a9.69,9.69,0,0,1-1.55-16l.46-.35c.57,0,.74,0,.88.89a2.15,2.15,0,0,1,0,.62,2.17,2.17,0,0,0,0,.91,1.59,1.59,0,0,0,.4.58,1,1,0,0,1,.34.56c0,.77-.79,1-1.9,1.18l-.29.06a3.64,3.64,0,0,0-.76.2,1.54,1.54,0,0,0-1,.95,2.37,2.37,0,0,0,.71,2,3.74,3.74,0,0,1,.86,2.84,4.83,4.83,0,0,1-.18.62c-.23.67-.49,1.42.31,2.09a3.62,3.62,0,0,0,.75.47l.35.2a1.23,1.23,0,0,1,.52.79A3.74,3.74,0,0,1,58.93,34.8Zm11.95-2.2a9.82,9.82,0,0,1-4,2.78l-.15,0a7.31,7.31,0,0,0-3.56-2.81,1.72,1.72,0,0,1-1.11-.79l-.33-.41a3.64,3.64,0,0,0-1.36-.89L60,30.37a1.61,1.61,0,0,1-1-1.92,2.48,2.48,0,0,1,2.69-1.8h.2a8,8,0,0,1,.81.11,2,2,0,0,0,2.07-.49,2.42,2.42,0,0,0,.73-1.57,3.8,3.8,0,0,1,.23-.91,2,2,0,0,1,.56-.77.6.6,0,0,1,.52-.1.88.88,0,0,0,.48,0,1.59,1.59,0,0,0,.7-.63,1.31,1.31,0,0,1,1-.66,3.08,3.08,0,0,1,2.4,1.07.83.83,0,0,1-.09.94,3,3,0,0,1-.57.6h0A2,2,0,0,0,70,25.57a1.31,1.31,0,0,0,.43,1.27,1.65,1.65,0,0,1,.42.61,1.86,1.86,0,0,1-.15,1.27A2.58,2.58,0,0,0,70.5,30c0,.12,0,.26,0,.42a16.87,16.87,0,0,0,.52,1.93Zm.75-1.09a11.63,11.63,0,0,1-.3-1.16c0-.16,0-.33-.06-.48a1.87,1.87,0,0,1,.18-.9,2.56,2.56,0,0,0,.13-1.8A2.47,2.47,0,0,0,71,26.3c-.22-.23-.27-.28-.23-.61a1.33,1.33,0,0,1,.57-.88h0l.13-.13.2-.19.18-.2a2,2,0,0,0,.17-.23,1.57,1.57,0,0,0,.13-1.76,2.25,2.25,0,0,0-.81-.81A4.19,4.19,0,0,0,69,20.81a2,2,0,0,0-1.64,1,1,1,0,0,1-.34.35h-.1a1.41,1.41,0,0,0-1.1.24A2.78,2.78,0,0,0,65,23.45a4.38,4.38,0,0,0-.28,1.09,1.75,1.75,0,0,1-.49,1.13c-.5.46-.76.41-1.4.29-.27,0-.56-.1-.91-.12-1.48-.07-3.34.52-3.7,2.44a2.35,2.35,0,0,0,1,2.56,2.71,2.71,0,0,0,.41.23,4,4,0,0,0,.37.17,4.89,4.89,0,0,1,.69.36,1.45,1.45,0,0,1,.35.31,4.35,4.35,0,0,1,.31.38,3,3,0,0,0,.76.74,2.88,2.88,0,0,0,.8.35,4.18,4.18,0,0,1,1.12.52,8.14,8.14,0,0,1,1.82,1.74,9.75,9.75,0,0,1-6.22-.48,2.17,2.17,0,0,0,0-.25h0a2.11,2.11,0,0,0,0-.25v-.09a1.09,1.09,0,0,0,0-.18s0-.07,0-.1a1,1,0,0,0,0-.17V34a1.11,1.11,0,0,1,0-.17s0-.07,0-.11l0-.18s0-.06,0-.09l-.06-.27a2.14,2.14,0,0,0-1.27-1.47,3.39,3.39,0,0,1-.61-.38c-.35-.29-.32-.51-.07-1.23a5.19,5.19,0,0,0,.21-.73,4.49,4.49,0,0,0-1-3.5c-.44-.52-.65-1-.56-1.28,0,0,0-.05,0-.07a.55.55,0,0,1,.14-.17,1.48,1.48,0,0,1,.28-.17l.11-.05h0a5.76,5.76,0,0,1,.9-.21c1-.17,2.64-.47,2.54-2a1.72,1.72,0,0,0-.56-1.06,1.14,1.14,0,0,1-.22-.28,1.62,1.62,0,0,1,0-.59,3.24,3.24,0,0,0,0-.82c0-.08,0-.17,0-.25a.14.14,0,0,1,0-.07.83.83,0,0,1,0-.15l0-.07c0-.05,0-.09,0-.13l0-.06-.05-.12,0,0-.09-.14,0,0A.39.39,0,0,0,59,18s0,0,0,0l-.07-.06,0,0-.08,0,0,0a9.39,9.39,0,0,1,1.4-.66l0,0c.36.12.57.46.85.9a4,4,0,0,0,1.06,1.27,2.53,2.53,0,0,0,1.45.51,3.38,3.38,0,0,0,1.42-.4l-.16-.36.18.35a6.57,6.57,0,0,1,.71-.29,4.52,4.52,0,0,1,2.83.27l.78.23.16,0h.76l.11,0h.18l.08,0h0a9.69,9.69,0,0,1,1,11.86Z"/><path class="cls-2" d="M106.9,31.13h-.07a3.54,3.54,0,0,1-2.29-1.28.4.4,0,0,1-.07-.28,28.13,28.13,0,0,1,2.17-4.9,7.6,7.6,0,0,1-.79-6,11.74,11.74,0,0,1,3.39-5.68c1.88-1.72,4.74-2.85,7.26-3.85.8-.31,1.55-.61,2.25-.91a20.49,20.49,0,0,0,4.19-2.36,9.06,9.06,0,0,0,2.93-3.48.42.42,0,0,1,.31-.24.41.41,0,0,1,.36.13,16.33,16.33,0,0,1,4,13,15.93,15.93,0,0,1-2.46,6.52,15.75,15.75,0,0,1-11.52,7.17,16,16,0,0,1-6.93-.66.41.41,0,0,1,.25-.78,15.19,15.19,0,0,0,6.58.64A15.4,15.4,0,0,0,122.7,26a15.29,15.29,0,0,0,3.63-22.72c-1.62,3-4.88,4.65-7.26,5.69-.71.31-1.47.61-2.27.93-2.46,1-5.24,2.07-7,3.69a10.92,10.92,0,0,0-3.15,5.28,6.7,6.7,0,0,0,.8,5.57.4.4,0,0,1,0,.42,38.4,38.4,0,0,0-2.16,4.69,3,3,0,0,0,1.33.76,63.82,63.82,0,0,1,4.92-10.5A27,27,0,0,1,115.28,15a19.24,19.24,0,0,1,4.85-3.57.41.41,0,1,1,.37.73,18.27,18.27,0,0,0-4.64,3.42,25.34,25.34,0,0,0-3.61,4.6,65.07,65.07,0,0,0-5,10.68A.42.42,0,0,1,106.9,31.13Z"/><path class="cls-2" d="M106.9,31.41h-.12A3.84,3.84,0,0,1,104.31,30a.68.68,0,0,1-.12-.48,23.91,23.91,0,0,1,2.12-4.86,7.92,7.92,0,0,1-.74-6.11A12,12,0,0,1,109,12.73c1.92-1.75,4.81-2.89,7.35-3.9.81-.32,1.55-.62,2.24-.92a20.29,20.29,0,0,0,4.14-2.31,8.85,8.85,0,0,0,2.84-3.38.71.71,0,0,1,.52-.4.68.68,0,0,1,.62.22,16.56,16.56,0,0,1,4.08,13.23,16.4,16.4,0,0,1-21.29,13.26.66.66,0,0,1-.4-.35.67.67,0,0,1,0-.52.71.71,0,0,1,.35-.41.75.75,0,0,1,.53,0A14.91,14.91,0,0,0,128.91,8.62a15.1,15.1,0,0,0-2.54-4.89c-1.73,2.82-4.9,4.46-7.19,5.45-.71.32-1.47.61-2.27.93-2.44,1-5.2,2.06-6.93,3.64a10.67,10.67,0,0,0-3.07,5.14,6.48,6.48,0,0,0,.76,5.34.7.7,0,0,1,.06.71,41.19,41.19,0,0,0-2.09,4.47,2.65,2.65,0,0,0,.83.5,63.53,63.53,0,0,1,4.84-10.3,27.23,27.23,0,0,1,3.77-4.8A19.3,19.3,0,0,1,120,11.19a.69.69,0,0,1,.53,0,.66.66,0,0,1,.4.35.63.63,0,0,1,0,.52.68.68,0,0,1-.35.41,17.81,17.81,0,0,0-4.56,3.36,25.59,25.59,0,0,0-3.57,4.55,65.8,65.8,0,0,0-4.94,10.6A.69.69,0,0,1,106.9,31.41Zm19.34-29h0a.1.1,0,0,0-.09.07,9.37,9.37,0,0,1-3,3.59,21.08,21.08,0,0,1-4.25,2.39c-.7.3-1.44.6-2.24.91-2.52,1-5.35,2.12-7.19,3.8a11.44,11.44,0,0,0-3.3,5.54,7.33,7.33,0,0,0,.75,5.81l.09.14-.08.15a28.14,28.14,0,0,0-2.14,4.8.16.16,0,0,0,0,.09,3.36,3.36,0,0,0,2.11,1.16h0a.12.12,0,0,0,.11-.07A65.38,65.38,0,0,1,112,20a26.4,26.4,0,0,1,3.64-4.66,18.4,18.4,0,0,1,4.72-3.46s0-.06.06-.07a.1.1,0,0,0,0-.09.13.13,0,0,0-.16-.06,18.42,18.42,0,0,0-4.77,3.52,25.93,25.93,0,0,0-3.69,4.69,63.94,63.94,0,0,0-4.89,10.45l-.09.24-.25-.07a3.12,3.12,0,0,1-1.47-.84l-.11-.12.05-.15a34,34,0,0,1,2.18-4.74.13.13,0,0,0,0-.12,7,7,0,0,1-.85-5.81,11.23,11.23,0,0,1,3.23-5.42c1.82-1.66,4.63-2.77,7.11-3.75.79-.31,1.55-.61,2.26-.92,2.3-1,5.54-2.68,7.12-5.57l.2-.36.27.32a15.78,15.78,0,0,1,2.91,5.4,15.49,15.49,0,0,1,.56,6.71,15.59,15.59,0,0,1-20.23,12.6.13.13,0,0,0-.09,0,.11.11,0,0,0-.06.07.12.12,0,0,0,.07.15A16,16,0,0,0,123,26.39a15.82,15.82,0,0,0,3.35-24A.11.11,0,0,0,126.24,2.39Z"/><path class="cls-3" d="M176.62,37.64l-.21-.35c-5.84-9.26-5.41-18.39-2.55-23a6.88,6.88,0,0,1,6.75-3.56c5.41.61,7.47,5.7,7.95,9.11C191.9,19,197.4,19,200,23.81a6.87,6.87,0,0,1-.75,7.59c-3.15,4.38-11.45,8.22-22.22,6.31Zm6.61-24a6.36,6.36,0,0,0-2.83-1,5.11,5.11,0,0,0-5,2.71c-2.61,4.16-2.63,12.54,2.32,20.63,9.36,1.53,17.11-1.65,20-5.63a5.1,5.1,0,0,0,.63-5.62h0c-2.9-5.33-10-2.83-10.31-2.73l-1.19.43-.05-1.26C186.8,20.88,186.55,15.86,183.23,13.62Z"/><path class="cls-4" d="M12.44,3.25l-.32.16a4,4,0,0,0-3,2.85v.06l-.18.8A3.79,3.79,0,0,0,5.07,9.27l-3-.66L0,18l3.57.78a6.59,6.59,0,0,0,2.95,2.33,9,9,0,0,0,1.69.55l2.23.49a1.55,1.55,0,0,0,1.4,1.69,1.79,1.79,0,0,0,2-.7s0,0,0,0a2.58,2.58,0,0,0,2.26.22l1,.22a2.4,2.4,0,0,0,2.57-1.2,1.71,1.71,0,0,0,.16-1c2,.26,2.86-.27,2.91-2.45h0a1.79,1.79,0,0,0,1.48-1.52,1.58,1.58,0,0,0-1.11-2.05l-.29-.11a1.45,1.45,0,0,0,.64-1.12,1.74,1.74,0,0,0-1.34-1.95c.08-.39.17-.78.25-1.16a8.75,8.75,0,0,0,.22-1.77,6.66,6.66,0,0,0-.87-3.65l.78-3.57L13.15,0ZM8,20.63a6.15,6.15,0,0,1-2.87-1.47,4.1,4.1,0,0,1-.49-.53,4.52,4.52,0,0,1-.34-.51l-3.1-.68L3,9.66l2,.43.16,0v0l.77-.41,0-.15A3,3,0,0,1,9.17,8l3.49.78a.61.61,0,0,1,.42.29.67.67,0,0,1,.09.51l-.05.23a.68.68,0,0,1-.81.52L8.74,9.5l-.29.71,1,.31.42.09c-.09.41-.18.82-.28,1.23a.51.51,0,0,0,0,.28s0,0,0,.06C9.1,14.58,8.56,17,8,19.38A2.64,2.64,0,0,0,8,20.63Zm10.84,1.42a.88.88,0,0,1-.44.62,1.47,1.47,0,0,1-1.05,0l-.5-.11a6.85,6.85,0,0,0,.42-1,1.63,1.63,0,0,0,.95.26,2.36,2.36,0,0,0,.59-.11A.69.69,0,0,1,18.87,22.05Zm2.95-2.29c-.08.59-.44.86-1.2.72l-.35-.06a3.12,3.12,0,0,0,.15-.43c.1-.44.2-.88.31-1.31l.14,0C21.6,18.87,21.89,19.2,21.82,19.76Zm1.51-2.64c0,.66-.54,1-1.28.83L21,17.71l.42-1.8,1,.23C23.05,16.29,23.36,16.62,23.33,17.12Zm-.78-3.26a.9.9,0,0,1-.8,1.08h-.16c.13-.58.25-1.16.38-1.74A.8.8,0,0,1,22.55,13.86ZM21.49,3.1l-.65,2.95a5.58,5.58,0,0,1,.32.52,6.21,6.21,0,0,1,.28.66,6.32,6.32,0,0,1,.12,3.24c-.3,1.53-.66,3-1,4.56s-.7,3.19-1.06,4.78a1.49,1.49,0,0,1-.46.94.88.88,0,0,1-.75.14,1.07,1.07,0,0,1-.61-.64,2.11,2.11,0,0,1,.05-1c.15-.73.32-1.47.48-2.2.08-.36.16-.72.23-1.08s.43-1.31-.17-1.42-.65.84-.72,1.18l-.24,1.07c-.39,1.66-.75,3.33-1.18,5-.2.75-.59.95-1.16.78s-.72-.57-.56-1.3c.42-1.92.85-3.83,1.27-5.74a1,1,0,0,0,0-.74c-.1-.2-.27-.32-.48-.22s-.41.37-.48.7c-.5,2.25-1,4.5-1.5,6.75-.16.74-.67,1.05-1.29.81-.46-.18-.63-.6-.49-1.26q.75-3.44,1.51-6.86c.09-.37.1-.74-.34-.83s-.52.29-.59.63l-1.17,5.28a2.65,2.65,0,0,1-.22.69.91.91,0,0,1-1.32.28A1,1,0,0,1,9,19.61c.65-2.92,1.3-5.84,1.92-8.76l1.2.26A1.51,1.51,0,0,0,13.94,10L14,9.74A1.52,1.52,0,0,0,12.91,8l-2.67-.6h0l-.52-.12.16-.71a3.69,3.69,0,0,1,1.3-1.84,3.82,3.82,0,0,1,2-.69l.17-.79.41-1.82Z"/></g></g></svg>