<svg xmlns="http://www.w3.org/2000/svg" xmlns:xlink="http://www.w3.org/1999/xlink" viewBox="0 0 92.36 109.75"><defs><style>.cls-1{fill:url(#Gradiente_sem_nome_27);}.cls-2{fill:#7b7671;}.cls-3{fill:url(#Gradiente_sem_nome_27-2);}.cls-4{fill:url(#Gradiente_sem_nome_27-3);}</style><linearGradient id="Gradiente_sem_nome_27" x1="32.75" y1="784.95" x2="82.52" y2="777.49" gradientTransform="translate(-204.77 -651.63) rotate(-12.95)" gradientUnits="userSpaceOnUse"><stop offset="0.05" stop-color="#7b7671"/><stop offset="0.32" stop-color="#a3a097"/><stop offset="0.52" stop-color="#fff"/><stop offset="0.88" stop-color="#7e7975"/></linearGradient><linearGradient id="Gradiente_sem_nome_27-2" x1="106.95" y1="706.28" x2="132.28" y2="702.49" xlink:href="#Gradiente_sem_nome_27"/><linearGradient id="Gradiente_sem_nome_27-3" x1="1058.21" y1="686.43" x2="1075.47" y2="683.84" gradientTransform="translate(654.26 -1078.74) rotate(83.82)" xlink:href="#Gradiente_sem_nome_27"/></defs><g id="Capa_2" data-name="Capa 2"><g id="Capa_1-2" data-name="Capa 1"><path class="cls-1" d="M0,106.59s3.55-17,23.34-18C40.93,87.81,49.89,81,49.89,81s-4.11,20-23.08,26.78C12.67,112.82,0,106.59,0,106.59Z"/><path class="cls-2" d="M49.89,81a25.38,25.38,0,0,1-9.17,11.43,19.83,19.83,0,0,1-6.88,2.94,14.83,14.83,0,0,1-1.87.29,10.65,10.65,0,0,1-1.87.16l-3.7,0a29.35,29.35,0,0,0-7.17.72,43.33,43.33,0,0,0-6.88,2.28,47.83,47.83,0,0,0-6.43,3.44A47.25,47.25,0,0,0,0,106.59,42.94,42.94,0,0,1,12,98a32.8,32.8,0,0,1,14.42-3.34l3.66.07a9.63,9.63,0,0,0,1.78-.13,13,13,0,0,0,1.77-.25,20.51,20.51,0,0,0,6.63-2.66A23.44,23.44,0,0,0,45.75,87,29.72,29.72,0,0,0,49.89,81Z"/><path class="cls-3" d="M56.17,13S58,4.34,68.05,3.87C77,3.45,81.57,0,81.57,0S79.48,10.2,69.82,13.63A19.08,19.08,0,0,1,56.17,13Z"/><path class="cls-2" d="M81.57,0A13,13,0,0,1,76.9,5.82a10.37,10.37,0,0,1-3.5,1.5,7.5,7.5,0,0,1-1,.14,5.11,5.11,0,0,1-1,.08H69.61a17.1,17.1,0,0,0-7.15,1.53,26.14,26.14,0,0,0-6.29,4,22,22,0,0,1,6.1-4.36A16.68,16.68,0,0,1,69.62,7l1.86,0a5.49,5.49,0,0,0,.91-.06,6.73,6.73,0,0,0,.9-.13,10.37,10.37,0,0,0,3.37-1.35A14.12,14.12,0,0,0,81.57,0Z"/><path class="cls-4" d="M85.59,46.07a8.34,8.34,0,0,1,5.24,8.77c-.44,6.1,1.53,9.46,1.53,9.46s-6.74-2.23-8.28-9A13,13,0,0,1,85.59,46.07Z"/><path class="cls-2" d="M92.36,64.3a8.77,8.77,0,0,1-3.56-3.63,6.57,6.57,0,0,1-.73-2.49,11.06,11.06,0,0,1,.15-2.58,11.46,11.46,0,0,0-.46-5,17.57,17.57,0,0,0-2.17-4.57,14.83,14.83,0,0,1,2.46,4.48,11.32,11.32,0,0,1,.56,5.1,10.66,10.66,0,0,0-.19,2.5,7.14,7.14,0,0,0,.65,2.39A9.46,9.46,0,0,0,92.36,64.3Z"/></g></g></svg>