<svg xmlns="http://www.w3.org/2000/svg" viewBox="0 0 103.18 106.92"><defs><style>.cls-1,.cls-2{fill:#fff;}.cls-2{fill-rule:evenodd;}</style></defs><g id="Capa_2" data-name="Capa 2"><g id="Capa_1-2" data-name="Capa 1"><path class="cls-1" d="M43.54,74.43a.36.36,0,0,0,0,.11s0,0,0,.06,0,.08,0,.12,0,.08,0,.08l-.14.67h0c-.11,0-.28.17-.43.28s-.44.18-.61.38a0,0,0,0,1,0,0l-.07,0h0a1.16,1.16,0,0,1-.55.19,1,1,0,0,1-.3,0h0c-.53-.08-.54-.08-.68,0h0l-.14.13,0,0h0a.57.57,0,0,1-.53.1,2.21,2.21,0,0,0-.59.09h0a.3.3,0,0,1-.12,0c-.18-.05.1-.49-.35-.33s-.23.27-.25.41a.19.19,0,0,1-.13.15l-.06,0A12,12,0,0,1,37.1,77h0c-.3,0-.12.11-.16.25a.15.15,0,0,1-.06.11.48.48,0,0,1-.13.09,2.28,2.28,0,0,1-1.07.3c-.12,0,0-.34-.24-.17s-.45.66-1,.77c-.37.08-.48,0-.74,0h0l-.14,0h0a2.11,2.11,0,0,0-.35.14l-.62.33h0l-.55.25h0a4.51,4.51,0,0,1-.76.25c-.66.18-.62.38-.9.42h0c-.33,0-.26-.18-.63.06a4.34,4.34,0,0,1-1.32.28c-.22,0-.14.08-.33.16l-.18.08-.36,0-.17,0h0l-.19,0-.29.06-.72.23h0l-.8.35h0l-.08,0a2.44,2.44,0,0,1-.66.09.6.6,0,0,1-.19,0l-.11,0a.81.81,0,0,1-.54-.37.79.79,0,0,1,0-.13.22.22,0,0,1,.12-.25.05.05,0,0,1,0,0,2.07,2.07,0,0,1,.74-.24h.28l0-.06c-.05-.09-.13-.26,0-.3l.63-.1h0c.25,0,.81-.19,1.41-.37s1.5-.56,2.08-.71l.34-.09h0l.13-.08c.14-.08.31-.16.49-.24a5.53,5.53,0,0,1,.86-.31h0l.23,0a3.19,3.19,0,0,0,1.21-.35l.07,0c.67-.31.5-.41,1.28-.37.61,0,.33.18.76,0h0l.62-.28.56-.27h0a3.82,3.82,0,0,1,1.31-.46l.26,0a1.28,1.28,0,0,0,.66-.22,2.15,2.15,0,0,1,.95-.4l.38-.06a.34.34,0,0,1,.13-.1c.23-.12,1.43-.27,2.43-.51l0,0c.61-.17,1.34-.56,1.74-.38Z"/><path class="cls-1" d="M81.7,67.05a1.22,1.22,0,0,1-.38,0h0a.86.86,0,0,0-.82.43h0l0,0h0s0,0-.09,0a3.72,3.72,0,0,1-1.26.1h-.06a1.11,1.11,0,0,0-.48,0c-.12.07-.81,0-1.1.22a2.84,2.84,0,0,1-.87.46h0c-.25.1-.72-.18-1.24-.2s-.71-.11-.85.49-.6-.39-1.08.32c-.08.12-.13.17-.15.17s-.18,0-.09-.25-.16-.46-.42-.1c.11.19.17.39-.35.47-1,.14-.93.21-1-.06s-.44-.23-.74.18a1.26,1.26,0,0,1-.77.44h0c-.22,0,0-.52-.13-.39s-.48.16-.48.16h0c-.18,0-.16-.13-.51,0s-.52.36-.9.08-.4.27-.61.34-.53-.12-.59-.17-.12,0-.2,0h0a1,1,0,0,0-.62,0h0l-.22.21a2.81,2.81,0,0,1-1.8.4,2.49,2.49,0,0,0-1.31.54c-.24.19-.18-.14-.18-.39s-.47-.11-1,.42a1.06,1.06,0,0,1-.44.28l-.07,0a3.61,3.61,0,0,1-.91.06,1,1,0,0,0-.49.06l-.09.05a4.65,4.65,0,0,1-.83.29c-.27.11-.36,0-.68,0s-.38.42-.56.44a1.69,1.69,0,0,0-.82.22c-.5.24-.91.09-1.11.32s-.67.2-.66,0-.26,0-.6.1-.72.42-.63.22-.26-.08-.47,0-.86.51-.84.23-.25,0-.59.26-.39-.15-.53.06c-.34.58-.49.27-.83.25s-.81.5-.85.31-.16-.15-.37-.1,0,.31-.07.38a1.76,1.76,0,0,0-1.31.08l-.07,0c-.45.21-1.17.72-1.64.56h0a.66.66,0,0,0-.28,0,2.26,2.26,0,0,0-.57.22,3.86,3.86,0,0,1-.52.15,5.09,5.09,0,0,1-.87.13.63.63,0,0,1-.15,0h0a.2.2,0,0,1,0-.08c0-.07,0-.1-.1-.11h0l.14-.67s0,0,0-.08,0-.08,0-.12a.14.14,0,0,1,0-.06.49.49,0,0,1,0-.11,1.36,1.36,0,0,1,.43-.54,10.51,10.51,0,0,1,1.8-.38A3.81,3.81,0,0,1,47,73.46c.27,0,.39-.18.87-.25s.49-.42,1.06-.52.27.21,1.08-.11.82.07,1.18-.25a3.27,3.27,0,0,1,1.54-.53A3.09,3.09,0,0,0,54,71.24c.17-.07.26.09.39.07s.11-.19.32-.2.66.46,1.17.24A4.65,4.65,0,0,1,57.45,71c.38,0,.38-.23.63-.26a3.22,3.22,0,0,0,.89-.32c.31-.17.27,0,.65.05s.21,0,.56-.43.6-.14.82-.29.33-.08,1-.05.39-.12.9-.12,1-.23,1.67-.24.63.08,1.11-.21l.23-.11L66,69a.74.74,0,0,1,.37,0,1.1,1.1,0,0,0,.5,0h0a.81.81,0,0,1,.41,0c.48.11.57-.35,1.05-.44a4.66,4.66,0,0,1,1.58-.33c.72.05,1-.4,1.22-.33s1.12.18,1.17,0,.61-.42.87-.39.74-.47,1.78-.26,1.06-.13,1.69-.08a7.8,7.8,0,0,0,2.11-.38,1.7,1.7,0,0,1,1.1.21c.27.15,1-.27.93-.31s-.13-.31.36-.14.79-.09,1-.08.35,0,.37.11S82.14,67,81.7,67.05Z"/><path class="cls-1" d="M45.22,58.79l-.75,1.35s0,0,0,0a2,2,0,0,0-.12.22h0A22.8,22.8,0,0,0,42.9,65l-.33.43v0A43.6,43.6,0,0,1,39.72,69h0a44.22,44.22,0,0,1-4.29,4.2l-.1.06-.09,0a1.18,1.18,0,0,1-.25.1h0c-.67.15-.9-.53-.94-.71a0,0,0,0,1,0,0v0c-.49-1.82.84-6.64.88-6.79-.24.4-6.22,8.93-9,9.75-1.74.51-3.84-2.21-.46-11a44,44,0,0,1,2-4.43c.61-1.14,1.2-2.2,1.67-3.32a16.47,16.47,0,0,0,.72-1.63.45.45,0,0,1,0-.08c.13-.3.84-1.8.12-1.86-.43-.11-.1-.31-.1-.31,1-.34,4.45-.54,2.19,3.61-2.41,4.4-6.34,13.07-4.87,14h0s.13,0,.25-.09C28.19,70,31,67.66,39.91,53.49a.08.08,0,0,1,0,0c.06-.09.12-.18.17-.27h0a8.08,8.08,0,0,0,.53-1.12s0,0,0-.07a4.6,4.6,0,0,0,.2-.75h0s0-.1,0-.15h0a.5.5,0,0,0-.32-.53c-.4-.2,0-.37,0-.37,1-.33,4.05-.5,2.19,3.61-.51,1.1-.61,1.32-1.17,2.49h0c-.13.33-.27.67-.4,1h0c-.87,2-1.49,3.62-1.93,4.9a25.55,25.55,0,0,0-.85,3,8.16,8.16,0,0,0-.21,1.94s0,0,0,0h0a.09.09,0,0,0,0,.06l0,0h0c.52.09,2.66-2.47,4.43-4.71h0c.11-.16,1.69-2.47,2.29-3.47h0C45.12,59,45.18,58.86,45.22,58.79Z"/><path class="cls-1" d="M45.22,58.79l-.75,1.35c.13-.22.33-.59.58-1.07h0C45.12,59,45.18,58.86,45.22,58.79Z"/><path class="cls-1" d="M82.25,28.78a134,134,0,0,0-19.91,4.68c-.5,1.13-1,2.26-1.37,3.08a1,1,0,0,0-.07.15c0,.08-.07.16-.11.25s-.17.38-.24.51a.69.69,0,0,0,0,.13l-.09.19a.08.08,0,0,0,0,0c-2.35,5-5.18,9.87-5.75,10.89-.09.16-.23.4-.4.73l-.13.22-.44.81c-.07.11-.13.23-.2.36-.25.45-.52,1-.82,1.51-.08.16-.16.32-.25.48a.08.08,0,0,0,0,0q-.12.21-.24.45t-.27.51c-.09.16-.17.33-.26.5v0l-.31.59c0,.07-.07.15-.11.22l-.21.42-.07.14-.42.83-.17.33-.48,1c-.06.11-.11.23-.16.34-.16.32-.31.64-.46,1a.2.2,0,0,1,0,.08c-.61,1.33-1.19,2.67-1.67,3.9l-.24.62a.7.7,0,0,0,0,.11l0,.08a6.83,6.83,0,0,0-.45,2.6h0A5.09,5.09,0,0,0,47.1,68c.26.58.67,1.07,1.34.89l.1,0c-.26.25-.52.47-.77.67a3.76,3.76,0,0,1-2.11,1h-.1c-3.12-.07-2.77-4.49-2.67-5.36v-.07a.45.45,0,0,0,0-.08,22.8,22.8,0,0,1,1.42-4.57h0a2,2,0,0,1,.12-.22s0,0,0,0l.75-1.35c0,.07-.1.16-.16.28,2.12-4,8.35-15.66,11.73-23.62l-1.64.67-5.4,2.5c-4.48,2.15-6.81,5.31-5.34,5.74a3.13,3.13,0,0,1-3.26-1.9c-.76-2.22,4.36-5,9.76-7.08l5.36-1.79,1.48-.44a28,28,0,0,0,1.63-4.8h0c.21-1.49-.84-1.48-1.43-1.36h0l-.34.09a.44.44,0,0,1,.08-.1l0-.06c.57-.71,3.13-3.48,5.7-2.43l.14.06h0a1.66,1.66,0,0,1,.89,1.11l0,.13s0,.1,0,.15,0,.06,0,.09A8,8,0,0,1,64,29.23h0a23,23,0,0,1-.94,2.47,103.22,103.22,0,0,1,19.13-3.08C82.64,28.63,82.86,28.68,82.25,28.78Z"/><path class="cls-1" d="M71.1,58.35a48.29,48.29,0,0,1-5.63,3.84,11.93,11.93,0,0,1-5.06,1.53c-1.39-.07-2-1.2-2.14-2.53h0A13.23,13.23,0,0,1,60.54,53a1.63,1.63,0,0,1,.11-.17v0a21.08,21.08,0,0,1,2.2-2.64h0a25.29,25.29,0,0,1,2.18-1.94h0s.2-.17.47-.36l0,0c1-.74,3.45-2.06,4.23.41a3.64,3.64,0,0,1,.11.39v0h0A4.7,4.7,0,0,1,70,50s0,.09,0,.13,0,0,0,0a.94.94,0,0,1,0,.16,1.11,1.11,0,0,0,0,.17c0,.34.14.5.4.5a1.24,1.24,0,0,0,.79-.39h0l0,0,.2-.2c3.65-3.54,2.76-5.85,2.53-6.3l0-.05h0l0,0a2,2,0,0,0-.88-.91L72.72,43c-3-1.36-6.34.83-6.62,1h0c-.22.13-.44.27-.67.43l0,0a25.71,25.71,0,0,0-7.94,8.65c-.25.41-.48.82-.69,1.22a1.09,1.09,0,0,1-.08.15.83.83,0,0,0,.07-.13,104.75,104.75,0,0,1-7.39,10.93l-.05,0a.69.69,0,0,1-.11.13l-.11.12h0s0,0,0,0l0,0a4.35,4.35,0,0,1-.51.54l-.19.18-.11.09-.16.13h0l-.08.07h0l0,0c-.35.24-.71.4-1,.26l-.05,0-.06-.06,0-.07,0-.07h0s0,0,0,0,0,0,0-.06A5.09,5.09,0,0,0,47.1,68c.26.58.67,1.07,1.34.89l.1,0,.27-.26c.2-.2.39-.41.59-.62l.21-.24a42.72,42.72,0,0,0,3.84-5.3l.15-.24c.5-.81.81-1.35.84-1.4-.18.55-1.62,5.18,2.89,6h0l.07,0h.14l.11,0a5.57,5.57,0,0,0,.65,0h.29a6.77,6.77,0,0,0,.85-.06,15.66,15.66,0,0,0,7-2.33h0c.25-.14.52-.28.79-.45,1.44-.88,3.77-2.4,4.63-3l.11-.08.07,0a4.85,4.85,0,0,1,.4-.28,2.25,2.25,0,0,1,1.2-.44,1.1,1.1,0,0,1,.25,0h0a.54.54,0,0,1,.38.43s0,0,0,0a.06.06,0,0,0,0,0h0a.21.21,0,0,0,.33.14l.07,0a4,4,0,0,0,.63-1.08h0c.1-.21.18-.41.22-.51l0-.06v0h0C76.93,55.89,73.85,56.18,71.1,58.35ZM54.45,60.77h0v0h0l0,0C54.47,60.67,54.47,60.67,54.45,60.77Z"/><path class="cls-2" d="M17,20.35A47.1,47.1,0,1,0,96.68,61.23L95.43,61A45.82,45.82,0,1,1,53.7,8L54,6.77A47,47,0,0,0,17,20.35Zm61.75,78A53.45,53.45,0,1,0,0,33.83l1.17.51A52.18,52.18,0,1,1,34.1,103.25l-.52,1.17a53.37,53.37,0,0,0,45.12-6Z"/></g></g></svg>