<svg xmlns="http://www.w3.org/2000/svg" viewBox="0 0 117.75 117.7"><defs><style>.cls-1,.cls-7{fill:#fff;}.cls-1{opacity:0.95;}.cls-2{fill:#4393c3;}.cls-3{fill:#80c41c;}.cls-4{fill:#fd341f;}.cls-5{fill:#ff990e;}.cls-6{fill:#62bfa1;}.cls-8{fill:#0b0146;}.cls-9{fill:#4fa0ca;}.cls-10{fill:#ff8001;}.cls-11{fill:#ff0001;}</style></defs><g id="Capa_2" data-name="Capa 2"><g id="Capa_1-2" data-name="Capa 1"><path class="cls-1" d="M0,0H117.75a0,0,0,0,1,0,0V89.42A28.29,28.29,0,0,1,89.47,117.7H28.29A28.29,28.29,0,0,1,0,89.42V0A0,0,0,0,1,0,0Z" transform="translate(117.75 117.7) rotate(180)"/><circle class="cls-2" cx="48.12" cy="98.04" r="0.9"/><circle class="cls-3" cx="55.24" cy="98.04" r="0.9"/><circle class="cls-4" cx="60.95" cy="98.04" r="0.9"/><circle class="cls-5" cx="66.59" cy="98.04" r="0.9"/><circle class="cls-6" cx="72.56" cy="98.04" r="0.9"/><path class="cls-7" d="M27.25,81h.3v1.94h-.3Z"/><path class="cls-7" d="M28,81h.24l.6,1,.06.09,0,.09.06.1a.43.43,0,0,0,0,.07l0,0h0V81h.27v1.94h-.23l-.14-.22c-.09-.15-.19-.31-.29-.49L28.5,82l-.08-.14-.1-.17-.09-.16h0v1.41H28Z"/><path class="cls-7" d="M29.54,81h1.27v.26h-.49v1.68H30V81.25h-.5Z"/><path class="cls-7" d="M31.06,81h1.19v.26h-.91v.57h.8l0,.25h-.78v.6h.93v.26H31.06Z"/><path class="cls-7" d="M32.58,81h.56a1.12,1.12,0,0,1,.27,0,.62.62,0,0,1,.22.1.42.42,0,0,1,.14.18.78.78,0,0,1,0,.28.52.52,0,0,1-.1.33.52.52,0,0,1-.26.2l.5.82h-.33l-.44-.78h-.33v.78h-.28Zm.61.91a.41.41,0,0,0,.25-.08.28.28,0,0,0,.1-.23.36.36,0,0,0-.09-.26.37.37,0,0,0-.27-.09h-.32v.66Z"/><path class="cls-7" d="M34.19,81h.23L35,82l0,.09.06.09,0,.1,0,.07,0,0h0V81h.27v1.94H35.3l-.13-.22-.3-.49L34.74,82l-.08-.14-.1-.17-.09-.16h0v1.41h-.27Z"/><path class="cls-7" d="M36.47,81h.25c.06.12.1.25.15.36l.57,1.58h-.29L37,82.47h-.77l-.18.46h-.28Zm.43,1.23L36.81,82a.82.82,0,0,1,0-.11l-.18-.5h0c0,.09-.06.16-.08.21a.29.29,0,0,1,0,.1l-.19.54Z"/><path class="cls-7" d="M37.49,82a1.55,1.55,0,0,1,0-.31,1.07,1.07,0,0,1,.09-.27.91.91,0,0,1,.15-.23A.71.71,0,0,1,38,81a.93.93,0,0,1,.29,0,.39.39,0,0,1,.15,0l.16.05a.61.61,0,0,1,.16.12.47.47,0,0,1,.14.17l-.21.15a.49.49,0,0,0-.4-.24.4.4,0,0,0-.36.2,1,1,0,0,0-.13.53,1.12,1.12,0,0,0,.06.38.55.55,0,0,0,.18.26.37.37,0,0,0,.25.09.49.49,0,0,0,.44-.26l.21.15a.59.59,0,0,1-.19.22.71.71,0,0,1-.22.13.85.85,0,0,1-.23,0,.72.72,0,0,1-.29-.06.48.48,0,0,1-.22-.15,1,1,0,0,1-.16-.22,1.43,1.43,0,0,1-.09-.27,1.39,1.39,0,0,1,0-.3Z"/><path class="cls-7" d="M39.23,81h.29v1.94h-.29Z"/><path class="cls-7" d="M39.85,82a1.36,1.36,0,0,1,0-.29A1.22,1.22,0,0,1,40,81.4a.86.86,0,0,1,.15-.22.65.65,0,0,1,.21-.16.81.81,0,0,1,.56,0,.8.8,0,0,1,.21.15.71.71,0,0,1,.15.22l.06.13a.58.58,0,0,1,0,.14,1.36,1.36,0,0,1,0,.29v.1a.28.28,0,0,1,0,.09.63.63,0,0,1,0,.19c0,.07,0,.14-.06.19a1,1,0,0,1-.1.18l-.14.14a.51.51,0,0,1-.18.09.86.86,0,0,1-.24,0,.6.6,0,0,1-.3-.07.6.6,0,0,1-.22-.16A1.08,1.08,0,0,1,40,82.5a1.07,1.07,0,0,1-.07-.27,1.27,1.27,0,0,1,0-.28Zm.29,0V82a.19.19,0,0,0,0,.08.51.51,0,0,0,0,.17.44.44,0,0,0,.06.16.57.57,0,0,0,.08.13.38.38,0,0,0,.13.09.29.29,0,0,0,.16,0,.34.34,0,0,0,.18,0,.41.41,0,0,0,.13-.1.64.64,0,0,0,.08-.14.49.49,0,0,0,0-.16.29.29,0,0,0,0-.09s0,0,0-.07a.71.71,0,0,0,0-.14,1.1,1.1,0,0,0,0-.18.73.73,0,0,0,0-.2.76.76,0,0,0-.09-.18.37.37,0,0,0-.13-.12.39.39,0,0,0-.38,0,.44.44,0,0,0-.14.13.75.75,0,0,0-.08.18.73.73,0,0,0-.05.2.25.25,0,0,0,0,.08V82Z"/><path class="cls-7" d="M41.7,81h.24l.6,1,.06.09,0,.09.06.1a.43.43,0,0,0,0,.07l0,0h0V81h.27v1.94h-.23l-.14-.22c-.09-.15-.19-.31-.29-.49L42.25,82l-.08-.14-.1-.17L42,81.52h0v1.41H41.7Z"/><path class="cls-7" d="M44,81h.26l.14.36L45,82.93h-.3l-.17-.46h-.77l-.17.46h-.28Zm.43,1.23L44.32,82l0-.11-.17-.5h0l-.07.21a.64.64,0,0,1,0,.1l-.19.54Z"/><path class="cls-7" d="M45.15,81h.28v1.67h.88l0,.27H45.15Z"/><path class="cls-7" d="M46.56,81h.29v1.94h-.29Z"/><path class="cls-7" d="M49.48,81h.25c.06.12.1.25.15.36l.57,1.58h-.29L50,82.47h-.77l-.18.46h-.28Zm.42,1.23L49.82,82a.82.82,0,0,1,0-.11l-.18-.5h0c0,.09-.06.16-.08.21s0,.09,0,.1l-.19.54Z"/><path class="cls-7" d="M50.5,82a1.55,1.55,0,0,1,0-.31,1.07,1.07,0,0,1,.09-.27.91.91,0,0,1,.15-.23A.71.71,0,0,1,51,81a.93.93,0,0,1,.29,0,.39.39,0,0,1,.15,0l.16.05a.61.61,0,0,1,.16.12.47.47,0,0,1,.14.17l-.21.15a.49.49,0,0,0-.4-.24.4.4,0,0,0-.36.2,1,1,0,0,0-.13.53,1.12,1.12,0,0,0,.06.38.62.62,0,0,0,.17.26.41.41,0,0,0,.26.09.49.49,0,0,0,.44-.26l.21.15a.59.59,0,0,1-.19.22.71.71,0,0,1-.22.13.85.85,0,0,1-.23,0,.72.72,0,0,1-.29-.06.48.48,0,0,1-.22-.15,1,1,0,0,1-.16-.22,1.43,1.43,0,0,1-.09-.27,1.39,1.39,0,0,1,0-.3Z"/><path class="cls-7" d="M52.24,81h.29v1.94h-.29Z"/><path class="cls-7" d="M52.85,82a1.27,1.27,0,0,1,0-.28A1.07,1.07,0,0,1,53,81.4a1.39,1.39,0,0,1,.15-.22.6.6,0,0,1,.22-.16.64.64,0,0,1,.28-.06.6.6,0,0,1,.27.06.48.48,0,0,1,.22.15.71.71,0,0,1,.15.22,1.07,1.07,0,0,1,.09.27,1.36,1.36,0,0,1,0,.29V82s0,.07,0,.1l0,.19,0,.1,0,.09a.59.59,0,0,1-.1.17.64.64,0,0,1-.13.15.51.51,0,0,1-.18.09.93.93,0,0,1-.24,0,.75.75,0,0,1-.26,0,.47.47,0,0,1-.2-.12.61.61,0,0,1-.14-.17.67.67,0,0,1-.09-.21,1.06,1.06,0,0,1,0-.23,1.94,1.94,0,0,1,0-.24Zm.29,0s0,.06,0,.1a.28.28,0,0,0,0,.09.44.44,0,0,0,0,.1.22.22,0,0,0,0,.1.67.67,0,0,0,.08.17.44.44,0,0,0,.14.13.41.41,0,0,0,.19,0,.34.34,0,0,0,.2-.06.35.35,0,0,0,.14-.13,1.08,1.08,0,0,0,.08-.19.72.72,0,0,0,0-.19.28.28,0,0,0,0-.09V82a.76.76,0,0,0,0-.15s0,0,0-.08,0-.06,0-.08L54,81.49a.73.73,0,0,0-.09-.13.4.4,0,0,0-.12-.1.45.45,0,0,0-.16,0,.38.38,0,0,0-.19,0,.44.44,0,0,0-.14.13,1.5,1.5,0,0,0-.09.18l0,.1s0,.06,0,.09a6450829454023.18,6450829454023.18,0,0,1,0,.18Zm.62-1.52h.34l-.41.42h-.22Z"/><path class="cls-7" d="M54.72,81H55l.6,1,.06.09,0,.09.06.1,0,.07,0,0h0V81h.27v1.94h-.23l-.14-.22-.29-.49L55.26,82l-.08-.14-.1-.17L55,81.52h0v1.41h-.27Z"/><path class="cls-7" d="M57,81.87h.66v.25H57Z"/><path class="cls-7" d="M58.64,81h.29v1.94h-.29Z"/><path class="cls-7" d="M59.34,81h.23l.6,1,.06.09.06.09a.93.93,0,0,0,.05.1l0,.07,0,0h0V81h.27v1.94h-.23l-.13-.22-.3-.49L59.89,82l-.08-.14-.1-.17-.09-.16h0v1.41h-.27Z"/><path class="cls-7" d="M61.09,81h.23l.61,1,0,.09.06.09a.93.93,0,0,1,.05.1l0,.07s0,0,0,0h0V81h.27v1.94H62.2l-.13-.22-.3-.49L61.64,82l-.08-.14-.1-.17-.09-.16h0v1.41h-.27Z"/><path class="cls-7" d="M62.76,82a1.36,1.36,0,0,1,0-.29,1.22,1.22,0,0,1,.09-.27.86.86,0,0,1,.15-.22.65.65,0,0,1,.21-.16.81.81,0,0,1,.56,0,.8.8,0,0,1,.21.15.71.71,0,0,1,.15.22l.06.13s0,.09,0,.14a1.36,1.36,0,0,1,0,.29s0,.07,0,.1v.09a1.29,1.29,0,0,1,0,.19c0,.07,0,.14-.06.19a1,1,0,0,1-.1.18.93.93,0,0,1-.14.14.51.51,0,0,1-.18.09.85.85,0,0,1-.23,0,.62.62,0,0,1-.31-.07.49.49,0,0,1-.21-.16.63.63,0,0,1-.14-.24.77.77,0,0,1-.08-.27,1.27,1.27,0,0,1,0-.28Zm.29,0V82a.19.19,0,0,0,0,.08l0,.17a.44.44,0,0,0,.06.16.38.38,0,0,0,.09.13.27.27,0,0,0,.12.09.31.31,0,0,0,.17,0,.33.33,0,0,0,.17,0,.41.41,0,0,0,.13-.1.64.64,0,0,0,.08-.14,1,1,0,0,0,.06-.16s0-.06,0-.09,0,0,0-.07A.71.71,0,0,0,64,82a1.1,1.1,0,0,0,0-.18.73.73,0,0,0,0-.2.76.76,0,0,0-.09-.18.37.37,0,0,0-.13-.12.39.39,0,0,0-.38,0,.57.57,0,0,0-.14.13.75.75,0,0,0-.08.18,1.46,1.46,0,0,0,0,.2s0,.06,0,.08V82Z"/><path class="cls-7" d="M64.61,81l.21.64.09.27,0,.09s0,.12.07.21,0,.17.06.22l0,.1h0c.11-.35.17-.56.19-.63l.3-.9h.28l-.64,1.94H65L64.31,81Z"/><path class="cls-7" d="M66.29,81h.26l.14.36.58,1.58H67l-.17-.46H66l-.17.46h-.28Zm.43,1.23L66.64,82a.61.61,0,0,0,0-.11l-.17-.5h0l-.07.21a.43.43,0,0,0,0,.1l-.19.54Z"/><path class="cls-7" d="M67.32,82a1.55,1.55,0,0,1,0-.31,1.07,1.07,0,0,1,.09-.27.91.91,0,0,1,.15-.23.71.71,0,0,1,.22-.15.88.88,0,0,1,.29,0,.39.39,0,0,1,.15,0l.16.05a.83.83,0,0,1,.16.12.61.61,0,0,1,.14.17l-.21.15a.49.49,0,0,0-.41-.24.38.38,0,0,0-.35.2,1,1,0,0,0-.14.53.92.92,0,0,0,.07.38.62.62,0,0,0,.17.26.4.4,0,0,0,.25.09.51.51,0,0,0,.45-.26l.21.15a.69.69,0,0,1-.19.22.61.61,0,0,1-.45.16.68.68,0,0,1-.29-.06.57.57,0,0,1-.23-.15.71.71,0,0,1-.15-.22,1.43,1.43,0,0,1-.09-.27,1.39,1.39,0,0,1,0-.3Z"/><path class="cls-7" d="M69.06,81h.29v1.94h-.29Z"/><path class="cls-7" d="M69.67,82a1.27,1.27,0,0,1,0-.28,1.07,1.07,0,0,1,.09-.27.71.71,0,0,1,.15-.22.67.67,0,0,1,.49-.22.64.64,0,0,1,.28.06.54.54,0,0,1,.22.15,1.39,1.39,0,0,1,.15.22,1.07,1.07,0,0,1,.09.27,1.36,1.36,0,0,1,0,.29V82a.38.38,0,0,0,0,.1,1.62,1.62,0,0,1,0,.19l0,.1,0,.09a1,1,0,0,1-.1.17.5.5,0,0,1-.14.15.38.38,0,0,1-.18.09.85.85,0,0,1-.23,0,.75.75,0,0,1-.26,0,.41.41,0,0,1-.2-.12.61.61,0,0,1-.14-.17.67.67,0,0,1-.09-.21,1.06,1.06,0,0,1,0-.23,1,1,0,0,1,0-.24ZM70,82v.1a.28.28,0,0,1,0,.09s0,.06,0,.1l0,.1a1.31,1.31,0,0,0,.09.17.35.35,0,0,0,.14.13.38.38,0,0,0,.19,0,.36.36,0,0,0,.2-.06.44.44,0,0,0,.14-.13,1.08,1.08,0,0,0,.08-.19,1.62,1.62,0,0,0,0-.19s0-.06,0-.09V82a.76.76,0,0,0,0-.15s0,0,0-.08,0-.06,0-.08l-.06-.16a.73.73,0,0,0-.09-.13l-.13-.1a.41.41,0,0,0-.35,0,.4.4,0,0,0-.13.13.51.51,0,0,0-.09.18l0,.1s0,.06,0,.09a.28.28,0,0,1,0,.09V82Zm.62-1.52h.34l-.41.42h-.22Z"/><path class="cls-7" d="M71.53,81h.24l.6,1,.06.09,0,.09a.31.31,0,0,1,0,.1l0,.07,0,0h0V81h.27v1.94h-.23l-.14-.22c-.09-.15-.19-.31-.29-.49L72.08,82,72,81.85l-.1-.17-.09-.16h0v1.41h-.28Z"/><path class="cls-7" d="M73.84,81.87h.65v.25h-.65Z"/><path class="cls-7" d="M75.53,82.47a.53.53,0,0,0,.45.24.36.36,0,0,0,.24-.08.31.31,0,0,0,.09-.24.24.24,0,0,0-.14-.22L76,82.11h-.08l0,0h0l-.12,0,0,0,0,0-.1-.07a.35.35,0,0,1-.07-.09.33.33,0,0,1,0-.12.78.78,0,0,1,0-.16.54.54,0,0,1,.15-.4A.54.54,0,0,1,76,81a.63.63,0,0,1,.33.09.78.78,0,0,1,.24.24l-.2.15a.44.44,0,0,0-.38-.22.25.25,0,0,0-.2.09.33.33,0,0,0-.08.22.23.23,0,0,0,.15.21l.14.06.08,0,0,0h0l.14.05,0,0,.07,0a.47.47,0,0,1,.1.1.4.4,0,0,1,.07.13.58.58,0,0,1,0,.19.54.54,0,0,1-.17.42A.64.64,0,0,1,76,83a.82.82,0,0,1-.38-.09.8.8,0,0,1-.28-.27Z"/><path class="cls-7" d="M76.8,82a1.36,1.36,0,0,1,0-.29,1.22,1.22,0,0,1,.09-.27.86.86,0,0,1,.15-.22.6.6,0,0,1,.22-.16.64.64,0,0,1,.28,0,.62.62,0,0,1,.27,0,.86.86,0,0,1,.22.15,1.39,1.39,0,0,1,.15.22.5.5,0,0,1,.05.13.57.57,0,0,1,0,.14,1.36,1.36,0,0,1,0,.29v.1a.28.28,0,0,0,0,.09,1.29,1.29,0,0,1,0,.19.85.85,0,0,1-.06.19,1,1,0,0,1-.1.18.62.62,0,0,1-.14.14.51.51,0,0,1-.18.09.85.85,0,0,1-.23,0,.56.56,0,0,1-.3-.07.52.52,0,0,1-.22-.16.8.8,0,0,1-.14-.24,1.07,1.07,0,0,1-.08-.27,1.27,1.27,0,0,1,0-.28Zm.29,0V82s0,.06,0,.08l0,.17.06.16a.38.38,0,0,0,.09.13.27.27,0,0,0,.12.09.38.38,0,0,0,.34,0,.32.32,0,0,0,.13-.1.64.64,0,0,0,.08-.14.52.52,0,0,0,.06-.16s0-.06,0-.09a.17.17,0,0,0,0-.07A.71.71,0,0,0,78,82a1.09,1.09,0,0,0,0-.18,1.46,1.46,0,0,0,0-.2l-.09-.18a.41.41,0,0,0-.14-.12.29.29,0,0,0-.18,0,.33.33,0,0,0-.2,0,.4.4,0,0,0-.13.13.51.51,0,0,0-.09.18,1.46,1.46,0,0,0-.05.2s0,.06,0,.08V82Z"/><path class="cls-7" d="M78.75,82.47a.52.52,0,0,0,.45.24.36.36,0,0,0,.24-.08.31.31,0,0,0,.09-.24.26.26,0,0,0-.14-.22l-.15-.06h-.08l0,0h0L79,82l0,0-.06,0a.31.31,0,0,1-.09-.07.36.36,0,0,1-.08-.09.73.73,0,0,1-.05-.12.81.81,0,0,1,0-.16.54.54,0,0,1,.15-.4.53.53,0,0,1,.41-.16.59.59,0,0,1,.32.09.82.82,0,0,1,.25.24l-.21.15a.43.43,0,0,0-.37-.22.26.26,0,0,0-.21.09.38.38,0,0,0-.07.22.24.24,0,0,0,.14.21l.15.06.07,0,.06,0h0l.13.05.06,0,.06,0a.36.36,0,0,1,.11.1.76.76,0,0,1,.07.13,1.11,1.11,0,0,1,0,.19.51.51,0,0,1-.17.42.61.61,0,0,1-.45.16.78.78,0,0,1-.37-.09.72.72,0,0,1-.28-.27Z"/><path class="cls-7" d="M79.92,81h1.27v.26H80.7v1.68h-.28V81.25h-.5Z"/><path class="cls-7" d="M81.44,81h1.19v.26h-.91v.57h.8v.25h-.79v.6h.94l0,.26H81.44Z"/><path class="cls-7" d="M83,81h.24l.6,1,.06.09,0,.09.06.1a.43.43,0,0,0,0,.07l0,0h0V81h.27v1.94h-.23l-.14-.22c-.09-.15-.19-.31-.29-.49L83.51,82l-.08-.14-.1-.17-.09-.16h0v1.41H83Z"/><path class="cls-7" d="M84.72,81H85v1.94h-.29Z"/><path class="cls-7" d="M85.42,81H86a.88.88,0,0,1,.24,0l.19.1a.36.36,0,0,1,.14.16.66.66,0,0,1,0,.25.47.47,0,0,1-.17.38.4.4,0,0,1,.22.16.52.52,0,0,1,.08.29.73.73,0,0,1,0,.27.35.35,0,0,1-.13.18.47.47,0,0,1-.2.1,1.12,1.12,0,0,1-.27,0h-.7Zm.64.81a.32.32,0,0,0,.22-.07.25.25,0,0,0,.07-.19.29.29,0,0,0-.08-.21.35.35,0,0,0-.26-.08h-.33v.55Zm0,.88a.47.47,0,0,0,.3-.07.28.28,0,0,0,.1-.25.28.28,0,0,0-.1-.23.4.4,0,0,0-.26-.08h-.45v.63Z"/><path class="cls-7" d="M87.06,81h.3v1.94h-.3Z"/><path class="cls-7" d="M87.76,81H88v1.67h.88l0,.27H87.76Z"/><path class="cls-7" d="M89.17,81h.29v1.94h-.29Z"/><path class="cls-7" d="M89.87,81h.61l.16,0a1,1,0,0,1,.29.11.76.76,0,0,1,.21.19.74.74,0,0,1,.14.28,1.34,1.34,0,0,1,0,.87.89.89,0,0,1-.3.34.84.84,0,0,1-.45.12h-.61Zm.55,1.68a.54.54,0,0,0,.22,0,.82.82,0,0,0,.2-.12.6.6,0,0,0,.16-.22.88.88,0,0,0,0-.29.65.65,0,0,0-.74-.75h-.17v1.42Z"/><path class="cls-7" d="M92.11,81h.26l.14.36.58,1.58h-.3l-.17-.46h-.77l-.18.46H91.4Zm.43,1.23L92.45,82l0-.11-.18-.5h0c0,.09-.06.16-.07.21a.64.64,0,0,1,0,.1l-.19.54Z"/><path class="cls-7" d="M93.28,81h.61l.16,0a1,1,0,0,1,.29.11.79.79,0,0,1,.22.19.73.73,0,0,1,.13.28,1.34,1.34,0,0,1,0,.87.89.89,0,0,1-.3.34.84.84,0,0,1-.45.12h-.61Zm.55,1.68a.54.54,0,0,0,.22,0,.88.88,0,0,0,.21-.12.71.71,0,0,0,.15-.22.68.68,0,0,0,0-.29.65.65,0,0,0-.74-.75h-.17v1.42Z"/><path class="cls-7" d="M47.26,82.7l.82-1.21.2-.28h-1l0-.25h1.26v.22l-.22.32-.21.32c-.08.11-.15.23-.24.35l-.2.3-.12.19h1l0,.26H47.26Z"/><path class="cls-8" d="M80.29,56.24a2.61,2.61,0,0,1-1.15,1.24A6.77,6.77,0,0,0,80.29,56.24Z"/><path class="cls-8" d="M26.76,65.14h1.65V69.9a1.81,1.81,0,0,0,.28,1.1,1.08,1.08,0,0,0,.95.39,1.65,1.65,0,0,0,.67-.11.84.84,0,0,0,.4-.31,1.5,1.5,0,0,0,.19-.47,3.28,3.28,0,0,0,.05-.6V65.14h1.63V69.9a3.74,3.74,0,0,1-.08.84,2.93,2.93,0,0,1-.29.81,2.32,2.32,0,0,1-.52.68,2.25,2.25,0,0,1-.84.47,3.42,3.42,0,0,1-1.19.19,3.34,3.34,0,0,1-1.19-.19,2.18,2.18,0,0,1-1.34-1.16,3,3,0,0,1-.27-.8,4.41,4.41,0,0,1-.08-.83Z"/><path class="cls-8" d="M34,65.16h1.32L37.84,69l.08.12.07.11.09.14.1.14.09.14V65.15H39.9v7.61H38.61l-.17-.27L38,71.82l-.58-.9c-.2-.31-.41-.63-.62-1s-.4-.61-.54-.84-.25-.39-.33-.51l-.18-.27c0-.07-.07-.12-.09-.14v4.57H34Z"/><path class="cls-8" d="M41.44,65.15h1.72v7.61H41.44Z"/><path class="cls-8" d="M45.73,65.16c.21.62.36,1.12.48,1.48s.19.59.23.69.07.22.14.46.18.59.3,1c.25.86.41,1.46.5,1.82h0c.09-.34.27-.94.54-1.81.14-.43.25-.78.33-1s.14-.43.17-.52l.68-2.11h1.7l-2.69,7.61H46.7L44,65.15Z"/><path class="cls-8" d="M51.66,65.15h5.27l-.09,1.48H53.31v1.54h3.16l-.12,1.45h-3v1.62H57l-.09,1.52H51.66Z"/><path class="cls-8" d="M58.17,65.16h2.48a4.36,4.36,0,0,1,1.14.13,2.92,2.92,0,0,1,.92.4,2,2,0,0,1,.64.76,2.62,2.62,0,0,1,.22,1.13,2.19,2.19,0,0,1-1.27,2l2.08,3.13h-2l-1.71-2.88h-.88v2.88H58.18Zm2.68,3.38a1.09,1.09,0,0,0,.77-.26.83.83,0,0,0,.31-.66c0-.69-.38-1-1.14-1h-1v2Z"/><path class="cls-8" d="M66,70.58a2.41,2.41,0,0,0,.73.65,2.06,2.06,0,0,0,.93.2,1.29,1.29,0,0,0,.76-.21.78.78,0,0,0,.28-.67.56.56,0,0,0-.12-.36.87.87,0,0,0-.33-.25L68,69.85a1.6,1.6,0,0,0-.26-.08l-.28-.08-.29-.08-.31-.09-.3-.11a2.5,2.5,0,0,1-.57-.27,2.84,2.84,0,0,1-.49-.4,1.68,1.68,0,0,1-.33-.59,2.48,2.48,0,0,1-.13-.8,2.28,2.28,0,0,1,.34-1.24,2.13,2.13,0,0,1,.91-.8A2.92,2.92,0,0,1,67.56,65a3,3,0,0,1,2.57,1.39l-1.23.87a2.37,2.37,0,0,0-.62-.58,1.49,1.49,0,0,0-.76-.2.82.82,0,0,0-.61.23.88.88,0,0,0-.22.62.5.5,0,0,0,.12.34.88.88,0,0,0,.34.23,3.79,3.79,0,0,0,.48.17l.28.08.3.08.61.18a2.45,2.45,0,0,1,.57.27,2.34,2.34,0,0,1,.49.39,1.6,1.6,0,0,1,.33.59,2.55,2.55,0,0,1,.12.81,2.49,2.49,0,0,1-.21,1,2.13,2.13,0,0,1-.61.75,3,3,0,0,1-.87.44,3.62,3.62,0,0,1-1.06.15,3.37,3.37,0,0,1-2.88-1.49Z"/><path class="cls-8" d="M71.46,65.15h1.72v7.61H71.46Z"/><path class="cls-8" d="M74.71,65.16h2a7.57,7.57,0,0,1,1.41.12,4.27,4.27,0,0,1,1.18.43,3.24,3.24,0,0,1,.93.73,3.16,3.16,0,0,1,.59,1.09A4.85,4.85,0,0,1,81,69a3.65,3.65,0,0,1-1,2.64,3.79,3.79,0,0,1-2.63,1.11H74.72Zm2.46,6.1a2.32,2.32,0,0,0,.77-.14,2.36,2.36,0,0,0,.69-.39,1.79,1.79,0,0,0,.52-.68,2.28,2.28,0,0,0,.2-1,2.39,2.39,0,0,0-.65-1.87,2.9,2.9,0,0,0-2-.58h-.38v4.62Z"/><path class="cls-8" d="M84.23,65.15h1.43l3,7.61H86.86l-.56-1.45H83.48l-.56,1.45H81.24Zm1.59,4.77-.62-2c-.15-.49-.24-.8-.28-.94h0l-1,2.93Z"/><path class="cls-8" d="M89.42,65.16h2a7.38,7.38,0,0,1,1.4.12,4.33,4.33,0,0,1,1.19.43,3.34,3.34,0,0,1,.92.73,3,3,0,0,1,.59,1.09A4.56,4.56,0,0,1,95.73,69a3.65,3.65,0,0,1-1,2.64,3.81,3.81,0,0,1-2.63,1.11H89.43Zm2.47,6.1a2.22,2.22,0,0,0,.76-.14,2.29,2.29,0,0,0,.7-.39,2,2,0,0,0,.52-.68,2.27,2.27,0,0,0,.19-1,2.39,2.39,0,0,0-.64-1.87,2.91,2.91,0,0,0-2-.58h-.38v4.62Z"/><path class="cls-8" d="M27,74.46h3.25v.67H29v4.31h-.71V75.13H27Z"/><path class="cls-8" d="M30.84,79.44v-5H33.9l0,.67H31.53v1.46h2.06l0,.65h-2v1.53h2.4l0,.67Zm1.87-6.38h.87l-1,1.07H32Z"/><path class="cls-8" d="M34.48,77a4,4,0,0,1,.07-.79,3.19,3.19,0,0,1,.23-.7,2.39,2.39,0,0,1,.39-.57,1.75,1.75,0,0,1,.57-.39,2,2,0,0,1,.74-.14,1.74,1.74,0,0,1,.39,0,2.07,2.07,0,0,1,.41.15,1.48,1.48,0,0,1,.41.29,2.29,2.29,0,0,1,.36.44l-.54.39a1.26,1.26,0,0,0-1-.63,1.06,1.06,0,0,0-.92.53A2.51,2.51,0,0,0,35.21,77a2.93,2.93,0,0,0,.16,1,1.65,1.65,0,0,0,.45.67,1,1,0,0,0,.65.24,1.31,1.31,0,0,0,1.14-.68l.54.39a2.08,2.08,0,0,1-.48.57,1.79,1.79,0,0,1-.57.31,2,2,0,0,1-.59.09,2,2,0,0,1-.75-.14,1.92,1.92,0,0,1-.57-.39,2.42,2.42,0,0,1-.4-.57,3.29,3.29,0,0,1-.23-.69,3.69,3.69,0,0,1-.08-.76Z"/><path class="cls-8" d="M38.93,74.46h.6L41.07,77l.15.25.14.23c0,.08.09.16.14.24s.08.14.11.19a.58.58,0,0,0,0,.09h0V74.46h.69v5h-.59l-.34-.57c-.23-.38-.49-.8-.76-1.26L40.33,77l-.21-.36-.25-.42-.23-.43h0c0,.14,0,.27,0,.38v3.24h-.7Z"/><path class="cls-8" d="M43.42,74.46h.75v5h-.75Z"/><path class="cls-8" d="M45,77a4,4,0,0,1,.08-.79,2.74,2.74,0,0,1,.23-.7,2.13,2.13,0,0,1,.39-.57,1.61,1.61,0,0,1,.56-.39,2,2,0,0,1,.75-.14,1.73,1.73,0,0,1,.38,0,2.07,2.07,0,0,1,.41.15,1.34,1.34,0,0,1,.41.29,1.73,1.73,0,0,1,.36.44l-.54.39a1.24,1.24,0,0,0-1-.63,1,1,0,0,0-.91.53A2.43,2.43,0,0,0,45.74,77a2.69,2.69,0,0,0,.17,1,1.65,1.65,0,0,0,.45.67,1,1,0,0,0,.64.24,1.31,1.31,0,0,0,1.14-.68l.55.39a2.11,2.11,0,0,1-.49.57,1.69,1.69,0,0,1-.57.31,1.9,1.9,0,0,1-.58.09,2,2,0,0,1-.75-.14,1.85,1.85,0,0,1-.58-.39,2.39,2.39,0,0,1-.39-.57,2.82,2.82,0,0,1-.24-.69A3.7,3.7,0,0,1,45,77Z"/><path class="cls-8" d="M50.78,74.46h.66c.13.33.25.64.36,1l1.48,4h-.76l-.44-1.19h-2l-.44,1.19H49Zm1.1,3.15c-.1-.25-.17-.45-.22-.6l-.11-.29-.45-1.28h0q-.11.34-.18.54c0,.14-.08.22-.09.27l-.49,1.36Z"/><path class="cls-8" d="M55.46,74.47h1.11l.46,0c.14,0,.28,0,.41.06a2.69,2.69,0,0,1,.73.28,1.73,1.73,0,0,1,.56.48,2.05,2.05,0,0,1,.35.71,3.3,3.3,0,0,1,.13,1,2.84,2.84,0,0,1-.27,1.26A2,2,0,0,1,57,79.44H55.46Zm1.42,4.31a1.55,1.55,0,0,0,.56-.11,1.66,1.66,0,0,0,.52-.32,1.57,1.57,0,0,0,.39-.54,1.86,1.86,0,0,0,.15-.75A1.94,1.94,0,0,0,58,75.6a2,2,0,0,0-1.42-.46h-.44v3.64Z"/><path class="cls-8" d="M60,74.46h3l0,.67H60.71v1.46h2.06l-.05.65h-2v1.53H63.1l0,.67H60Z"/><path class="cls-8" d="M65.34,77a4,4,0,0,1,.07-.79,3.19,3.19,0,0,1,.23-.7,2.39,2.39,0,0,1,.39-.57,1.56,1.56,0,0,1,.57-.39,2,2,0,0,1,.74-.14,1.81,1.81,0,0,1,.39,0,2,2,0,0,1,.4.15,1.51,1.51,0,0,1,.42.29,2.29,2.29,0,0,1,.36.44l-.54.39a1.26,1.26,0,0,0-1-.63,1.05,1.05,0,0,0-.92.53A2.43,2.43,0,0,0,66.07,77a2.69,2.69,0,0,0,.16,1,1.65,1.65,0,0,0,.45.67,1,1,0,0,0,.64.24,1.32,1.32,0,0,0,1.15-.68l.54.39a2.11,2.11,0,0,1-.49.57,1.65,1.65,0,0,1-.56.31,2,2,0,0,1-.59.09,2,2,0,0,1-.75-.14,1.8,1.8,0,0,1-.57-.39,2.42,2.42,0,0,1-.4-.57,2.82,2.82,0,0,1-.24-.69,4.56,4.56,0,0,1-.07-.76Z"/><path class="cls-8" d="M69.55,77a4.32,4.32,0,0,1,.07-.74,2.82,2.82,0,0,1,.24-.69,2.1,2.1,0,0,1,.38-.57,1.59,1.59,0,0,1,.55-.4,1.87,1.87,0,0,1,.71-.14,1.67,1.67,0,0,1,.71.14,1.9,1.9,0,0,1,.55.37,2.1,2.1,0,0,1,.38.57,2.33,2.33,0,0,1,.14.33,1.89,1.89,0,0,1,.1.36,3.84,3.84,0,0,1,.08.76c0,.08,0,.16,0,.24s0,.15,0,.23a4.8,4.8,0,0,1-.09.5,3.13,3.13,0,0,1-.16.49,2.38,2.38,0,0,1-.25.44,1.75,1.75,0,0,1-.36.36,1.48,1.48,0,0,1-.47.24,1.87,1.87,0,0,1-.59.09,1.78,1.78,0,0,1-.78-.16,1.45,1.45,0,0,1-.55-.41,2.18,2.18,0,0,1-.36-.61,2.93,2.93,0,0,1-.2-.7,4.17,4.17,0,0,1-.06-.71Zm.74,0v.21c0,.06,0,.13,0,.2s0,.28.08.42a2.48,2.48,0,0,0,.15.41,1.56,1.56,0,0,0,.23.34.92.92,0,0,0,.31.24,1,1,0,0,0,.43.09,1.05,1.05,0,0,0,.44-.1.93.93,0,0,0,.33-.26,1.65,1.65,0,0,0,.22-.36,1.51,1.51,0,0,0,.13-.41,2.07,2.07,0,0,0,0-.22,1.25,1.25,0,0,0,0-.19c0-.12,0-.24,0-.36a2.56,2.56,0,0,0,0-.47,3.59,3.59,0,0,0-.13-.49,2.17,2.17,0,0,0-.22-.46A1.23,1.23,0,0,0,72,75.2a1,1,0,0,0-.48-.13.93.93,0,0,0-.49.14,1.1,1.1,0,0,0-.35.33,2,2,0,0,0-.22.47,2.42,2.42,0,0,0-.12.5l0,.23c0,.07,0,.14,0,.22Z"/><path class="cls-8" d="M73.62,74.46h3.25v.67H75.62v4.31H74.9V75.13H73.62Z"/><path class="cls-8" d="M77,77a3.5,3.5,0,0,1,.08-.74,2.8,2.8,0,0,1,.23-.69,2.36,2.36,0,0,1,.38-.57,1.59,1.59,0,0,1,.55-.4,1.87,1.87,0,0,1,.71-.14,1.67,1.67,0,0,1,.71.14,1.77,1.77,0,0,1,.55.37,2.39,2.39,0,0,1,.39.57c.05.11.1.22.14.33a1.9,1.9,0,0,1,.09.36,3.84,3.84,0,0,1,.08.76,1.93,1.93,0,0,1,0,.24,2,2,0,0,1,0,.23,4.8,4.8,0,0,1-.09.5,3.13,3.13,0,0,1-.16.49,2.38,2.38,0,0,1-.25.44,1.71,1.71,0,0,1-.35.36,1.6,1.6,0,0,1-.47.24,1.93,1.93,0,0,1-.6.09,1.71,1.71,0,0,1-.77-.16,1.48,1.48,0,0,1-.56-.41,2.8,2.8,0,0,1-.36-.61,3.49,3.49,0,0,1-.2-.7,4.17,4.17,0,0,1-.06-.71Zm.74,0a1.48,1.48,0,0,0,0,.21,1.5,1.5,0,0,0,0,.2,3.07,3.07,0,0,0,.07.42,2.48,2.48,0,0,0,.15.41,2,2,0,0,0,.23.34,1,1,0,0,0,.32.24.93.93,0,0,0,.42.09,1.05,1.05,0,0,0,.44-.1.78.78,0,0,0,.33-.26,1.65,1.65,0,0,0,.22-.36,2,2,0,0,0,.14-.41c0-.08,0-.15,0-.22a1.23,1.23,0,0,0,0-.19,2.17,2.17,0,0,0,0-.36A2.81,2.81,0,0,0,80,76a1.78,1.78,0,0,0-.22-.46,1.23,1.23,0,0,0-.35-.33,1,1,0,0,0-.48-.13.93.93,0,0,0-.49.14,1.1,1.1,0,0,0-.35.33,2.56,2.56,0,0,0-.22.47,2.42,2.42,0,0,0-.12.5l0,.23v.2Z"/><path class="cls-8" d="M81.78,74.46h1.33c1.14,0,1.71.52,1.71,1.54a1.45,1.45,0,0,1-.43,1.12,1.64,1.64,0,0,1-1.14.39h-.77v1.93h-.7Zm1.46,2.39a1,1,0,0,0,.64-.21.74.74,0,0,0,.25-.61.94.94,0,0,0-.23-.69,1,1,0,0,0-.7-.22h-.72v1.73Z"/><path class="cls-8" d="M86.47,74.46h.66c.13.33.25.64.36,1l1.48,4h-.76l-.43-1.19h-2l-.44,1.19h-.71Zm1.1,3.15c-.1-.25-.17-.45-.22-.6l-.11-.29-.45-1.28h0q-.1.34-.18.54a2.68,2.68,0,0,1-.09.27L86,77.61Z"/><path class="cls-8" d="M90.74,76.78l-1.49-2.32h.87l.49.81.22.37.31.53.18-.32.11-.19.71-1.2H93l-1.47,2.28,1.61,2.7H92.3l-1-1.69-.2-.41L91,77.6l-.08.16-1,1.68h-.85Z"/><path class="cls-8" d="M93.68,74.46h.75v5h-.75Z"/><path class="cls-8" d="M38.09,42.23a5.29,5.29,0,0,1,1.48.39s-.77-.15-1.56-.21h0a11.09,11.09,0,0,0-1,3.2.1.1,0,0,0,.12.1,2.46,2.46,0,0,0,.73-.2,1.39,1.39,0,0,1-.88.43.67.67,0,0,1-.59-.49,7.58,7.58,0,0,1,.86-3.08h-.32a11.25,11.25,0,0,0-1.16,0c-1.19,1.1-4,4.44-5.87,4.43a.92.92,0,0,1-1-.88c0-.36.19-.58.34-.58a.51.51,0,0,0-.15.31c0,.38.26.52.62.52,1.81,0,4.37-2.67,5.6-3.75-2.24.24-3.27.87-3.26,1s-.46-.09-.48-.46c0-.69,3-.93,4.16-1h0c.87-.86,3.25-3.29,3.71-3.77.3-.32.48-.47.68-.47a.94.94,0,0,1,.62.37.74.74,0,0,0-.41.25A16.15,16.15,0,0,0,38.09,42.23Zm-2-.16c.39,0,.8,0,1.21,0A27.08,27.08,0,0,1,39.06,39C39,39.05,38.88,39.13,36.09,42.07Z"/><path class="cls-8" d="M41.05,44.33a10.44,10.44,0,0,0,2.36-1.69c.05,0,.09,0,.06,0-.77.76-2.21,2.09-2.72,2.06-.08,0-.16-.08-.25-.19a.56.56,0,0,1-.13-.33A5.82,5.82,0,0,1,41.89,42a10.93,10.93,0,0,0-2.65,1.89l-.32.33c-.24.26-.31.49-.19.55-.25,0-.44-.23-.49-.48,0-.06,0-.28.26-.66a11,11,0,0,1,.86-1.24,5.5,5.5,0,0,1,1-1,.14.14,0,0,1,.12,0,.69.69,0,0,1,.49.56s0,0-.1,0-.43.33-.7.64c-.42.51-.89,1.11-1,1.34a3.79,3.79,0,0,1,.45-.45,10.64,10.64,0,0,1,2.82-1.93c.2,0,.45.47.34.56A8.72,8.72,0,0,0,41.05,44.33Zm0-3.65a.52.52,0,0,0-.54.28.73.73,0,0,1,.81-.77c.37,0,.72.37,1,.44a.73.73,0,0,0,.25,0,1.15,1.15,0,0,0,.89-.42c-.15.27-.67.86-1.2.76a7.9,7.9,0,0,1-.82-.27A1.86,1.86,0,0,0,41,40.68Z"/><path class="cls-8" d="M45.92,42.12c-1.52-.16-3.57,2.47-3.12,2.73s1.79-1,2.44-1.77a.87.87,0,0,1-.05-.42c0-.08.32-.31.43-.3a.24.24,0,0,1,.18.1.72.72,0,0,0,.65.5,3,3,0,0,0,1-.26,1.56,1.56,0,0,1-.85.44,1.45,1.45,0,0,1-.5,0,.68.68,0,0,1-.25-.06,3.61,3.61,0,0,1-3.09,2,.67.67,0,0,1-.57-.73c.15-1.37,2.13-2.54,3.45-2.4a.75.75,0,0,1,.5.2s0,0,0,0S46,42.12,45.92,42.12Z"/><path class="cls-8" d="M46.88,43.56c0,.14.15.29.23.38a7.4,7.4,0,0,1,2.61-.74s0,0,0,0a20.35,20.35,0,0,0-2.58.81c.1.09.29.35.25.53-.16.54-1.31.89-1.85.85-.19,0-.27-.17-.3-.36.06-.36,1.35-1,1.65-1.06-.08-.13-.55-.47-.45-.84.19-.62,1.45-1.16,2.19-1.1.24,0,.32.42.27.66a1.45,1.45,0,0,1-.81.56s0,0,0,0a2.66,2.66,0,0,0,.67-.7A3.12,3.12,0,0,0,46.88,43.56ZM45.51,45c.33-.06,1.42-.52,1.45-.84A8.47,8.47,0,0,0,45.51,45Z"/><path class="cls-8" d="M61.68,38.84a8.3,8.3,0,0,0-4.81-3.48,13,13,0,0,0,3.06-3.09l-3.86-5.5a1.89,1.89,0,0,1,.48-2.64l3.58-2.45a9.37,9.37,0,0,0-1.66-2.14,13.22,13.22,0,0,0-3.2-2.23A15.75,15.75,0,0,0,51.45,16a19.63,19.63,0,0,0-4.06-.42,21.32,21.32,0,0,0-2.74.17,17.52,17.52,0,0,0-2.9.66A13.68,13.68,0,0,0,35.83,20a19.26,19.26,0,0,0-2.71,3.48L39.26,28a14.91,14.91,0,0,1,1.85-2.24,10.5,10.5,0,0,1,1.66-1.38,5.19,5.19,0,0,1,1.66-.7,10.19,10.19,0,0,1,1.49-.27,6.18,6.18,0,0,1,.65,0h.87a5.23,5.23,0,0,1,3.87,1.38,4.18,4.18,0,0,1,1.38,3A4.76,4.76,0,0,1,51.78,31c-.61.7-1.73,1-3.37,1H42.3v7.16h6A6.76,6.76,0,0,1,53,40.58a5.11,5.11,0,0,1,1.58,4,5.28,5.28,0,0,1-1.88,4.26,8.49,8.49,0,0,1-5.56,1.57L46,50.4c-.34,0-.65,0-.92-.09a8.13,8.13,0,0,1-1.94-.58,6.23,6.23,0,0,1-2.18-1.52,16.54,16.54,0,0,1-2.16-2.79l-6.3,4.75A19.81,19.81,0,0,0,35,53.71a14.52,14.52,0,0,0,2.74,2.41,12.09,12.09,0,0,0,3,1.43,15.92,15.92,0,0,0,3.07.75,12.07,12.07,0,0,0,1.51.15c.52,0,1.07,0,1.64,0a27,27,0,0,0,4.87-.41,18.28,18.28,0,0,0,4.45-1.41A12.52,12.52,0,0,0,60,54.18a11.16,11.16,0,0,0,2.49-3.81,13.63,13.63,0,0,0,.94-5.23A11.29,11.29,0,0,0,61.68,38.84Z"/><path class="cls-8" d="M82.24,23.47V18.62a3.07,3.07,0,0,0-3.06-3.07h-7a2.75,2.75,0,0,0-1.52.47l-7.94,5.35-.42.29-3.75,2.52a1.53,1.53,0,0,0-.45,2.06l2.38,3.89a5.35,5.35,0,0,0,1.76,1.75,6.08,6.08,0,0,0,.84.44,5.55,5.55,0,0,0,2,.37,5.34,5.34,0,0,0,2.53-.64.3.3,0,0,1,.44.27V50.48h0v.87a7.27,7.27,0,0,0,7,7.35A7.11,7.11,0,0,0,79.77,57a6.8,6.8,0,0,0,1.15-1.25,7,7,0,0,0,1.36-4.17Zm-4-1.61c0,.08,0,4.43,0,4.56l0,5V51.9a2.83,2.83,0,0,1-3.1,2.82,2.9,2.9,0,0,1-2.56-2.93v-17h0V28.06a1.2,1.2,0,0,0-1.87-1l-.92.61-3.12,2.07a2.37,2.37,0,0,1-3.16-.51l-2.4-3.09a.44.44,0,0,1,.11-.66l2.13-1.41,1.51-1,1.51-1,5.22-3.52a2.45,2.45,0,0,1,1.37-.41h3.88a1.46,1.46,0,0,1,1.46,1.45Z"/><rect class="cls-9" x="42.96" y="84.65" width="8.01" height="8.01"/><rect class="cls-3" x="51.8" y="84.65" width="8.01" height="8.01"/><rect class="cls-10" x="69.5" y="84.72" width="8.01" height="8.01"/><rect class="cls-11" x="60.57" y="84.72" width="8.01" height="8.01"/><path class="cls-7" d="M48.2,87a2.37,2.37,0,0,0-1.56-.59,2.47,2.47,0,0,0-.6.08l-.19,0h0a2.49,2.49,0,0,0-.58.31l-.14.1a2.38,2.38,0,0,0,.38,3.92l.12.06a2.36,2.36,0,0,0,1,.22,2.24,2.24,0,0,0,.68-.1h0l.1,0a2.23,2.23,0,0,0,1-.68l.08-.09s0,0,0,0A2.3,2.3,0,0,0,49,88.82a2.36,2.36,0,0,0-.67-1.65Zm-1.56-.41a2.18,2.18,0,0,1,1.44.54H48l-.17,0a1.24,1.24,0,0,0-.74-.06l-.19.07h0l-.19.07h-.06a.42.42,0,0,1-.22-.08.78.78,0,0,1-.2-.24.83.83,0,0,0-.13-.18A2,2,0,0,1,46.64,86.63Zm-1,4.13h0a2.19,2.19,0,0,1-.35-3.62l.11-.08c.12,0,.16,0,.2.2v.14a.38.38,0,0,0,0,.21.38.38,0,0,0,.09.13.19.19,0,0,1,.07.12c0,.18-.18.23-.42.27h-.07l-.17.05c-.13,0-.21.12-.23.21a.53.53,0,0,0,.16.46.77.77,0,0,1,.15.79c0,.15-.11.32.07.47a1.2,1.2,0,0,0,.17.11l.08,0a.32.32,0,0,1,.12.18A.87.87,0,0,1,45.61,90.76Zm2.7-.5a2.3,2.3,0,0,1-.91.63h0a1.73,1.73,0,0,0-.81-.64.4.4,0,0,1-.25-.18L46.24,90a1,1,0,0,0-.31-.2l-.08,0a.36.36,0,0,1-.22-.43.57.57,0,0,1,.61-.41h0l.19,0a.49.49,0,0,0,.47-.11.58.58,0,0,0,.16-.36.8.8,0,0,1,0-.21.7.7,0,0,1,.13-.17.14.14,0,0,1,.12,0,.22.22,0,0,0,.11,0,.43.43,0,0,0,.16-.14.28.28,0,0,1,.23-.15.72.72,0,0,1,.55.24.22.22,0,0,1,0,.22,1.59,1.59,0,0,1-.13.13h0a.46.46,0,0,0-.19.31.28.28,0,0,0,.1.28.34.34,0,0,1,.09.14.37.37,0,0,1,0,.29.71.71,0,0,0-.05.29s0,.06,0,.1a2.45,2.45,0,0,0,.11.43Zm.17-.25a2.16,2.16,0,0,1-.07-.26s0-.08,0-.11a.38.38,0,0,1,0-.2.57.57,0,0,0,0-.41.69.69,0,0,0-.13-.2.12.12,0,0,1-.05-.14c0-.09.05-.13.13-.2h0l0,0,0,0,0,0,0,0a.37.37,0,0,0,0-.4.55.55,0,0,0-.18-.19,1,1,0,0,0-.54-.15.46.46,0,0,0-.37.22.3.3,0,0,1-.07.08h0a.26.26,0,0,0-.24,0,.64.64,0,0,0-.19.25.84.84,0,0,0-.06.24.39.39,0,0,1-.11.26.32.32,0,0,1-.32.07,1.18,1.18,0,0,0-.21,0,.74.74,0,0,0-.83.55.52.52,0,0,0,.23.58l.09,0,.09,0L46,90a.27.27,0,0,1,.08.07l.07.09a.91.91,0,0,0,.17.17.75.75,0,0,0,.18.07,1.23,1.23,0,0,1,.26.12,1.73,1.73,0,0,1,.41.4,2.5,2.5,0,0,1-.54.07,2.19,2.19,0,0,1-.87-.18.13.13,0,0,0,0-.06h0a.13.13,0,0,1,0-.06v-.27s0,0,0-.06a.49.49,0,0,0-.29-.33.55.55,0,0,1-.14-.09c-.08-.06-.07-.11,0-.28s0-.1,0-.16a1,1,0,0,0-.24-.79c-.1-.12-.14-.23-.12-.29v0l0,0,.06,0h0a1,1,0,0,1,.21,0c.22,0,.59-.11.57-.46a.43.43,0,0,0-.13-.24l-.05-.06a.56.56,0,0,1,0-.13.6.6,0,0,0,0-.19s0,0,0-.06h0v0h0v0l0,0h0s0,0,0,0h0l0,0h-.06l.32-.14h0c.08,0,.13.11.19.21a1,1,0,0,0,.24.28.56.56,0,0,0,.33.12.85.85,0,0,0,.32-.09l0-.08,0,.08.16-.07a1,1,0,0,1,.64.06l.18,0h.29A2.19,2.19,0,0,1,48.48,90Z"/><path class="cls-7" d="M54.07,91h0a.58.58,0,0,1-.37-.21.06.06,0,0,1,0,0,4.25,4.25,0,0,1,.35-.79,1.23,1.23,0,0,1-.13-1,1.93,1.93,0,0,1,.55-.92,3.74,3.74,0,0,1,1.17-.62l.36-.15a3,3,0,0,0,.68-.38,1.53,1.53,0,0,0,.47-.56.1.1,0,0,1,0,0l.06,0a2.64,2.64,0,0,1,.55,1,2.59,2.59,0,0,1-.3,2.17,2.74,2.74,0,0,1-.8.79,2.61,2.61,0,0,1-2.18.26.08.08,0,0,1,0-.09.07.07,0,0,1,.08,0,2.53,2.53,0,0,0,1.06.11,2.7,2.7,0,0,0,1-.35,2.59,2.59,0,0,0,.76-.75,2.64,2.64,0,0,0,.37-1,2.4,2.4,0,0,0-.09-1.06,2.31,2.31,0,0,0-.46-.86A2.34,2.34,0,0,1,56,87.4l-.36.15a3.8,3.8,0,0,0-1.13.6A1.7,1.7,0,0,0,54,89a1.06,1.06,0,0,0,.13.9.06.06,0,0,1,0,.06,5.08,5.08,0,0,0-.34.76.48.48,0,0,0,.21.12,10.81,10.81,0,0,1,.79-1.69,4.77,4.77,0,0,1,.6-.77,3.18,3.18,0,0,1,.78-.57s.08,0,.09,0a.07.07,0,0,1,0,.09,2.88,2.88,0,0,0-.75.55,4.42,4.42,0,0,0-.58.74,11.17,11.17,0,0,0-.8,1.72A.07.07,0,0,1,54.07,91Z"/><path class="cls-7" d="M54.07,91h0a.63.63,0,0,1-.4-.22.19.19,0,0,1,0-.08,4.1,4.1,0,0,1,.35-.78,1.27,1.27,0,0,1-.12-1,1.83,1.83,0,0,1,.56-.93,3.72,3.72,0,0,1,1.18-.63l.36-.15a3.14,3.14,0,0,0,.67-.37,1.67,1.67,0,0,0,.46-.55.09.09,0,0,1,.08-.06.11.11,0,0,1,.1,0,2.67,2.67,0,0,1,.56,1,2.67,2.67,0,0,1-1.12,3,2.83,2.83,0,0,1-1.08.37,2.53,2.53,0,0,1-1.13-.11.13.13,0,0,1-.07,0,.28.28,0,0,1,0-.09.09.09,0,0,1,.06-.06.1.1,0,0,1,.09,0,2.44,2.44,0,0,0,2-.24,2.52,2.52,0,0,0,.75-.74,2.49,2.49,0,0,0,.37-1,2.63,2.63,0,0,0-.09-1,2.53,2.53,0,0,0-.41-.78,2.5,2.5,0,0,1-1.16.87l-.37.15a3.79,3.79,0,0,0-1.11.59,1.74,1.74,0,0,0-.5.83,1,1,0,0,0,.13.86.11.11,0,0,1,0,.11,7.06,7.06,0,0,0-.33.72.32.32,0,0,0,.13.08,11.21,11.21,0,0,1,.78-1.66,4.81,4.81,0,0,1,.61-.77,3,3,0,0,1,.79-.58.1.1,0,0,1,.09,0,.09.09,0,0,1,.06.06.08.08,0,0,1,0,.08.13.13,0,0,1-.06.07,2.81,2.81,0,0,0-.73.54,4.33,4.33,0,0,0-.58.73A9.81,9.81,0,0,0,54.18,91,.12.12,0,0,1,54.07,91Zm3.12-4.68h0a0,0,0,0,0,0,0,1.48,1.48,0,0,1-.49.58,3.51,3.51,0,0,1-.68.38l-.36.15a3.88,3.88,0,0,0-1.16.61A1.81,1.81,0,0,0,54,89a1.13,1.13,0,0,0,.12.93v0a3.55,3.55,0,0,0-.34.77v0a.52.52,0,0,0,.34.18h0s0,0,0,0a10.86,10.86,0,0,1,.8-1.73,5,5,0,0,1,.59-.75,3.31,3.31,0,0,1,.76-.56h0s0,0,0,0a3.13,3.13,0,0,0-.77.57,4.55,4.55,0,0,0-.59.75,10.23,10.23,0,0,0-.79,1.69v0h0a.47.47,0,0,1-.24-.13l0,0v0a8,8,0,0,1,.35-.76s0,0,0,0A1.13,1.13,0,0,1,54,89a1.9,1.9,0,0,1,.53-.88,4,4,0,0,1,1.14-.6l.36-.15a2.29,2.29,0,0,0,1.15-.9l0-.06.05.06a2.53,2.53,0,0,1,.47.87,2.47,2.47,0,0,1,.09,1.08,2.58,2.58,0,0,1-1.16,1.77,2.53,2.53,0,0,1-2.1.26h0a0,0,0,0,0,0,0v0a2.56,2.56,0,0,0,1.1.11,2.69,2.69,0,0,0,1-.36,2.55,2.55,0,0,0,.79-.78,2.46,2.46,0,0,0,.29-2.13,2.43,2.43,0,0,0-.54-1A0,0,0,0,0,57.19,86.35Z"/><path class="cls-7" d="M64.38,90.51l0,0a3.15,3.15,0,0,1-2-2.42,1,1,0,0,1,.5-.92,1.35,1.35,0,0,1,1.6.43,1.35,1.35,0,0,1,1.6-.43,1,1,0,0,1,.49.92,3.12,3.12,0,0,1-2,2.42Zm-1.09-3.23a.84.84,0,0,0-.39.1.69.69,0,0,0-.36.69,2.88,2.88,0,0,0,1.84,2.16,2.88,2.88,0,0,0,1.84-2.16.71.71,0,0,0-.36-.69h0c-.74-.38-1.35.44-1.38.48l-.1.14-.11-.14A1.4,1.4,0,0,0,63.29,87.28Z"/><path class="cls-7" d="M74.3,86.67h-.07a.77.77,0,0,0-.81.15h0l-.12.11a.77.77,0,0,0-.87,0L72,86.46l-1.35,1.36.51.51a1.26,1.26,0,0,0,.24.7,1.49,1.49,0,0,0,.23.27l.31.32a.31.31,0,0,0,.06.43.35.35,0,0,0,.41.1h0c.12.18.23.27.36.28l.14.15a.48.48,0,0,0,.56.07.31.31,0,0,0,.13-.15c.31.26.51.26.75-.09h0a.35.35,0,0,0,.41-.09.3.3,0,0,0,0-.46l0,0a.27.27,0,0,0,.22-.12.35.35,0,0,0,0-.47l.16-.16a2,2,0,0,0,.23-.28,1.23,1.23,0,0,0,.24-.7l.51-.51-1.35-1.35Zm-2.59,2.44a1.22,1.22,0,0,1-.32-.56.58.58,0,0,1,0-.14v-.12l-.45-.44L72,86.73l.28.28,0,0h0l.18,0v0a.6.6,0,0,1,.73.08l.5.51a.13.13,0,0,1,0,.09.18.18,0,0,1,0,.1l0,0a.14.14,0,0,1-.19,0L73,87.32l-.12.09.14.16.06.06-.18.18,0,0h0l-1,1A.6.6,0,0,0,71.71,89.11Zm1.66,1.39a.15.15,0,0,1-.14,0,.25.25,0,0,1-.18-.1L73,90.38l.18-.13c0,.06,0,.1.13.14l.11,0Zm.73-.07c-.07.09-.16.1-.27,0l-.06,0a.18.18,0,0,0,.07-.05l.2-.19,0,0C74.16,90.26,74.18,90.34,74.1,90.43Zm.54-.28c-.08.11-.2.11-.31,0L74.18,90l.26-.25.14.15A.19.19,0,0,1,74.64,90.15Zm.21-.63a.18.18,0,0,1-.25.1l0,0,.25-.25A.17.17,0,0,1,74.85,89.52Zm1-1.91L75.4,88v.12a.7.7,0,0,1,0,.14,1.14,1.14,0,0,1-.32.55l-.65.66-.69.68a.33.33,0,0,1-.18.11.18.18,0,0,1-.14-.06.24.24,0,0,1,0-.17c0-.06.07-.11.11-.15s.21-.21.32-.32l.15-.16s.21-.17.12-.25-.2.07-.24.12l-.16.15c-.24.24-.48.48-.73.71s-.2.09-.27,0-.06-.17,0-.27l.83-.83A.16.16,0,0,0,73.6,89a.07.07,0,0,0,0-.09.16.16,0,0,0-.16.07l-1,1a.18.18,0,0,1-.3,0c-.06-.08,0-.16,0-.26l1-1c0-.06.09-.12,0-.18s-.12,0-.17,0l-.75.76a.44.44,0,0,1-.11.09.18.18,0,0,1-.25-.09A.2.2,0,0,1,72,89l1.26-1.26.17.17a.29.29,0,0,0,.21.09.32.32,0,0,0,.21-.08l0,0a.27.27,0,0,0,.09-.21.32.32,0,0,0-.08-.2l-.38-.38h0l-.07-.08.1-.1a.79.79,0,0,1,.41-.17.72.72,0,0,1,.4.09l.12-.11.26-.26Z"/></g></g></svg>