<svg xmlns="http://www.w3.org/2000/svg" viewBox="0 0 113.87 50.82"><defs><style>.cls-1{fill:#ff990e;}.cls-2{fill:#fd341f;}.cls-3{fill:#80c41c;}.cls-4{fill:#4393c3;}.cls-5{fill:#f3f2ee;}</style></defs><g id="Capa_2" data-name="Capa 2"><g id="Capa_1-2" data-name="Capa 1"><circle class="cls-1" cx="94.11" cy="48.21" r="2.45"/><circle class="cls-2" cx="81.37" cy="48.21" r="2.45"/><circle class="cls-3" cx="31.28" cy="48.21" r="2.45"/><circle class="cls-4" cx="19.77" cy="48.21" r="2.45"/><path class="cls-5" d="M18.05,33.7a3,3,0,0,1,2.31.82,2.87,2.87,0,0,1,.77,2,2.7,2.7,0,0,1-.79,2,3.31,3.31,0,0,1-2.43.8H16.69v2.81H14.8V33.7Zm-.07,4a1.1,1.1,0,0,0,1.21-1.11,1.08,1.08,0,0,0-1.13-1.11H16.69v2.22Z"/><path class="cls-5" d="M31.46,42.19l-.57-1.71H28l-.59,1.71h-2l3.18-8.49h1.66l3.12,8.49Zm-2-6.07-.92,2.69h1.83Z"/><path class="cls-5" d="M39.47,41.11A4.17,4.17,0,0,1,38.22,38a4.24,4.24,0,0,1,1.27-3.17,4.31,4.31,0,0,1,3.12-1.25,4.52,4.52,0,0,1,3.65,1.72L45,36.54a2.92,2.92,0,0,0-2.3-1.17,2.45,2.45,0,0,0-1.79.74A2.48,2.48,0,0,0,40.18,38,2.48,2.48,0,0,0,42.7,40.5a3,3,0,0,0,2.36-1.17l1.28,1.2a4.72,4.72,0,0,1-3.75,1.79A4.3,4.3,0,0,1,39.47,41.11Z"/><path class="cls-5" d="M52,42.19V33.7h1.89V37h3.31V33.7h1.91v8.49H57.23V38.85H53.92v3.34Z"/><path class="cls-5" d="M65.53,42.19V33.7h5.94v1.77h-4V37h3.73V38.8H67.44v1.62h4v1.77Z"/><path class="cls-5" d="M78.24,41.11A4.17,4.17,0,0,1,77,38a4.24,4.24,0,0,1,1.27-3.17,4.31,4.31,0,0,1,3.12-1.25A4.52,4.52,0,0,1,85,35.27l-1.25,1.27a2.92,2.92,0,0,0-2.3-1.17,2.45,2.45,0,0,0-1.79.74A2.48,2.48,0,0,0,79,38a2.48,2.48,0,0,0,2.52,2.54,3,3,0,0,0,2.36-1.17l1.28,1.2a4.72,4.72,0,0,1-3.75,1.79A4.3,4.3,0,0,1,78.24,41.11Z"/><path class="cls-5" d="M91.47,34.83a4.31,4.31,0,0,1,3.17-1.28,4.41,4.41,0,0,1,3.16,7.52,4.34,4.34,0,0,1-3.18,1.26,4.3,4.3,0,0,1-3.16-1.26A4.23,4.23,0,0,1,90.2,38,4.28,4.28,0,0,1,91.47,34.83Zm4.93,4.91A2.42,2.42,0,0,0,97.1,38a2.51,2.51,0,0,0-.73-1.8,2.3,2.3,0,0,0-1.73-.73,2.33,2.33,0,0,0-1.75.73,2.62,2.62,0,0,0,0,3.59,2.5,2.5,0,0,0,3.51,0Z"/><path class="cls-5" d="M5.36,1.82A7.87,7.87,0,0,1,7,1.71a6.5,6.5,0,0,1,3.82,1.06,3.91,3.91,0,0,1,1.5,3.45,21.36,21.36,0,0,1-1.2,5.43c-.79,2.55-1.6,5.24-2.41,8.07a26.54,26.54,0,0,0-1.21,7,4.31,4.31,0,0,0,.18,1.54,9.2,9.2,0,0,1-2.36.28Q0,28.51,0,23.94a28.28,28.28,0,0,1,1.36-7.38q1.35-4.69,2.73-8.77A22.75,22.75,0,0,0,5.47,2.54,2.8,2.8,0,0,0,5.36,1.82Z"/><path class="cls-5" d="M36.1,24.73a8,8,0,0,1-.22-1.79c-1.24,1.14-2.2,1.71-2.91,1.71-.15,0-.22-.19-.22-.61q0-1.63,2.89-10.07t2.9-10.15a3.07,3.07,0,0,0-1.18-2.61,5,5,0,0,0-3-.93A6.58,6.58,0,0,0,33,.4C33,1.84,32,5.62,30,11.69a4.26,4.26,0,0,0-1.51-2.2,5,5,0,0,0-3.38-1.06q-4.58,0-8,4.3a15.47,15.47,0,0,0-3.43,9.89A6.62,6.62,0,0,0,15,27.12a4.85,4.85,0,0,0,3.8,1.57,5.65,5.65,0,0,0,2.82-.75,8,8,0,0,0,2.39-2,20.36,20.36,0,0,0,1.8-2.57,25.34,25.34,0,0,0,1.35-2.71,15.56,15.56,0,0,0-.68,4.14q0,3.72,3.93,3.72a6.44,6.44,0,0,0,3.77-1.57,18,18,0,0,0,2-1.8.83.83,0,0,1,0-.15A2,2,0,0,1,36.1,24.73ZM25.67,21.15c-1.56,2.38-2.91,3.58-4,3.58-.95,0-1.43-.8-1.43-2.39a12.58,12.58,0,0,1,2.1-6.82q2.13-3.3,4.72-3.3a3.47,3.47,0,0,1,1.82.47,3.88,3.88,0,0,1,.66.45A35.77,35.77,0,0,1,25.67,21.15Z"/><path class="cls-5" d="M59.39,22.27c-1.56,1.59-2.73,2.38-3.53,2.38-.17,0-.25-.15-.25-.46a29.11,29.11,0,0,1,1.63-5.84,26.63,26.63,0,0,0,1.62-6.13,2.85,2.85,0,0,0-1.18-2.51,5.56,5.56,0,0,0-3.21-.81A7.12,7.12,0,0,0,53.4,9a6.14,6.14,0,0,1-.15,1.12,11.61,11.61,0,0,1-.4,1.6A4,4,0,0,0,51.28,9.4a5.17,5.17,0,0,0-3.25-1q-4.71,0-8.05,4.33a15.77,15.77,0,0,0-3.34,9.93v.08a1,1,0,0,0,0,.17,7.5,7.5,0,0,0,.22,1.79c0,.08,0,.15.05.23a.88.88,0,0,0,0,.15,7.4,7.4,0,0,0,.65,1.52,3.59,3.59,0,0,0,1.57,1.51,5.33,5.33,0,0,0,2.52.55,5.83,5.83,0,0,0,3.63-1.34,11.72,11.72,0,0,0,2.79-3,25.79,25.79,0,0,0,1.93-3.68q0,.15-.15.66c-.08.37-.16.71-.23,1a11.26,11.26,0,0,0-.2,1.14,10.31,10.31,0,0,0-.09,1.31c0,2.45,1.34,3.68,4,3.68a6.53,6.53,0,0,0,3.93-1.72,19.65,19.65,0,0,0,1.74-1.55l.57-.58a15.27,15.27,0,0,1,.46-3.16C59.89,21.76,59.63,22,59.39,22.27Zm-11-.84c-1.49,2.21-2.78,3.3-3.86,3.3s-1.43-.81-1.43-2.44a12.59,12.59,0,0,1,2.11-6.74c1.41-2.25,3-3.36,4.75-3.36a3.53,3.53,0,0,1,2.44,1A35.2,35.2,0,0,1,48.39,21.43Z"/><path class="cls-5" d="M73.86,18.12c-.37,1.2-.66,2.28-.88,3.24-.38.59-.79,1.18-1.23,1.78a18.64,18.64,0,0,1-3.61,3.75,6.33,6.33,0,0,1-3.78,1.59,4.58,4.58,0,0,1-3-.87,3.68,3.68,0,0,1-1-2.92v-.06a15.27,15.27,0,0,1,.46-3.16q.4-1.83,1.2-4.35,1.67-5.33,3.28-10.28c1.09-3.3,1.61-5.44,1.56-6.45a2,2,0,0,0,.39,0,6.48,6.48,0,0,1,1-.07,5,5,0,0,1,2.92.84,2.93,2.93,0,0,1,1.19,2.58q0,1.88-2.89,10.3T66.5,24.15c0,.36.09.54.28.54.93,0,2.42-1.11,4.45-3.32A31.28,31.28,0,0,0,73.86,18.12Z"/><path class="cls-5" d="M84.61,21.82c0,.29,0,.58,0,.87a5.15,5.15,0,0,0,0,.56,30.93,30.93,0,0,1-2.22,2.4q-2.83,2.79-5,2.79-4.11,0-4.11-3.64a16.38,16.38,0,0,1,.48-3.44q.33-1.44.87-3.24h0c.2-.66.42-1.36.67-2.1,1.36-4.08,2-6.42,2-7a7,7,0,0,1,1.21-.11,5.15,5.15,0,0,1,3.11.84,2.93,2.93,0,0,1,1.14,2.52,25.93,25.93,0,0,1-1.64,6.13,27.2,27.2,0,0,0-1.64,5.84c0,.33.09.5.28.5.93,0,2.45-1.19,4.58-3.59l.4-.46C84.66,21,84.63,21.42,84.61,21.82Z"/><path class="cls-5" d="M86.06,2.75a3.16,3.16,0,0,1-1.21,2.57,4.45,4.45,0,0,1-2.93,1,3.64,3.64,0,0,1-2-.53,1.75,1.75,0,0,1-.82-1.57,5.65,5.65,0,0,1,.52-2A4.35,4.35,0,0,0,80,.32l.75-.14A7.76,7.76,0,0,1,82.49,0a4.16,4.16,0,0,1,2.62.73A2.39,2.39,0,0,1,86.06,2.75Z"/><path class="cls-5" d="M113.65,15l-.1,0s-.08,0-.1,0a27,27,0,0,1-4.39,6.23c-2,2.28-3.53,3.41-4.47,3.41-.17,0-.26-.15-.26-.46A28.38,28.38,0,0,1,106,18.35a26.09,26.09,0,0,0,1.62-6.13,2.85,2.85,0,0,0-1.17-2.51,5.63,5.63,0,0,0-3.23-.81,7.4,7.4,0,0,0-1.07.07,5.32,5.32,0,0,1-.13,1.12,13.09,13.09,0,0,1-.41,1.6A4,4,0,0,0,100,9.4a5.16,5.16,0,0,0-3.24-1q-4.73,0-8.05,4.33a15.47,15.47,0,0,0-3.24,7.88c0,.39-.07.78-.09,1.18s0,.58,0,.87a5.12,5.12,0,0,0,0,.56,6.38,6.38,0,0,0,.11,1,2.88,2.88,0,0,0,.11.49,6.86,6.86,0,0,0,.74,1.9,3.7,3.7,0,0,0,1.57,1.51,5.34,5.34,0,0,0,2.53.55,5.79,5.79,0,0,0,3.62-1.34,11.9,11.9,0,0,0,2.79-3,28,28,0,0,0,1.94-3.68q0,.15-.15.66c-.09.37-.18.71-.24,1a9.24,9.24,0,0,0-.19,1.14,10.41,10.41,0,0,0-.1,1.31q0,3.68,4,3.68a6.57,6.57,0,0,0,3.94-1.72,20.61,20.61,0,0,0,3.83-4,37.48,37.48,0,0,0,2.8-4.38,8,8,0,0,0,1.14-3.08A.3.3,0,0,0,113.65,15ZM97.11,21.43c-1.49,2.21-2.78,3.3-3.85,3.3s-1.43-.81-1.43-2.44a12.58,12.58,0,0,1,2.1-6.74c1.4-2.25,3-3.36,4.75-3.36a3.5,3.5,0,0,1,2.44,1A35.2,35.2,0,0,1,97.11,21.43Z"/><path class="cls-5" d="M40.25,45H42a2.92,2.92,0,0,1,.82.1,1.81,1.81,0,0,1,.66.3,1.3,1.3,0,0,1,.45.55,2.08,2.08,0,0,1,.16.83,1.62,1.62,0,0,1-.27.94,1.59,1.59,0,0,1-.74.61l1.52,2.38H43.38L42.1,48.49h-.83v2.22h-1Zm1.91,2.62a1,1,0,0,0,.66-.23.74.74,0,0,0,.26-.58.85.85,0,0,0-.25-.67,1,1,0,0,0-.72-.24h-.84v1.72Z"/><path class="cls-5" d="M45.27,45H49l-.06.92H46.28v1.44h2.36l-.06.89h-2.3v1.52H49l-.05.94H45.27Z"/><path class="cls-5" d="M49.64,47.92a4.41,4.41,0,0,1,.09-.89,3.35,3.35,0,0,1,.27-.81,2.63,2.63,0,0,1,.47-.66,2,2,0,0,1,.68-.45,2.36,2.36,0,0,1,.9-.16h.18l.19,0a2.33,2.33,0,0,1,.39.11,1.72,1.72,0,0,1,.41.19,2.24,2.24,0,0,1,.4.32l.2.21.18.25-.79.55-.16-.2a1.33,1.33,0,0,0-.16-.17,1.68,1.68,0,0,0-.32-.22,1.48,1.48,0,0,0-.28-.09,1,1,0,0,0-.25,0,1.12,1.12,0,0,0-1,.54,2.54,2.54,0,0,0-.37,1.45,2.41,2.41,0,0,0,.39,1.42,1.11,1.11,0,0,0,.94.55,1.45,1.45,0,0,0,.68-.16,1.81,1.81,0,0,0,.61-.6l.78.55a2.2,2.2,0,0,1-2,1.17,2.4,2.4,0,0,1-.9-.17,2.21,2.21,0,0,1-.69-.44,2.7,2.7,0,0,1-.47-.66,2.82,2.82,0,0,1-.28-.8,4,4,0,0,1-.09-.85Z"/><path class="cls-5" d="M54.49,45h3.94v.94H57v4.77H56V45.94H54.49Z"/><path class="cls-5" d="M58.72,47.83a3.84,3.84,0,0,1,.09-.83,2.74,2.74,0,0,1,.27-.79,2.6,2.6,0,0,1,.46-.66,1.9,1.9,0,0,1,.66-.46,2.2,2.2,0,0,1,.86-.17,2.35,2.35,0,0,1,.86.16,1.93,1.93,0,0,1,.65.45,2.81,2.81,0,0,1,.46.65,3.31,3.31,0,0,1,.28.8,4.14,4.14,0,0,1,.09.87,2.26,2.26,0,0,1,0,.26,2.11,2.11,0,0,1,0,.26,4.28,4.28,0,0,1-.1.57l-.09.28a2.31,2.31,0,0,1-.1.28l-.13.26-.17.25a2.78,2.78,0,0,1-.42.42,1.9,1.9,0,0,1-.57.28,2.37,2.37,0,0,1-.72.1,2.32,2.32,0,0,1-.7-.1,1.81,1.81,0,0,1-.56-.26,2.25,2.25,0,0,1-.42-.4,2.8,2.8,0,0,1-.31-.5L59,49.28,58.88,49a4,4,0,0,1-.11-.58,5.46,5.46,0,0,1,0-.57Zm1,0a2.44,2.44,0,0,0,0,.27,1.24,1.24,0,0,0,0,.27,2.42,2.42,0,0,0,.13.53,2.69,2.69,0,0,0,.24.48,1.31,1.31,0,0,0,.37.33,1.18,1.18,0,0,0,.92.05,1,1,0,0,0,.32-.2,1.48,1.48,0,0,0,.23-.3,1.58,1.58,0,0,0,.16-.35,2,2,0,0,0,.11-.37c0-.14,0-.26.05-.38s0-.11,0-.17v-.16a2.26,2.26,0,0,0,0-.26l0-.26a3.07,3.07,0,0,0-.14-.52,1.9,1.9,0,0,0-.25-.47,1.07,1.07,0,0,0-.36-.34,1,1,0,0,0-.49-.13.88.88,0,0,0-.43.1,1,1,0,0,0-.34.25,2.25,2.25,0,0,0-.24.36,2.23,2.23,0,0,0-.16.43,2.25,2.25,0,0,0-.05.22l0,.22a1.62,1.62,0,0,0,0,.2v.2Z"/><path class="cls-5" d="M64.36,45h1.75a3,3,0,0,1,.83.1,1.84,1.84,0,0,1,.65.3A1.3,1.3,0,0,1,68,46a1.92,1.92,0,0,1,.16.83,1.7,1.7,0,0,1-.26.94,1.62,1.62,0,0,1-.75.61l1.52,2.38H67.49l-1.28-2.22h-.83v2.22h-1Zm1.9,2.62a1,1,0,0,0,.66-.23.71.71,0,0,0,.26-.58.89.89,0,0,0-.24-.67,1,1,0,0,0-.72-.24h-.85v1.72Z"/><path class="cls-5" d="M71.11,45H72l2.16,5.71H73.08l-.46-1.24H70.44L70,50.71h-1Zm1.21,3.56c-.17-.48-.32-.92-.45-1.3s-.24-.73-.33-1h0c0,.09-.06.21-.11.35l-.17.51c-.06.19-.12.38-.18.54l-.16.48-.16.44Z"/></g></g></svg>