<?xml version="1.0" encoding="UTF-8"?>
<svg id="Capa_2" data-name="Capa 2" xmlns="http://www.w3.org/2000/svg" viewBox="0 0 123.74 55.22">
  <defs>
    <style>
      .cls-1 {
        fill: #f7a70a;
      }

      .cls-1, .cls-2, .cls-3, .cls-4, .cls-5 {
        stroke-width: 0px;
      }

      .cls-2 {
        fill: #e94f35;
      }

      .cls-3 {
        fill: #95c11f;
      }

      .cls-4 {
        fill: #fff;
      }

      .cls-5 {
        fill: #169fdb;
      }
    </style>
  </defs>
  <g id="Capa_1-2" data-name="Capa 1">
    <g>
      <g>
        <circle class="cls-1" cx="102.26" cy="52.39" r="2.66"/>
        <circle class="cls-2" cx="88.42" cy="52.39" r="2.66"/>
        <circle class="cls-3" cx="33.99" cy="52.39" r="2.66"/>
        <circle class="cls-5" cx="21.48" cy="52.39" r="2.66"/>
      </g>
      <g>
        <path class="cls-4" d="M19.61,36.62c1.12,0,1.96.3,2.51.9.56.6.84,1.34.84,2.22s-.29,1.61-.86,2.19c-.57.58-1.45.86-2.64.86h-1.32v3.06h-2.06v-9.24h3.54ZM19.54,40.93c.85,0,1.31-.55,1.31-1.21s-.48-1.2-1.22-1.2h-1.49v2.41h1.4Z"/>
        <path class="cls-4" d="M34.18,45.85l-.61-1.86h-3.1l-.64,1.86h-2.15l3.46-9.24h1.8l3.39,9.24h-2.15ZM32.03,39.25l-1,2.92h1.99l-.99-2.92Z"/>
        <path class="cls-4" d="M42.89,44.68c-.91-.89-1.36-2.02-1.36-3.41s.46-2.55,1.39-3.45c.94-.91,2.06-1.36,3.39-1.36,1.65,0,3.12.74,3.96,1.87l-1.35,1.37c-.7-.84-1.54-1.26-2.5-1.26-.76,0-1.41.26-1.95.8s-.8,1.2-.8,2.01.26,1.45.79,1.97c.52.52,1.17.79,1.95.79,1,0,1.85-.43,2.56-1.27l1.39,1.3c-.85,1.15-2.36,1.95-4.07,1.95-1.35,0-2.47-.44-3.39-1.31Z"/>
        <path class="cls-4" d="M56.53,45.85v-9.24h2.06v3.61h3.6v-3.61h2.07v9.24h-2.07v-3.64h-3.6v3.64h-2.06Z"/>
        <path class="cls-4" d="M71.21,45.85v-9.24h6.45v1.92h-4.37v1.71h4.05v1.91h-4.05v1.76h4.36v1.92h-6.44Z"/>
        <path class="cls-4" d="M85.02,44.68c-.91-.89-1.36-2.02-1.36-3.41s.46-2.55,1.39-3.45c.94-.91,2.06-1.36,3.39-1.36,1.65,0,3.12.74,3.96,1.87l-1.35,1.37c-.7-.84-1.54-1.26-2.5-1.26-.76,0-1.41.26-1.95.8s-.8,1.2-.8,2.01.26,1.45.79,1.97c.52.52,1.17.79,1.95.79,1,0,1.85-.43,2.56-1.27l1.39,1.3c-.85,1.15-2.36,1.95-4.07,1.95-1.35,0-2.47-.44-3.39-1.31Z"/>
        <path class="cls-4" d="M99.4,37.85c.94-.94,2.07-1.4,3.44-1.4s2.5.46,3.42,1.4c.94.93,1.4,2.05,1.4,3.39s-.46,2.46-1.39,3.39c-.93.91-2.07,1.37-3.45,1.37s-2.52-.46-3.44-1.37c-.91-.91-1.37-2.04-1.37-3.37s.46-2.47,1.39-3.4ZM104.75,43.19c.51-.52.77-1.18.76-1.95-.01-.79-.27-1.45-.79-1.96-.51-.52-1.15-.79-1.89-.79s-1.39.26-1.9.79c-.51.52-.78,1.17-.78,1.96s.26,1.43.78,1.95c.51.51,1.15.77,1.9.77s1.4-.26,1.91-.77Z"/>
      </g>
      <g>
        <path class="cls-4" d="M5.82,1.98c.31-.08.89-.12,1.75-.12,1.68,0,3.07.38,4.15,1.15,1.09.76,1.63,2.01,1.63,3.75,0,1.16-.43,3.13-1.3,5.9-.87,2.77-1.74,5.7-2.62,8.78-.88,3.08-1.32,5.6-1.32,7.57,0,.83.06,1.39.19,1.67-.78.21-1.63.31-2.56.31-3.83,0-5.75-1.66-5.75-4.97,0-1.94.49-4.61,1.47-8.02.98-3.4,1.97-6.58,2.97-9.53,1-2.95,1.5-4.85,1.5-5.71,0-.23-.04-.49-.12-.78Z"/>
        <path class="cls-4" d="M39.23,26.87c-.15-.62-.23-1.27-.24-1.95-1.35,1.24-2.39,1.86-3.16,1.86-.16,0-.23-.21-.23-.66,0-1.19,1.05-4.84,3.14-10.94,2.11-6.11,3.15-9.79,3.15-11.03s-.42-2.19-1.28-2.84c-.85-.64-1.94-.99-3.27-1.02-.48,0-.97.04-1.44.13,0,1.57-1.11,5.67-3.34,12.27-.2-.83-.76-1.62-1.65-2.39-.9-.77-2.12-1.15-3.67-1.15-3.32,0-6.22,1.56-8.71,4.68-2.48,3.12-3.73,6.7-3.73,10.75,0,2.12.51,3.75,1.51,4.89,1.01,1.14,2.39,1.71,4.13,1.71,1.06,0,2.08-.27,3.07-.82.98-.54,1.84-1.28,2.6-2.22.75-.93,1.4-1.86,1.95-2.79.54-.93,1.03-1.91,1.47-2.95-.5,1.73-.75,3.23-.75,4.51,0,2.69,1.43,4.04,4.28,4.04,1.25,0,2.61-.57,4.1-1.71.77-.6,1.5-1.25,2.17-1.95-.02-.05-.04-.11-.05-.17-.02-.08-.04-.16-.06-.24ZM27.89,22.99c-1.7,2.59-3.16,3.89-4.37,3.89-1.04,0-1.56-.87-1.56-2.6,0-2.54.76-5.01,2.29-7.4,1.53-2.39,3.25-3.59,5.13-3.59.75,0,1.41.17,1.98.51.31.17.55.35.71.5-1.09,3.22-2.49,6.11-4.17,8.71Z"/>
        <path class="cls-4" d="M64.54,24.2c-1.7,1.73-2.97,2.59-3.84,2.59-.19,0-.27-.16-.27-.5,0-.78.59-2.9,1.77-6.35,1.18-3.46,1.76-5.68,1.76-6.66,0-1.21-.42-2.13-1.28-2.72-.85-.6-2.02-.89-3.49-.89-.42,0-.8.02-1.16.08.02.13-.04.53-.16,1.21-.14.7-.27,1.27-.44,1.74-.22-.96-.79-1.79-1.71-2.49-.9-.69-2.08-1.05-3.53-1.05-3.42,0-6.34,1.57-8.75,4.7-2.42,3.13-3.62,6.73-3.62,10.8v.08c0,.06,0,.13,0,.19,0,.67.09,1.33.24,1.95.02.08.04.16.06.24.01.05.03.11.05.17.16.56.41,1.11.71,1.65.37.69.94,1.24,1.71,1.64.76.41,1.67.6,2.73.6,1.37,0,2.69-.48,3.94-1.46,1.26-.97,2.26-2.05,3.03-3.25.76-1.18,1.45-2.51,2.1-4-.03.11-.08.34-.16.71-.1.41-.17.78-.26,1.1-.08.32-.15.75-.21,1.24-.06.51-.1.97-.1,1.42,0,2.66,1.46,4,4.39,4,1.28,0,2.72-.62,4.28-1.87.66-.52,1.29-1.08,1.88-1.68.21-.2.42-.42.62-.63,0-.85.17-1.99.5-3.43-.27.31-.55.6-.81.87ZM52.58,23.29c-1.62,2.39-3.02,3.58-4.19,3.58-1.04,0-1.56-.88-1.56-2.65,0-2.45.77-4.9,2.29-7.33,1.53-2.44,3.25-3.65,5.16-3.65,1.02,0,1.9.35,2.65,1.04-1.27,3.63-2.72,6.63-4.36,9.01Z"/>
        <path class="cls-4" d="M80.26,19.69c-.39,1.31-.71,2.48-.95,3.52-.42.64-.87,1.28-1.34,1.93-1.14,1.56-2.45,2.93-3.92,4.08-1.47,1.15-2.85,1.73-4.11,1.73-1.45,0-2.54-.32-3.28-.95-.74-.64-1.1-1.69-1.1-3.16v-.07c0-.85.17-1.99.5-3.43.3-1.33.73-2.91,1.3-4.73,1.21-3.86,2.39-7.58,3.57-11.17,1.18-3.58,1.74-5.92,1.69-7.01.19,0,.32-.01.43-.04.36-.05.71-.08,1.04-.08,1.25,0,2.3.3,3.16.91.87.61,1.3,1.55,1.3,2.81,0,1.35-1.04,5.08-3.14,11.18-2.1,6.11-3.15,9.79-3.15,11.03,0,.39.1.59.31.59,1.01,0,2.62-1.21,4.83-3.61,1.11-1.2,2.05-2.38,2.85-3.53Z"/>
        <path class="cls-4" d="M91.94,23.72c-.01.31-.02.62-.02.94,0,.2,0,.41.02.61-.74.89-1.54,1.76-2.41,2.61-2.05,2.02-3.87,3.03-5.45,3.03-2.98,0-4.47-1.32-4.47-3.96,0-.95.18-2.19.53-3.74.24-1.04.56-2.21.95-3.52h0c.22-.73.46-1.49.73-2.29,1.47-4.42,2.19-6.97,2.14-7.65.44-.08.88-.11,1.32-.11,1.42,0,2.55.3,3.38.91.82.61,1.24,1.52,1.24,2.74,0,1.01-.6,3.23-1.79,6.66-1.19,3.43-1.79,5.55-1.79,6.35,0,.36.1.54.31.54,1.01,0,2.66-1.3,4.97-3.9.15-.17.29-.33.44-.5-.05.42-.08.85-.11,1.28Z"/>
        <path class="cls-4" d="M93.52,2.99c0,1.14-.44,2.07-1.32,2.8-.88.72-1.94,1.09-3.18,1.09-.88,0-1.62-.19-2.21-.58-.6-.39-.89-.96-.89-1.71,0-.52.19-1.24.56-2.15.37-.92.54-1.61.48-2.08l.82-.16c.57-.13,1.19-.19,1.86-.19,1.22,0,2.17.27,2.85.8.69.53,1.03,1.26,1.03,2.19Z"/>
        <path class="cls-4" d="M123.5,16.31s-.06-.01-.11-.02c-.05-.01-.09-.01-.11.02-.97,2.04-2.55,4.3-4.76,6.77-2.2,2.48-3.84,3.7-4.87,3.7-.18,0-.27-.16-.27-.5,0-.78.59-2.9,1.77-6.35,1.18-3.46,1.76-5.68,1.76-6.66,0-1.21-.42-2.13-1.27-2.72-.85-.6-2.02-.89-3.5-.89-.41,0-.79.02-1.16.08.02.13-.02.53-.15,1.21-.14.7-.27,1.27-.44,1.74-.23-.96-.8-1.79-1.71-2.49-.9-.69-2.08-1.05-3.53-1.05-3.42,0-6.33,1.57-8.75,4.7-1.98,2.54-3.15,5.4-3.51,8.57-.05.42-.08.85-.11,1.28-.01.31-.02.62-.02.94,0,.2,0,.41.02.61.02.36.06.72.13,1.07.02.17.06.36.11.53.16.69.43,1.39.81,2.07.38.69.94,1.24,1.71,1.64.76.41,1.67.6,2.74.6,1.37,0,2.69-.48,3.93-1.46,1.25-.97,2.26-2.05,3.03-3.25.75-1.18,1.45-2.51,2.11-4-.04.11-.09.34-.16.71-.1.41-.19.78-.26,1.1-.07.32-.15.75-.21,1.24-.07.51-.1.97-.1,1.42,0,2.66,1.46,4,4.39,4,1.29,0,2.72-.62,4.29-1.87,1.57-1.24,2.94-2.67,4.16-4.31,1.2-1.62,2.22-3.22,3.05-4.76.83-1.56,1.24-2.67,1.24-3.34,0-.19-.08-.3-.24-.35ZM105.53,23.29c-1.62,2.39-3.02,3.58-4.19,3.58-1.04,0-1.56-.88-1.56-2.65,0-2.45.76-4.9,2.29-7.33,1.52-2.44,3.26-3.65,5.16-3.65,1.01,0,1.89.35,2.65,1.04-1.28,3.63-2.73,6.63-4.36,9.01Z"/>
      </g>
      <g>
        <path class="cls-4" d="M43.74,48.9h1.91c.34,0,.63.03.89.1.27.07.51.18.71.33.21.15.37.35.49.6.12.25.17.55.17.9,0,.39-.1.74-.29,1.03s-.46.51-.81.66l1.65,2.58h-1.33l-1.39-2.41h-.9v2.41h-1.1v-6.21ZM45.81,51.74c.28,0,.52-.08.71-.24.19-.16.29-.37.29-.63,0-.32-.09-.56-.26-.73-.18-.17-.44-.26-.78-.26h-.92v1.86h.97Z"/>
        <path class="cls-4" d="M49.19,48.9h4.05l-.06,1h-2.89v1.56h2.56l-.07.97h-2.5v1.64h2.99l-.06,1.03h-4.03v-6.21Z"/>
        <path class="cls-4" d="M53.94,52.07c0-.33.03-.65.1-.97.06-.31.16-.6.3-.88.14-.27.3-.51.5-.72.2-.2.44-.36.74-.48.3-.12.62-.18.98-.18.07,0,.14,0,.2,0,.07,0,.13.01.2.02.13.02.28.06.43.11.16.06.31.13.45.21.14.09.28.2.43.35.07.07.15.15.21.23s.13.17.19.27l-.85.6c-.06-.08-.12-.15-.17-.22-.06-.07-.12-.13-.18-.18-.12-.11-.24-.19-.35-.24-.11-.05-.21-.08-.3-.1-.09-.02-.18-.03-.28-.03-.44,0-.79.2-1.06.59-.27.39-.4.92-.4,1.57s.14,1.14.42,1.54c.28.4.62.6,1.03.6.26,0,.51-.06.74-.17.23-.12.44-.33.66-.65l.85.59c-.5.85-1.23,1.27-2.18,1.27-.36,0-.68-.06-.98-.18-.29-.12-.54-.28-.75-.48-.2-.2-.37-.44-.51-.71-.14-.28-.25-.56-.31-.86-.06-.31-.1-.62-.1-.93l-.02.02Z"/>
        <path class="cls-4" d="M59.21,48.9h4.29v1.02h-1.57v5.19h-1.12v-5.19h-1.6v-1.02Z"/>
        <path class="cls-4" d="M63.81,51.98c0-.3.03-.61.09-.91.06-.3.16-.58.3-.85.14-.27.3-.51.5-.72.19-.21.43-.37.72-.5.28-.12.6-.19.94-.19s.65.06.93.18c.28.12.52.28.71.48.2.2.36.44.5.71.14.28.24.57.31.87.07.31.1.62.1.94,0,.1,0,.19,0,.29s-.01.19-.02.29c-.02.19-.06.4-.11.61-.03.11-.06.21-.09.31-.03.1-.07.2-.11.3s-.09.19-.14.28c-.05.09-.12.18-.18.27-.14.18-.29.33-.46.46-.17.13-.38.23-.62.31-.24.07-.5.11-.78.11s-.52-.04-.76-.11c-.24-.07-.44-.16-.61-.29-.17-.12-.32-.26-.46-.43-.14-.17-.25-.35-.33-.54-.04-.1-.08-.2-.12-.3-.04-.1-.07-.2-.1-.31-.06-.22-.1-.43-.12-.63-.02-.21-.04-.41-.04-.62h-.02ZM64.91,51.98c0,.1,0,.2.01.3,0,.1.02.2.03.29.03.2.08.39.15.58.07.19.16.36.26.51.1.15.24.27.4.36.17.09.35.14.56.14.16,0,.31-.03.44-.08.14-.06.25-.13.34-.22.09-.09.17-.2.25-.32.08-.13.14-.25.18-.38.04-.13.08-.26.11-.41.03-.14.05-.28.06-.41,0-.06,0-.13.01-.19,0-.06,0-.12,0-.18,0-.09,0-.18-.01-.28,0-.09-.02-.19-.03-.28-.03-.2-.08-.39-.15-.57-.08-.2-.17-.37-.26-.51-.1-.15-.24-.27-.4-.37-.16-.09-.34-.14-.53-.14-.17,0-.33.03-.47.1-.14.07-.26.16-.36.28-.1.11-.18.24-.26.39-.07.15-.13.3-.17.46-.02.08-.04.16-.06.24s-.03.16-.04.23c-.01.08-.02.15-.02.22,0,.07,0,.14,0,.21h-.03Z"/>
        <path class="cls-4" d="M69.94,48.9h1.91c.34,0,.63.03.89.1.27.07.51.18.71.33.21.15.37.35.49.6.12.25.17.55.17.9,0,.39-.1.74-.29,1.03s-.46.51-.81.66l1.65,2.58h-1.33l-1.39-2.41h-.9v2.41h-1.1v-6.21ZM72.01,51.74c.28,0,.52-.08.71-.24.19-.16.29-.37.29-.63,0-.32-.09-.56-.26-.73-.18-.17-.44-.26-.78-.26h-.92v1.86h.97Z"/>
        <path class="cls-4" d="M77.27,48.9h1.01l2.35,6.21h-1.21l-.51-1.35h-2.37l-.5,1.35h-1.12l2.36-6.21ZM78.58,52.77c-.18-.53-.34-1-.48-1.42s-.26-.79-.36-1.11h-.01c-.03.1-.07.23-.12.38-.05.15-.11.34-.18.55s-.14.41-.2.59-.12.36-.18.52l-.17.48h1.7Z"/>
      </g>
    </g>
  </g>
</svg>