<?xml version="1.0" encoding="UTF-8"?>
<svg id="Capa_2" data-name="Capa 2" xmlns="http://www.w3.org/2000/svg" xmlns:xlink="http://www.w3.org/1999/xlink" viewBox="0 0 363.66 200.17">
  <defs>
    <style>
      .cls-1 {
        fill: #a12816;
      }

      .cls-1, .cls-2, .cls-3, .cls-4, .cls-5, .cls-6, .cls-7, .cls-8, .cls-9, .cls-10, .cls-11, .cls-12, .cls-13, .cls-14, .cls-15, .cls-16, .cls-17, .cls-18, .cls-19, .cls-20, .cls-21, .cls-22, .cls-23, .cls-24, .cls-25, .cls-26, .cls-27, .cls-28, .cls-29, .cls-30, .cls-31, .cls-32, .cls-33, .cls-34, .cls-35 {
        stroke-width: 0px;
      }

      .cls-2 {
        fill: #df7a0d;
      }

      .cls-3 {
        fill: #1e1e1e;
      }

      .cls-4 {
        fill: #312783;
      }

      .cls-5 {
        fill: #f7a70a;
      }

      .cls-6 {
        fill: #f3975e;
      }

      .cls-7 {
        fill: #62b033;
      }

      .cls-8 {
        opacity: 0;
      }

      .cls-8, .cls-28 {
        fill: #fff;
      }

      .cls-9, .cls-36 {
        fill: #7d7bb8;
      }

      .cls-10, .cls-37 {
        fill: #483d8f;
      }

      .cls-11 {
        fill: #62569f;
      }

      .cls-38 {
        fill: #6f6aae;
      }

      .cls-38, .cls-36, .cls-39, .cls-40, .cls-37, .cls-41 {
        stroke-miterlimit: 10;
        stroke-width: .25px;
      }

      .cls-38, .cls-36, .cls-40, .cls-37, .cls-41 {
        stroke: #1e1e1e;
      }

      .cls-12 {
        fill: none;
      }

      .cls-39 {
        stroke: #343334;
      }

      .cls-39, .cls-18 {
        fill: #d51317;
      }

      .cls-13 {
        fill: #e94f35;
      }

      .cls-14 {
        fill: #95c11f;
      }

      .cls-42 {
        clip-path: url(#clippath-1);
      }

      .cls-15 {
        fill: #f08645;
      }

      .cls-16 {
        fill: #c84723;
      }

      .cls-17 {
        fill: #82b926;
      }

      .cls-40, .cls-25 {
        fill: #615aa3;
      }

      .cls-19 {
        fill: #303031;
      }

      .cls-20 {
        fill: #d65432;
      }

      .cls-21 {
        fill: #d45f14;
      }

      .cls-43 {
        clip-path: url(#clippath);
      }

      .cls-22 {
        fill: #3584a1;
      }

      .cls-23 {
        fill: #b81d1c;
      }

      .cls-24 {
        fill: #ecb881;
      }

      .cls-26 {
        fill: #73b42d;
      }

      .cls-27 {
        fill: #bc1824;
      }

      .cls-29 {
        fill: url(#Degradado_sin_nombre_10);
      }

      .cls-30 {
        fill: #45b9c9;
      }

      .cls-31 {
        fill: #50ab32;
      }

      .cls-32 {
        fill: #169fdb;
      }

      .cls-41 {
        fill: #554b99;
      }

      .cls-33 {
        fill: #ee7a1f;
      }

      .cls-34 {
        fill: #3c3386;
      }

      .cls-35 {
        fill: #f5af31;
      }
    </style>
    <clipPath id="clippath">
      <rect class="cls-12" y="31.23" width="320.85" height="124.2"/>
    </clipPath>
    <clipPath id="clippath-1">
      <rect class="cls-12" x="235.79" y="96.7" width="5.44" height="165.18" rx="1.15" ry="1.15" transform="translate(59.22 417.79) rotate(-90)"/>
    </clipPath>
    <linearGradient id="Degradado_sin_nombre_10" data-name="Degradado sin nombre 10" x1="-617.05" y1="2134.68" x2="-521.2" y2="2134.68" gradientTransform="translate(-1845.22 -407.16) rotate(-90)" gradientUnits="userSpaceOnUse">
      <stop offset=".47" stop-color="#447a8b"/>
      <stop offset="1" stop-color="#3e7aa3"/>
    </linearGradient>
  </defs>
  <g id="Capa_1-2" data-name="Capa 1">
    <g>
      <g class="cls-43">
        <rect class="cls-8" y="31.23" width="320.85" height="124.2"/>
      </g>
      <rect class="cls-12" y="31.23" width="320.85" height="124.2"/>
      <g>
        <g>
          <g class="cls-42">
            <g>
              <path class="cls-1" d="M173.52,175.98c19.82,3.14,27.74,18.13,27.98,18.6h0s-44.94,44.94-44.94,44.94c0,0-2.87,11.33-17.37,10.78-14.5-.54-16.7-12.74-16.7-12.74l-.19-61.65c9.95,10.59,23.03,6.88,30.49,3.36,6.55-3.09,13.69-4.39,20.71-3.28Z"/>
              <path class="cls-19" d="M140.2,250.41c-.33,0-.66,0-1-.02-7.53-.28-11.69-3.75-13.86-6.61-2.35-3.1-2.93-6.18-2.93-6.21l-.19-61.91.17.18c4.33,4.61,9.68,6.94,15.91,6.94.07,0,.14,0,.2,0,5.59-.05,10.84-1.99,14.27-3.61,6.82-3.22,14-4.36,20.77-3.29,10.3,1.63,17.31,6.52,21.39,10.33,4.58,4.29,6.65,8.28,6.67,8.32l.06.07-.07.05-44.92,44.92c-.08.3-.87,3-3.26,5.61-2.22,2.42-6.28,5.23-13.19,5.23ZM122.41,176.15l.19,61.41s.57,3.05,2.9,6.12c2.14,2.83,6.26,6.25,13.71,6.53,7.45.28,11.75-2.64,14.04-5.14,2.49-2.71,3.22-5.53,3.23-5.56v-.03s.02-.02.02-.02l44.88-44.88c-.25-.47-2.32-4.21-6.6-8.22-4.05-3.79-11.04-8.65-21.28-10.28-6.72-1.06-13.87.07-20.65,3.27-7.06,3.34-20.36,7.33-30.44-3.2Z"/>
            </g>
            <g>
              <path class="cls-9" d="M122.31,175.9s-7.98,25.27,12.3,31.04c7.17,2.04,14.77.7,21.21-3.41,5.32-3.39,14.46-7.5,26.79-6.72l18.9-2.23-9.24-15.74-22.78-8.06-26.61,1.85-20-.54-.57,3.81Z"/>
              <path class="cls-19" d="M141.4,207.99c-2.29,0-4.58-.32-6.82-.95-5.22-1.49-9.04-4.41-11.34-8.68-1.46-2.71-3.07-7.48-2.43-14.81.37-4.28,1.35-7.49,1.41-7.66l.59-3.89h.09s20,.55,20,.55l26.62-1.85h.02s22.81,8.08,22.81,8.08l.02.03,9.31,15.87-19.05,2.25c-12.22-.78-21.28,3.21-26.75,6.7-4.54,2.89-9.51,4.38-14.47,4.38ZM122.97,172.19l-.57,3.74s-1.02,3.28-1.4,7.63c-.35,4.02-.21,9.83,2.41,14.7,2.27,4.22,6.05,7.11,11.22,8.59,7.05,2.01,14.55.8,21.13-3.4,5.49-3.5,14.61-7.52,26.85-6.73l18.74-2.22-9.14-15.58-22.73-8.04-26.59,1.85-19.93-.54Z"/>
            </g>
            <path class="cls-36" d="M126.29,165.5s-3.53-18.75,3.02-35.52c1.63-4.18,2.58-8.67,2.58-13.25v-3.14l22.4.87v8.93l-5.36,18.52-13.4,24.62-9.95-.44"/>
            <path class="cls-38" d="M126.29,165.5s-2.87-17.48,10.34-24.84c13.21-7.35,12.92-19.28,12.92-19.28l10.48,7.52,1.15,16.99-9.47,18.79-17.8,10.95-7.61-10.13Z"/>
            <path class="cls-40" d="M145.81,166.97s-2.44-12.25,7.47-18.46c9.91-6.21,2.15-15.52,2.15-15.52l9.91.16,6.17,4.74.72,15.52-8.18,16.18-18.23-2.61Z"/>
            <path class="cls-41" d="M161.84,164.25s-2.01-5.34,2.01-10.13c4.02-4.79,5.36-8.82,2.68-12.85l7.66.11,4.31,1.63-1.44,12.85-2.97,12.96-12.25-4.58Z"/>
            <path class="cls-37" d="M170.93,166.48s-2.49-4.85.96-9.31c3.45-4.47,4.4-8.28,2.39-12.64-2.01-4.36,6.03.11,6.03.11l6.99,10.35-2.58,9.15-5.46,6.86-8.33-4.52Z"/>
            <g>
              <path class="cls-34" d="M180.31,169.04s-2.3-4.47.48-7.73c2.78-3.27.86-11.66.86-11.66l7.75,4.25,3.83,12.53-2.39,6.1-1.82,2.4-8.71-5.88Z"/>
              <path class="cls-3" d="M189.04,175.06l-.08-.05-8.74-5.92s-2.29-4.56.49-7.84c2.71-3.19.86-11.49.84-11.57l-.05-.21,7.98,4.37v.04s3.85,12.56,3.85,12.56v.03s-2.42,6.12-2.42,6.12l-1.87,2.47ZM180.39,168.98l8.61,5.82,1.75-2.31,2.38-6.06-3.81-12.46-7.53-4.13c.28,1.35,1.64,8.51-.93,11.53-2.6,3.07-.64,7.27-.48,7.61Z"/>
            </g>
            <path class="cls-4" d="M187.87,173.73s-2.78-6.54-.96-7.84c1.82-1.31,2.49-5.99,2.49-5.99l7.18,6.1,4.93,28.59-8.76-13.34-4.88-7.52Z"/>
            <path class="cls-11" d="M123.27,167.19s6.46-5.45,17.08-.87c0,0,6.75,1.63,12.2-.98,0,0,9.33-3.1,18.38,1.14l-19.67,6.05-22.4,2.61-5.6-7.95Z"/>
            <g>
              <path class="cls-34" d="M200.97,193.09c.18.49.35.98.53,1.49-.24-.47-8.16-15.46-27.98-18.6-7.02-1.11-14.16.19-20.71,3.28-7.46,3.52-20.55,7.24-30.49-3.36,0,0-3.06-10.24,4.02-9.37,7.08.87,13.59,6.32,23.35,2.4,9.62-3.87,39.22-9.12,51.29,24.15Z"/>
              <path class="cls-19" d="M201.41,194.62s-2.07-4-6.63-8.27c-4.05-3.79-11.04-8.65-21.28-10.28-6.72-1.06-13.87.07-20.65,3.27-7.1,3.35-20.51,7.37-30.61-3.38l-.02-.04s-.43-1.47-.6-3.21c-.22-2.35.12-4.09,1.02-5.15.81-.95,2.05-1.34,3.7-1.13,2.23.27,4.36.99,6.62,1.74,4.92,1.64,10.01,3.34,16.68.67,1.64-.66,16.47-6.27,31.04.24,9.25,4.13,16.11,12.19,20.37,23.97h0c.16.43.32.89.53,1.49l-.18.08ZM168.52,175.49c1.69,0,3.37.13,5.02.39,10.3,1.63,17.31,6.52,21.39,10.33,3.29,3.08,5.28,6,6.15,7.42-.06-.18-.13-.35-.19-.51h0c-4.25-11.72-11.07-19.75-20.27-23.86-14.5-6.48-29.25-.9-30.89-.24-6.74,2.7-11.86.99-16.81-.66-2.25-.75-4.38-1.46-6.59-1.73-1.58-.19-2.77.16-3.53,1.07-2,2.37-.5,7.77-.39,8.16,4.32,4.6,9.67,6.93,15.89,6.93.07,0,.14,0,.2,0,5.59-.05,10.84-1.99,14.27-3.61,5.16-2.44,10.52-3.68,15.75-3.68Z"/>
            </g>
            <g>
              <path class="cls-13" d="M188.12,186.72c4.44.46,9.01,2.75,13.37,7.83,0,0,.02.02.02.03h0s-25.55,12.27-25.55,12.27l-14.93,22.06-16.22,12.42s-6.5-12.16,2.51-22.43c1.91-2.18,4.33-3.67,6.88-4.67,2.08-.81,5.32-3.05,7.84-9.17,1.4-3.39,4.61-7.97,8.89-11.7,3.66-3.21,8.12-5.8,12.9-6.52,1.41-.22,2.84-.26,4.3-.11Z"/>
              <path class="cls-19" d="M144.77,241.46l-.05-.1s-1.64-3.11-2.13-7.4c-.46-3.96-.02-9.81,4.66-15.14,1.76-2,4.09-3.58,6.92-4.69,2.2-.86,5.33-3.14,7.78-9.12,1.23-2.99,4.22-7.64,8.91-11.73,2.89-2.53,7.48-5.71,12.95-6.54,1.45-.22,2.9-.26,4.32-.11h0c4.87.5,9.39,3.15,13.43,7.86,0,0,.02.02.03.04l.07.08-.11.06-25.52,12.25-14.94,22.06-16.32,12.49ZM186.42,186.73c-.86,0-1.72.07-2.59.2-5.42.82-9.98,3.98-12.85,6.49-4.67,4.07-7.64,8.69-8.86,11.66-2.48,6.04-5.66,8.35-7.89,9.23-2.8,1.1-5.11,2.66-6.85,4.64-4.63,5.27-5.06,11.06-4.61,14.98.44,3.82,1.78,6.67,2.06,7.24l16.12-12.34,14.94-22.06h.02s25.44-12.22,25.44-12.22c-4-4.64-8.45-7.24-13.25-7.73h0c-.56-.06-1.12-.09-1.68-.09Z"/>
            </g>
            <g>
              <path class="cls-17" d="M201.51,194.59s-7.03-43.63-30.58-51.47c-23.54-7.84-22.4-29.08-22.4-29.08l79.53.98-5.74,62.09-20.82,17.48Z"/>
              <path class="cls-3" d="M201.44,194.77l-.03-.17c-.02-.11-1.81-11.03-6.46-22.78-2.73-6.89-5.89-12.71-9.39-17.3-4.38-5.73-9.31-9.53-14.66-11.32-12.2-4.06-17.65-11.78-20.09-17.54-2.63-6.24-2.38-11.59-2.38-11.64v-.09s79.74.98,79.74.98v.1s-5.76,62.13-5.76,62.13l-.03.03-20.95,17.59ZM148.63,114.13c-.02.73-.06,5.72,2.37,11.47,2.42,5.72,7.84,13.38,19.96,17.42,5.39,1.8,10.35,5.63,14.76,11.38,3.52,4.6,6.69,10.44,9.42,17.35,4.34,10.97,6.19,21.22,6.44,22.65l20.66-17.35,5.73-61.95-79.33-.98Z"/>
            </g>
            <g>
              <path class="cls-26" d="M201.51,194.59s.81-45.7-19.09-55.5c-19.91-9.8-19.14-24.62-19.14-24.62l57.62.44-5.55,24.18,6.13,20.91-2.49,23.75-11.29,9.59-6.17,1.25Z"/>
              <path class="cls-3" d="M201.41,194.7v-.12c0-.11.18-11.56-2.08-24.06-1.33-7.34-3.22-13.59-5.62-18.59-3-6.24-6.82-10.54-11.34-12.76-10.31-5.08-14.98-11.52-17.08-16.03-2.28-4.89-2.12-8.64-2.11-8.68v-.09s.1,0,.1,0l57.74.44-.03.12-5.55,24.16,6.12,20.91v.02s-2.49,23.78-2.49,23.78l-.03.02-11.31,9.6h-.02s-6.29,1.28-6.29,1.28ZM163.37,114.57c0,.6.04,4.08,2.1,8.51,2.09,4.48,6.73,10.88,16.99,15.93,4.56,2.25,8.4,6.57,11.43,12.85,2.41,5.02,4.31,11.29,5.64,18.64,2.14,11.82,2.1,22.71,2.09,23.97l6.03-1.22,11.24-9.54,2.48-23.69-6.13-20.92v-.02s5.53-24.06,5.53-24.06l-57.4-.43Z"/>
            </g>
            <g>
              <path class="cls-7" d="M201.51,194.59s6.6-41.18-1.44-54.08c-8.04-12.91-21.68-15.52-16.37-25.98l37.18.38-5.89,22.33,5.46,28.76-.86,15.2-11.77,14.38-6.32-.98Z"/>
              <path class="cls-3" d="M207.87,195.67h-.06s-6.41-1-6.41-1l.02-.1c.07-.41,6.51-41.29-1.42-54.02-3.07-4.93-6.91-8.31-10.3-11.3-5.44-4.79-9.38-8.26-6.07-14.78l.03-.05h.06s37.31.38,37.31.38l-.03.12-5.88,22.31,5.45,28.74-.86,15.25-.02.02-11.81,14.42ZM201.62,194.5l6.17.96,11.72-14.31.86-15.16-5.46-28.76v-.02s5.86-22.21,5.86-22.21l-37-.38c-3.19,6.35.68,9.77,6.05,14.49,3.4,2.99,7.25,6.39,10.34,11.34,4.17,6.69,4.34,21.06,3.75,31.94-.61,11.17-2.11,21.04-2.28,22.11Z"/>
            </g>
            <g>
              <path class="cls-33" d="M222.09,114.97c.76.02,1.56.1,2.41.23l.41,9.78.29,23.85,5.31,18.14-5.74,24.67-12.2,17.48-6.32,2.78-29.71,20.59-4.6,1.95s-16.5-30.06,17.37-40.03c0,0,6.32-2.62,12.2.16,0,0,.99-5.89,6.96-10.49,1.2-.93,2.6-1.81,4.24-2.58,9.77-4.57-.57-28.76-.57-28.76,0,0-10.37-38.36,9.96-37.78Z"/>
              <path class="cls-19" d="M171.89,234.57l-.04-.08c-.07-.13-7.16-13.27-2.34-24.95,2.93-7.1,9.58-12.21,19.77-15.21.05-.02,6.34-2.57,12.16.11.19-.88,1.52-6.22,6.97-10.43,1.27-.99,2.7-1.86,4.26-2.59,9.57-4.48-.51-28.39-.62-28.63-.02-.07-1.66-6.19-2.35-13.39-1.15-12.07,1.2-17.89,3.37-20.65,2.12-2.68,5.15-3.98,9.03-3.88h0c.72.02,1.51.09,2.42.23h.08s0,.09,0,.09l.41,9.78.29,23.84,5.31,18.15v.02s-5.76,24.71-5.76,24.71l-12.21,17.51-6.34,2.79-29.7,20.58-4.7,2ZM195.53,193.41c-3.46,0-6.14,1.09-6.19,1.1-10.14,2.98-16.75,8.06-19.66,15.1-4.59,11.13,1.71,23.61,2.29,24.71l4.52-1.92,29.7-20.58,6.31-2.77,12.17-17.45,5.73-24.63-5.3-18.14-.29-23.85-.41-9.7c-.87-.13-1.62-.2-2.32-.22h0c-3.8-.11-6.79,1.17-8.87,3.8-2.15,2.73-4.47,8.5-3.33,20.51.69,7.19,2.32,13.29,2.34,13.35.02.05,2.6,6.12,3.95,12.67,1.79,8.71.61,14.31-3.43,16.2-1.54.72-2.96,1.59-4.22,2.57-5.86,4.52-6.91,10.37-6.92,10.43l-.02.13-.12-.05c-2.01-.95-4.08-1.26-5.94-1.26Z"/>
            </g>
            <g>
              <path class="cls-29" d="M312.2,209.89s19.63-31.87,2.47-58.35c-3.1-4.78-5.57-10.05-6.98-15.77-1.92-7.78-3.04-17.49,1.64-21.74l-52.1,1.17,5.78,28.67,38.67,52.72,10.53,13.29Z"/>
              <path class="cls-19" d="M312.2,210.06l-.09-.11-10.53-13.29-38.68-52.74v-.02s-5.81-28.79-5.81-28.79h.12s52.36-1.18,52.36-1.18l-.19.17c-4.7,4.25-3.47,14.12-1.62,21.64,1.32,5.34,3.66,10.64,6.97,15.74,3.93,6.05,6.24,12.9,6.87,20.33.51,5.95-.05,12.29-1.65,18.85-2.74,11.16-7.63,19.19-7.68,19.27l-.07.12ZM263.09,143.84l38.65,52.7,10.44,13.18c.62-1.04,5.04-8.71,7.59-19.1,1.6-6.54,2.16-12.86,1.65-18.78-.63-7.41-2.94-14.22-6.84-20.24-3.32-5.12-5.67-10.43-6.99-15.8-1.84-7.48-3.06-17.25,1.49-21.66l-51.73,1.16,5.75,28.54Z"/>
            </g>
            <g>
              <path class="cls-22" d="M312.2,209.89s9.33-35.57-7.61-50.76c-16.94-15.2-19.52-44.44-19.52-44.44l-27.84.52,20.52,45.4,27.56,41.83,6.89,7.46Z"/>
              <path class="cls-19" d="M312.24,210.09l-.12-.13-6.89-7.46-27.57-41.84-20.59-45.54h.15s27.93-.52,27.93-.52v.09c.01.07.68,7.41,3.41,16.51,2.52,8.39,7.35,20.04,16.09,27.87,3.88,3.48,6.69,8.32,8.36,14.39,1.34,4.85,1.95,10.49,1.82,16.76-.21,10.68-2.53,19.62-2.55,19.7l-.04.17ZM257.37,115.3l20.46,45.26,27.56,41.81,6.76,7.32c.32-1.29,2.31-9.65,2.5-19.49.2-9.82-1.4-23.18-10.12-31-8.77-7.86-13.62-19.55-16.14-27.96-2.57-8.57-3.32-15.58-3.4-16.45l-27.61.51Z"/>
            </g>
            <path class="cls-30" d="M217.88,227.27s-17.14-15.4-.45-31.57c16.69-16.17,12.4-26.44,6.54-39.79-5.86-13.35-3.16-30.03-3.16-30.03l20.98,22.08,43.3,44.15-.68,6.67-66.53,28.49Z"/>
            <path class="cls-4" d="M227.29,224.11c-5.32,1.79-10.69-2.79-10.6-9.11.1-7.08,1.74-15.4,8.06-19.69,12.29-8.34,9.92-25.28,9.92-25.28,0,0-.75-11.88-7-21.98-.42-.68-.77-1.41-1.02-2.19-.83-2.57-2.27-8.24.13-11.26,3.16-3.98,20.19,14.63,20.19,14.63l20.09,20.24c.36.37.69.76.99,1.19,2.59,3.72,15.6,22.4,15.91,22.98.04.07.07.24.11.48.68,4.73-2.06,9.24-6.14,10.42l-25.05,7.25c-.48.14-.94.32-1.39.56l-19.32,10.03c-.35.18-.72.34-1.09.46l-3.78,1.27Z"/>
            <path class="cls-35" d="M225.21,219.96s-7.1-5.26-.56-13.48c6.54-8.21,24.47-11.68,15.9-48.52l-3.83-12.96,4.06-.77,17.93,19.89s19.96,17.97,20.75,19.38,6.09,11.94,6.09,11.94l-8.68,16.04-39.92,7.32-11.73,1.16Z"/>
            <path class="cls-32" d="M230.45,216.56s-9.9-2.12,8.63-18.19c18.52-16.08,6.6-46.3,6.6-46.3l5.84,1.06,16.07,10.11s10.32,15.69,11.16,16.75,6.77,17.13,6.77,17.13l-12.09,13.38-34.42,9.72-8.54-3.66Z"/>
            <path class="cls-27" d="M236.71,213.41s-5.98-2.57,7.56-13.73c13.53-11.17,10.71-29.78,10.71-29.78l-.34-7.06,7.1-2.95,15.9,15.92,6.99,10.65,1.24,14.12-27.85,23.87-15-5.13-6.32-5.9Z"/>
            <path class="cls-2" d="M241.53,210.59s16.07-12.61,19.03-21.37c2.96-8.76,3.3-16.56,3.3-16.56l13.36,8.18,9.39,19.06s-17.59,8.66-20.55,9.91c-2.96,1.25-24.53.77-24.53.77Z"/>
            <path class="cls-4" d="M252.04,207.12s20.52-10.52,22.67-21.95l4.85-6.67,5.64,11.94,1.8,7.7-19.51,13.22-16.35,2.05.9-6.29Z"/>
            <path class="cls-2" d="M263.89,215.98s27.06-11.81,18.49-22.33c-8.57-10.52-27.06-30.03-27.06-30.03l-13.53-15.66s-32.35-18.48-16.51-31.44l20.35,2.18,30.9,42.36,18.04,30.8-7.89,24.13h-22.78Z"/>
            <g>
              <path class="cls-15" d="M217.11,225.97s-17.14-15.4-.45-31.57c16.69-16.17,12.4-26.44,6.54-39.79-5.86-13.35-3.16-30.03-3.16-30.03l20.98,22.08,43.3,44.15-.68,6.67-66.53,28.49Z"/>
              <path class="cls-19" d="M217.09,226.08l-.05-.04c-.08-.07-7.61-6.94-7.78-16.19-.1-5.49,2.36-10.71,7.33-15.52,16.8-16.28,12.26-26.61,6.52-39.68-5.81-13.22-3.19-29.92-3.16-30.09l.03-.19.13.14,20.98,22.08,43.33,44.18-.69,6.78-.05.02-66.59,28.52ZM220.11,124.78c-.27,1.91-2.27,17.39,3.18,29.78,5.77,13.14,10.34,23.52-6.56,39.9-4.93,4.77-7.37,9.95-7.27,15.38.16,8.79,7.05,15.42,7.67,16.01l66.42-28.45.67-6.57-43.27-44.12-20.84-21.93Z"/>
            </g>
            <g>
              <path class="cls-6" d="M230.31,221.53c-7.79,2.62-15.37-5.04-13.84-14.12.89-5.24,3.01-10.35,7.52-13.41,12.29-8.34,9.92-25.28,9.92-25.28,0,0-.69-11.06-6.36-20.91-1.3-2.25-2.26-4.75-2.66-7.41-.37-2.49-.32-5.29,1.13-7.11,3.16-3.98,20.19,14.63,20.19,14.63l20.09,20.24c.36.37.69.76.99,1.19,2.6,3.73,15.6,22.39,15.9,22.97.04.07.07.23.1.45.7,4.72-2,9.24-6.07,10.42l-25.11,7.27c-.48.14-.94.32-1.39.56l-19.32,10.03c-.35.18-.72.34-1.09.46h0Z"/>
              <path class="cls-19" d="M227.17,222.15c-2.36,0-4.66-.87-6.61-2.53-3.37-2.88-4.97-7.56-4.19-12.22,1.06-6.25,3.6-10.79,7.56-13.47,6.32-4.29,8.67-10.91,9.53-15.7.93-5.2.36-9.45.35-9.49,0-.12-.76-11.16-6.35-20.87-1.4-2.43-2.3-4.93-2.67-7.44-.48-3.21-.09-5.63,1.15-7.18.3-.37.72-.57,1.26-.59.03,0,.06,0,.09,0,5,0,18.41,14.6,18.98,15.22l20.09,20.24c.36.37.7.77,1,1.21,2.6,3.74,15.6,22.4,15.91,22.98.03.05.07.15.12.48.7,4.71-2,9.33-6.14,10.53l-25.11,7.27c-.47.14-.93.32-1.37.55l-19.32,10.03c-.36.19-.73.34-1.1.47h0c-1.05.35-2.11.52-3.16.52ZM227.29,132.84s-.05,0-.08,0c-.49.02-.86.19-1.12.52-1.2,1.52-1.57,3.88-1.11,7.04.37,2.48,1.26,4.96,2.65,7.37,5.61,9.75,6.37,20.84,6.37,20.95,0,.04.58,4.3-.35,9.54-.86,4.83-3.23,11.51-9.61,15.83-3.91,2.66-6.43,7.14-7.48,13.34-.78,4.59.8,9.2,4.12,12.04,2.77,2.37,6.27,3.09,9.59,1.97h0c.36-.12.73-.28,1.08-.46l19.32-10.03c.45-.23.93-.42,1.41-.56l25.11-7.27c4.05-1.17,6.69-5.71,6.01-10.32-.04-.29-.08-.39-.09-.42-.3-.57-13.29-19.23-15.9-22.96-.29-.42-.63-.82-.98-1.18l-20.09-20.24c-.14-.15-13.93-15.16-18.84-15.16Z"/>
            </g>
            <g>
              <path class="cls-24" d="M224.44,218.65s-7.1-5.26-.56-13.48c6.54-8.21,24.47-11.68,15.9-48.52l-3.83-12.96,4.06-.77,17.93,19.89s19.96,17.97,20.75,19.38c.79,1.41,6.09,11.94,6.09,11.94l-8.68,16.04-39.92,7.32-11.73,1.16Z"/>
              <path class="cls-19" d="M224.41,218.75l-.03-.02s-2.83-2.14-3.3-5.71c-.33-2.56.58-5.22,2.72-7.91,1.34-1.68,3.17-3.18,5.1-4.76,3.85-3.15,8.22-6.72,10.81-13.19,3.01-7.51,3-17.48-.03-30.48l-3.86-13.06,4.22-.8.04.04,17.93,19.89c.81.73,19.97,17.99,20.76,19.4.78,1.4,6.04,11.83,6.09,11.94l.02.04-.02.04-8.71,16.08-39.97,7.32-11.77,1.16ZM236.07,143.77l3.8,12.86c3.04,13.05,3.04,23.06.02,30.6-2.61,6.52-6.99,10.1-10.86,13.27-1.93,1.58-3.75,3.07-5.08,4.73-2.11,2.65-3.01,5.26-2.68,7.76.43,3.3,2.9,5.32,3.2,5.56l11.69-1.15,39.87-7.31,8.64-15.96c-.38-.75-5.31-10.54-6.07-11.89-.77-1.38-20.53-19.18-20.73-19.36l-17.9-19.86-3.9.74Z"/>
            </g>
            <g>
              <path class="cls-20" d="M229.68,215.25s-9.9-2.12,8.63-18.19c18.52-16.08,6.6-46.3,6.6-46.3l5.84,1.06,16.07,10.11s10.32,15.69,11.16,16.75c.85,1.06,6.77,17.13,6.77,17.13l-12.09,13.38-34.42,9.72-8.54-3.66Z"/>
              <path class="cls-19" d="M238.22,219.01h-.03s-8.54-3.67-8.54-3.67c-.16-.04-2.1-.54-2.59-2.46-.59-2.31.86-6.94,11.18-15.9,4.21-3.65,7.18-8.35,8.81-13.97,1.31-4.5,1.78-9.58,1.4-15.13-.66-9.44-3.61-17.02-3.64-17.1l-.06-.16,6.04,1.1,16.1,10.14c.1.16,10.32,15.7,11.16,16.74.85,1.06,6.54,16.5,6.78,17.16l.02.05-12.15,13.44h-.03s-34.46,9.74-34.46,9.74ZM245.06,150.88c.43,1.15,2.99,8.28,3.59,16.99.61,8.75-.68,20.93-10.28,29.26-10.24,8.89-11.7,13.45-11.13,15.7.48,1.88,2.44,2.32,2.45,2.33h.02s8.51,3.65,8.51,3.65l34.36-9.71,12.04-13.32c-.38-1.03-5.93-16.05-6.73-17.05-.83-1.04-10.59-15.88-11.16-16.74l-16.04-10.09-5.65-1.02Z"/>
            </g>
            <g>
              <path class="cls-16" d="M235.94,212.11s-5.98-2.57,7.56-13.73c13.53-11.17,10.71-29.78,10.71-29.78l-.34-7.06,7.1-2.95,15.9,15.92,6.99,10.65,1.24,14.12-27.85,23.87-15-5.13-6.32-5.9Z"/>
              <path class="cls-19" d="M257.28,223.25l-.05-.02-15.03-5.15-6.3-5.89c-.14-.07-1.13-.57-1.32-1.93-.27-1.89,1.05-5.5,8.87-11.96,6.97-5.75,9.5-13.51,10.4-19.01.97-5.97.29-10.63.28-10.68l-.34-7.14,7.23-3,.05.05,15.9,15.92,7.02,10.71,1.24,14.17-.04.03-27.9,23.91ZM242.31,217.93l14.93,5.11,27.77-23.8-1.23-14.04-6.98-10.63-15.84-15.85-6.98,2.9.33,6.99s.69,4.73-.28,10.72c-.9,5.53-3.45,13.35-10.47,19.13-7.75,6.39-9.07,9.93-8.81,11.78.19,1.33,1.22,1.79,1.23,1.79l.03.02,6.3,5.89Z"/>
            </g>
            <g>
              <path class="cls-1" d="M240.76,209.28s16.07-12.61,19.03-21.37c2.96-8.76,3.3-16.56,3.3-16.56l13.36,8.18,9.39,19.06s-17.59,8.66-20.55,9.91-24.53.77-24.53.77Z"/>
              <path class="cls-19" d="M249.77,209.47c-4.66,0-8.63-.09-9.01-.09h-.27s.21-.17.21-.17c.04-.03,4.06-3.2,8.4-7.39,3.99-3.87,9.08-9.42,10.6-13.93,2.92-8.65,3.29-16.45,3.29-16.53v-.16s.15.09.15.09l13.39,8.2v.03s9.44,19.15,9.44,19.15l-.09.04c-.18.09-17.63,8.68-20.56,9.92-1.69.72-9.26.87-15.56.87ZM241.03,209.19c2.49.05,21.49.39,24.22-.77,2.82-1.19,19.12-9.21,20.46-9.87l-9.33-18.95-13.2-8.08c-.07,1.17-.6,8.44-3.29,16.42-.85,2.51-3.38,6.97-10.65,14.01-3.78,3.66-7.32,6.53-8.2,7.24Z"/>
            </g>
            <g>
              <path class="cls-23" d="M251.28,205.82s20.52-10.52,22.67-21.95l4.85-6.67,5.64,11.94,1.8,7.7-19.51,13.22-16.35,2.05.9-6.29Z"/>
              <path class="cls-19" d="M250.26,212.22l.93-6.46.04-.02c.2-.11,20.51-10.63,22.61-21.88l.02-.04,4.95-6.81.07.15,5.64,11.94,1.83,7.78-19.61,13.27-16.48,2.07ZM251.37,205.88l-.88,6.11,16.2-2.03,19.43-13.17-1.79-7.64-5.56-11.77-4.74,6.52c-1.12,5.92-7.24,11.59-12.17,15.3-5.08,3.82-9.98,6.41-10.5,6.68Z"/>
            </g>
            <g>
              <path class="cls-31" d="M188.59,114.52l33.59.33-.09.12c-20.32-.58-9.96,37.78-9.96,37.78,0,0,10.33,24.19.57,28.76-1.63.77-3.04,1.65-4.24,2.58,1.31-2.17,5.71-11.22.94-28.97-.3-1.1-.51-2.22-.67-3.36-.82-5.8-3.91-23.69-11.1-27.1-8.62-4.09-9.04-10.14-9.04-10.14Z"/>
              <path class="cls-3" d="M208.11,184.49l.27-.45c1.41-2.34,5.65-11.34.93-28.9-.27-1.02-.49-2.12-.67-3.37-.78-5.48-3.87-23.62-11.05-27.03-4.47-2.12-6.71-4.78-7.8-6.64-1.18-2.02-1.3-3.51-1.3-3.58v-.1s.1,0,.1,0l33.78.33-.24.31h-.05c-3.8-.11-6.79,1.17-8.87,3.8-7.47,9.47-1.06,33.61-.99,33.86.02.05,2.6,6.12,3.95,12.67,1.79,8.71.61,14.31-3.43,16.2-1.54.72-2.96,1.59-4.22,2.57l-.41.32ZM188.7,114.62c.11.82,1.13,6.23,8.98,9.95,7.27,3.45,10.37,21.67,11.15,27.18.18,1.24.39,2.34.67,3.35,4.49,16.73.88,25.74-.71,28.63,1.17-.87,2.48-1.65,3.87-2.3,9.57-4.48-.51-28.39-.62-28.63-.07-.26-6.5-24.49,1.02-34.04,1.78-2.26,4.21-3.54,7.25-3.82l-31.62-.31Z"/>
            </g>
            <g>
              <path class="cls-32" d="M224.5,115.2h32.72c5.9,20.32,22.53,40.15,22.53,40.15l24.17,27.42c4.06,4.61,6.98,10.42,8.08,16.83,4.04,23.56-19.59,33.5-19.59,33.5,0,0-14.01,5.99-28.9,11.37-14.89,5.39-21.86,12.87-21.86,12.87-13.59,7.16-21.45,20.07-21.45,20.07-11.06,19.17-3.14,42.92-2.77,44.03l-10.3-16.04-4.18-6.5-.19-.31-.99-1.54c-.42-.71-.81-1.41-1.17-2.09-.04-.08-.08-.18-.12-.24-.48-.97-.95-1.98-1.34-2.84-.11-.24-.21-.49-.31-.7-4.8-12.1-.57-20.72,2.55-24.95l.08-.08c1.3-1.75,2.4-2.74,2.57-2.87l.16-.15,8.65-9.39s6.78-7.23,13-15.12c1-1.28,2.01-2.58,2.94-3.85.6-.81,1.18-1.61,1.74-2.4.33-.47.66-.93,1-1.35,1.03-1.37,2.11-2.55,3.22-3.59.44-.42.77-.75.96-.93.08-.07.14-.13.21-.18v-.02c5.54-4.85,10.8-6.24,10.8-6.24l18.37-6.31,12.8-4.39c19.11-7.23,8.17-26.91.18-38.01-8.02-11.09-15.07-18.74-15.07-18.74-4.28-5.77-16.41-16.23-16.41-16.23-19.61-13.66-22.09-21.18-22.09-21.18Z"/>
              <path class="cls-19" d="M217.78,322.15l-16.09-25.05c-.43-.72-.82-1.43-1.18-2.1-.02-.05-.05-.09-.07-.14-.02-.04-.03-.08-.05-.11-.42-.85-.87-1.81-1.34-2.85-.06-.14-.12-.27-.18-.41-.04-.1-.09-.2-.13-.29-4.85-12.23-.47-20.94,2.57-25.04l.09-.09c1.29-1.74,2.38-2.73,2.58-2.88l.15-.14,8.65-9.38c.07-.07,6.85-7.32,12.99-15.11,1.02-1.3,2.01-2.58,2.94-3.85.57-.77,1.17-1.6,1.74-2.4.3-.42.64-.91,1.01-1.35.97-1.29,2.06-2.5,3.23-3.6.24-.23.45-.44.62-.6.14-.13.25-.24.34-.32.04-.03.07-.05.09-.08.03-.03.07-.06.1-.09l.02-.03c5.49-4.81,10.79-6.24,10.84-6.26l31.16-10.7c5.34-2.02,8.7-5.19,9.97-9.41,1.43-4.76.89-13.56-9.83-28.45-7.92-10.96-14.99-18.65-15.06-18.73-4.23-5.7-16.28-16.12-16.41-16.22-10.13-7.06-15.6-12.44-18.41-15.72-3.05-3.56-3.68-5.42-3.71-5.5l-.04-.13h32.93l.02.07c5.82,20.06,22.35,39.91,22.51,40.11l24.17,27.42c4.23,4.81,7.03,10.64,8.11,16.88,2.09,12.21-3.36,20.7-8.31,25.67-5.35,5.38-11.28,7.91-11.34,7.94-.14.06-14.19,6.06-28.9,11.37-11.76,4.26-19.42,10.26-21.82,12.84l-.03.02c-13.41,7.07-21.33,19.91-21.41,20.04-10.75,18.63-3.61,41.41-2.76,43.95l.25.74ZM236.02,226.34h0s-.04.06-.04.06c-.04.02-.07.06-.11.09-.03.03-.06.05-.09.08-.08.07-.19.18-.33.32-.17.17-.38.37-.63.6-1.16,1.09-2.24,2.29-3.21,3.58-.36.44-.71.92-1,1.34-.57.81-1.17,1.63-1.74,2.4-.93,1.27-1.92,2.55-2.94,3.85-6.15,7.8-12.93,15.05-13,15.12l-8.65,9.39-.16.15c-.17.13-1.27,1.12-2.56,2.86l-.09.09c-3.01,4.06-7.35,12.7-2.53,24.84.04.09.08.19.13.29.06.13.12.27.18.4.47,1.04.92,1.99,1.34,2.84.02.03.03.07.05.11.02.04.04.09.06.13.35.67.75,1.37,1.17,2.09l5.36,8.35,9.9,15.42c-1.45-4.67-7.12-25.86,3-43.4.08-.13,8.03-13.01,21.47-20.1,2.43-2.6,10.11-8.61,21.89-12.88,14.71-5.31,28.75-11.31,28.89-11.37.06-.03,5.96-2.54,11.29-7.9,4.91-4.94,10.33-13.37,8.25-25.5-1.07-6.2-3.85-12-8.06-16.78l-24.17-27.42c-.17-.2-16.68-20.04-22.53-40.11h-32.51c.2.48,1.05,2.3,3.64,5.33,2.8,3.27,8.26,8.63,18.36,15.67.13.11,12.2,10.54,16.44,16.25.06.07,7.14,7.77,15.07,18.74,10.77,14.96,11.31,23.82,9.86,28.62-1.29,4.28-4.68,7.49-10.09,9.53l-31.17,10.71c-.06.02-5.3,1.43-10.74,6.19Z"/>
            </g>
            <g>
              <path class="cls-18" d="M224.5,115.2s2.48,7.52,22.09,21.18c0,0,12.13,10.46,16.41,16.23,0,0,7.05,7.65,15.07,18.74,7.99,11.1,18.93,30.78-.18,38.01l-12.8,4.39c6.07-2.98,23.66-12.64,16.52-21.41-8.57-10.53-27.06-30.03-27.06-30.03l-13.54-15.66s-32.35-18.48-16.51-31.44Z"/>
              <path class="cls-19" d="M265.12,213.84l-.07-.18c4.91-2.41,16.5-8.76,17.99-15.56.44-2.02-.06-3.94-1.5-5.71-8.47-10.4-26.87-29.83-27.05-30.03l-13.53-15.65c-.64-.37-19.96-11.64-20.88-22.6-.28-3.37,1.19-6.39,4.37-8.99l.11-.09.04.13c.02.07,2.71,7.65,22.05,21.13.13.11,12.2,10.54,16.44,16.25.06.07,7.14,7.77,15.07,18.74,10.77,14.96,11.31,23.82,9.86,28.62-1.29,4.28-4.68,7.49-10.09,9.53l-12.8,4.4ZM224.46,115.36c-3.06,2.54-4.47,5.48-4.19,8.74.92,10.98,20.6,22.34,20.8,22.46l.03.02,13.54,15.66c.18.19,18.59,19.62,27.06,30.03,1.48,1.81,1.99,3.79,1.54,5.87-1.39,6.34-11.39,12.26-16.81,15.05l11.45-3.93c5.34-2.02,8.7-5.19,9.97-9.41,1.43-4.76.89-13.56-9.83-28.45-7.92-10.96-14.99-18.65-15.06-18.73-4.23-5.7-16.28-16.12-16.41-16.22-18.03-12.56-21.63-20.03-22.07-21.09Z"/>
            </g>
            <path class="cls-39" d="M224.5,115.2s-6.67,7.54,10.07,20.07c11.7,8.75,18.68,14.31,21.83,16.87,1.3,1.05,2.5,2.23,3.62,3.52l15.99,18.5s12.92,17.54,10.53,28.65c0,0,3.25-4.26,1.35-12.27-1.9-8.01-7.11-15.28-7.11-15.28l-7.29-10.13-7.86-9.6-5.56-6.45-9.65-9.35-17.55-16.58-8.38-7.94Z"/>
            <g>
              <path class="cls-21" d="M224.5,115.2s-10.5,1.53-9.17,23.59c.24,4.06,1.18,8.03,2.63,11.75,1.9,4.87,3.7,10.33,4.51,15.04.75,4.33.91,12.66-2.01,16.75-2.27,3.17-7.55,7.9-10.06,11.82-2.64,4.13-3.06,9.62-.94,14.13.03.06.06.13.09.2,0,0,.21-4.71,2.2-7.85,1.99-3.13,4.74-6.15,4.74-6.15l2.8-2.79c.17-.17.34-.36.5-.55l3.18-3.85s10.55-11.66,2.03-28.7c0,0-7.63-11.63-4.83-34.26,0,0-.86-5.01,4.33-9.12Z"/>
              <path class="cls-19" d="M209.63,208.86l-.17-.34c-.03-.07-.06-.13-.09-.2-2.1-4.46-1.73-10.04.94-14.22,1.42-2.22,3.68-4.64,5.86-6.99,1.66-1.78,3.22-3.46,4.21-4.84,2.88-4.03,2.77-12.18,1.99-16.67-.7-4.08-2.26-9.27-4.5-15.02-1.51-3.88-2.4-7.84-2.64-11.78-.38-6.31.03-14.92,4.11-20.13,2.45-3.14,5.12-3.56,5.14-3.56l.36-.05-.28.22c-2.66,2.1-3.68,4.45-4.08,6.04-.43,1.73-.22,2.98-.22,2.99h0s0,.03,0,.03c-2.76,22.33,4.74,34.08,4.82,34.19,4.42,8.84,3.63,16.21,2.19,20.83-1.56,5.01-4.2,7.97-4.23,8l-3.18,3.85c-.16.2-.33.38-.51.56l-2.8,2.79s-2.77,3.05-4.72,6.14c-1.95,3.07-2.18,7.75-2.18,7.8l-.02.38ZM224.11,115.4c-.83.25-2.78,1.04-4.63,3.4-4.04,5.17-4.43,13.72-4.06,19.99.23,3.92,1.12,7.86,2.62,11.72,2.25,5.76,3.81,10.97,4.51,15.06.78,4.53.89,12.74-2.03,16.82-.99,1.39-2.56,3.08-4.22,4.86-2.18,2.34-4.43,4.76-5.84,6.96-2.61,4.08-3,9.51-1,13.89.1-1.18.53-4.92,2.19-7.52,1.97-3.1,4.72-6.14,4.75-6.17l2.8-2.79c.17-.17.33-.35.49-.54l3.18-3.85s2.65-2.97,4.2-7.93c1.43-4.58,2.21-11.89-2.18-20.66-.07-.11-7.61-11.9-4.84-34.3-.02-.15-.19-1.36.22-3.04.38-1.56,1.36-3.82,3.81-5.89Z"/>
            </g>
            <path class="cls-34" d="M201.5,194.57c-.17-.5-.35-1-.53-1.49.35.65.53,1.16.53,1.5h0Z"/>
            <g>
              <path class="cls-10" d="M173.52,175.98c19.51,3.09,27.5,17.66,27.96,18.57-4.35-5.08-8.93-7.37-13.37-7.83-1.45-.15-2.88-.1-4.3.11-.44-.87-5.18-8.82-26.53-1.39-22.09,7.68-33.6,6.79-34.91-8.58-.02-.31-.05-.63-.07-.95,4.09,4.35,8.71,6.29,13.24,6.82,4.55.53,9.01-.36,12.79-1.65,1.63-.55,3.14-1.19,4.46-1.81,6.55-3.09,13.69-4.39,20.71-3.28Z"/>
              <path class="cls-19" d="M201.95,195.24l-.54-.63c-4.01-4.67-8.48-7.29-13.3-7.79-1.4-.14-2.84-.11-4.27.11h-.07s-.03-.05-.03-.05c-.47-.92-5.18-8.73-26.41-1.35-15.17,5.27-24.28,6.1-29.55,2.68-3.22-2.09-5.01-5.8-5.49-11.35-.02-.31-.05-.63-.07-.96v-.26s.17.19.17.19c3.69,3.92,8.12,6.2,13.18,6.79,3.92.46,8.21-.09,12.75-1.64,1.45-.49,2.95-1.1,4.45-1.81,6.82-3.22,14-4.36,20.77-3.29h0c19.84,3.15,27.71,17.99,28.03,18.62l.38.74ZM186.42,186.54c.57,0,1.14.03,1.7.09,4.62.48,8.93,2.89,12.81,7.16-1.94-3.23-10.09-14.96-27.44-17.71-6.72-1.06-13.87.07-20.65,3.27-1.51.71-3.01,1.33-4.47,1.82-4.56,1.56-8.88,2.11-12.83,1.65-5.02-.58-9.44-2.82-13.12-6.65.01.23.03.46.05.69.47,5.48,2.24,9.15,5.4,11.2,5.21,3.38,14.27,2.55,29.38-2.7,20.97-7.29,25.98.21,26.61,1.38.85-.13,1.7-.19,2.55-.19Z"/>
            </g>
            <g>
              <path class="cls-25" d="M157.3,185.44c21.34-7.42,26.08.52,26.53,1.39-4.77.72-9.23,3.31-12.9,6.52.44-1.85.28-8.65-31.72,3.68,0,0-19.38,7.19-16.94-20.26l.12.08c1.31,15.37,12.82,16.26,34.91,8.58Z"/>
              <path class="cls-19" d="M134.01,197.97c-2.19,0-4.72-.47-6.89-2.13-4.13-3.15-5.79-9.57-4.95-19.08l.02-.17.29.21v.04c.47,5.48,2.24,9.15,5.4,11.2,5.21,3.38,14.27,2.55,29.38-2.7h0c21.38-7.44,26.17.51,26.64,1.44l.06.12-.13.02c-5.42.82-9.98,3.98-12.85,6.49l-.23.2.07-.3c.13-.54.21-1.57-.68-2.35-2.09-1.83-9.15-2.24-30.91,6.14-.04.02-2.34.84-5.23.84ZM122.32,177.26c-.74,9.17.91,15.37,4.91,18.42,4.95,3.78,11.87,1.28,11.94,1.26,21.86-8.42,28.98-7.97,31.11-6.11.83.73.88,1.64.79,2.26,2.87-2.48,7.32-5.5,12.6-6.33-.75-1.32-5.85-8.36-26.34-1.23h0c-15.17,5.27-24.28,6.1-29.55,2.68-3.14-2.04-4.93-5.62-5.45-10.95Z"/>
            </g>
            <path class="cls-28" d="M162.32,171.88c-1.54.33-3.06.77-4.54,1.31-1.47.55-2.96,1.12-4.48,1.55-3.04.89-6.18,1.42-9.34,1.65-3.16.18-6.35.03-9.47-.51-3.12-.53-6.17-1.45-9.07-2.7,2.95,1.11,6.01,1.93,9.12,2.41,3.11.47,6.26.63,9.4.42,3.14-.2,6.25-.72,9.28-1.55,1.53-.39,3-.92,4.5-1.44,1.51-.49,3.04-.87,4.6-1.14Z"/>
          </g>
          <path class="cls-4" d="M191.72,122.36l-.05.05c-1.2-.12-2.37-.22-3.52-.29,1.17.05,2.36.12,3.57.24Z"/>
          <path class="cls-4" d="M162.52,125.75c6.12-1.95,14.7-4.11,25.61-3.63-9.68-.62-17.66.74-25.61,3.63Z"/>
          <path class="cls-4" d="M217.19,54.6l24.08-34.4h-88.86l.27.69,8.95,23.48h7.03c.22.02.46.02.7.02h25.13l-22.16,32.38h29.21c2.41,0,4.81.43,7.04,1.35,5.35,2.2,13.98,7.56,14.27,19.19.43,16.89-14.06,21.95-14.06,21.95,0,0-2.63.91-6.38,1.1-.14,0-.27.02-.39.02-2.53.26-7.31-.77-7.31-.77-4.34-1.13-8.87-3.74-12.37-9.17-2.76-4.26-4.05-9.3-4.05-14.38v-.83h-24.6v1.41c0,9.53,2.46,18.93,7.49,27.04.44.7.89,1.39,1.36,2.08,7.95-2.89,15.93-4.25,25.61-3.63h.06c1.17.04,2.33.12,3.53.24h.01c2.8.26,5.73.69,8.81,1.34.91.18,1.82.4,2.76.63h.01c3.63.9,7.24,1.5,10.69,1.87.56.07,1.12.12,1.69.18.56.05,1.11.1,1.67.14,1.32.09,2.61.16,3.86.21,1.74.06,3.41.07,4.96.05.21,0,.42,0,.63-.01.21,0,.42-.01.62-.01.55-.02,1.08-.03,1.6-.05.28-.01.54-.03.81-.04.5-.02.99-.05,1.46-.08,0,0,.01.01.02,0,.47-.03.93-.06,1.37-.09.66-.05,1.28-.1,1.85-.15.38-.04.74-.07,1.08-.11.16-.01.33-.03.49-.05h.04c.25-.03.49-.06.72-.09h.04c.24-.03.47-.06.67-.09.18-.03.35-.05.5-.06.3-.04.54-.09.74-.11.07-.02.14-.02.19-.03.12-.02.18-.03.18-.03,3.34-4.99,6.09-11.23,7.77-19.04,0,0,7.59-35.88-29.77-52.13ZM214.21,122.72h-.56c.41-.27.67-.47.67-.47-.03.16-.07.33-.11.47Z"/>
          <path class="cls-4" d="M203.3,124.33c-.95-.21-1.88-.41-2.79-.59l.02-.05c.91.19,1.83.4,2.77.64Z"/>
          <path class="cls-4" d="M236.11,126.19c-3.97.48-10.73.98-18.76.34,8.1.6,14.98.08,18.76-.34Z"/>
          <g>
            <path class="cls-34" d="M162.78,142.87v6.69c-.01.35-.03.63-.08.85-.05.25-.14.46-.27.65-.12.2-.32.35-.56.45-.25.1-.56.15-.94.15-.62,0-1.07-.18-1.34-.55-.27-.36-.39-.88-.39-1.54v-6.71h-2.32l.03,6.72c0,.41.03.81.1,1.18.07.37.2.75.39,1.13.18.38.42.71.72.97.29.27.67.49,1.17.66.48.16,1.04.26,1.68.26s1.18-.09,1.68-.26c.48-.17.88-.4,1.18-.66.31-.28.55-.59.75-.97.18-.37.32-.75.4-1.13.08-.37.11-.77.11-1.19v-6.7h-2.29Z"/>
            <path class="cls-34" d="M173.08,142.88v6.32c-.04-.06-.08-.12-.12-.19-.04-.06-.09-.13-.13-.2-.05-.07-.09-.13-.13-.19s-.07-.11-.1-.16c-.06-.08-.1-.13-.11-.16l-3.52-5.39h-1.85v10.7h2.32v-6.43s.05.1.11.19c.06.09.15.23.27.39.1.16.26.4.46.72.19.32.45.72.76,1.19.3.48.59.93.87,1.36.29.44.55.86.82,1.27.27.41.47.72.61.94.13.21.21.34.24.38h1.82v-10.71h-2.3Z"/>
            <path class="cls-34" d="M177.55,142.88v10.71h2.41v-10.71h-2.41Z"/>
            <path class="cls-34" d="M188.38,142.88l-.96,2.97c-.04.12-.12.37-.24.74-.11.37-.27.85-.46,1.46-.38,1.22-.63,2.07-.77,2.55h-.05c-.12-.5-.36-1.36-.71-2.57-.17-.6-.31-1.08-.41-1.42-.1-.35-.17-.56-.2-.65-.05-.14-.16-.47-.33-.98-.16-.5-.39-1.2-.67-2.08h-2.46s3.83,10.7,3.83,10.7h2.05l3.79-10.71h-2.4Z"/>
            <path class="cls-34" d="M194.25,151.46v-2.29h4.29l.16-2.05h-4.45v-2.17h4.98l.12-2.09h-7.43v10.72h7.36l.12-2.13h-5.16Z"/>
            <path class="cls-34" d="M206.92,149.18c.57-.28,1.01-.66,1.32-1.16.32-.5.47-1.07.47-1.73,0-.61-.1-1.15-.32-1.6-.21-.45-.51-.8-.9-1.05-.39-.27-.82-.46-1.3-.57-.47-.12-1-.17-1.6-.17h-3.5l.02,10.69h2.29v-4.05h1.24l2.41,4.05h2.78l-2.93-4.41ZM205.95,147.29c-.28.25-.63.37-1.08.37h-1.48v-2.77h1.4c1.06,0,1.6.49,1.6,1.47,0,.38-.14.69-.43.93Z"/>
            <path class="cls-34" d="M218.05,149.28c-.11-.34-.28-.61-.47-.83-.2-.21-.43-.4-.69-.55-.27-.16-.54-.29-.81-.38-.29-.09-.57-.17-.86-.26-.14-.04-.28-.08-.42-.11-.13-.04-.27-.07-.39-.11-.26-.07-.49-.14-.69-.24-.2-.08-.36-.19-.47-.33-.11-.13-.17-.29-.17-.47,0-.38.1-.68.31-.88.2-.21.49-.32.86-.32.4,0,.76.09,1.06.28.31.18.59.45.88.81l1.74-1.23c-.93-1.3-2.14-1.94-3.63-1.94-.65,0-1.25.12-1.78.38-.53.25-.95.62-1.28,1.12-.32.49-.47,1.07-.47,1.74,0,.42.05.8.16,1.14.11.34.28.61.47.82.19.21.42.4.69.56.25.16.52.3.81.4.14.05.29.1.43.14.14.04.29.08.43.12.14.04.28.08.41.11.14.04.28.08.4.11.13.04.25.08.37.12.11.04.21.08.32.13.2.09.36.2.47.35.11.14.17.31.17.5,0,.43-.14.75-.41.94-.28.2-.62.3-1.07.3-.5,0-.94-.09-1.3-.29-.36-.18-.71-.49-1.03-.91l-1.8,1.18c1,1.39,2.35,2.09,4.06,2.09.53,0,1.02-.07,1.49-.21.46-.14.87-.35,1.23-.61.36-.28.63-.63.84-1.05.2-.43.31-.92.31-1.47,0-.43-.05-.81-.16-1.15Z"/>
            <path class="cls-34" d="M219.81,142.88v10.71h2.41v-10.71h-2.41Z"/>
            <path class="cls-34" d="M232.95,146.24c-.2-.61-.48-1.13-.84-1.53-.35-.41-.78-.76-1.3-1.03-.51-.28-1.06-.48-1.67-.6-.58-.11-1.25-.17-1.97-.17h-2.8l.02,10.7h3.76c1.53-.07,2.76-.59,3.7-1.56.93-.96,1.39-2.2,1.39-3.7,0-.78-.1-1.47-.3-2.09ZM230.63,149.77c-.18.4-.43.72-.73.96-.3.24-.62.42-.98.55-.36.12-.72.19-1.07.19h-1.16s0-6.48,0-6.48h.53c1.25,0,2.17.27,2.78.81.6.54.9,1.42.9,2.64,0,.48-.09.93-.28,1.33Z"/>
            <path class="cls-34" d="M239.8,142.88h-2l-4.21,10.71h2.35l.8-2.04h3.97l.8,2.04h2.52l-4.21-10.71ZM237.35,149.61l1.36-4.13h.04c.05.2.18.64.4,1.32.21.69.5,1.62.87,2.79l-2.67.02Z"/>
            <path class="cls-34" d="M253.66,146.24c-.19-.61-.47-1.13-.83-1.53-.35-.41-.79-.76-1.3-1.03-.52-.28-1.07-.48-1.67-.6-.59-.11-1.25-.17-1.98-.17h-2.79v10.7h3.77c1.53-.07,2.77-.59,3.7-1.56.93-.96,1.4-2.2,1.4-3.7,0-.78-.1-1.47-.31-2.09ZM251.35,149.77c-.19.4-.43.72-.73.96-.31.24-.63.42-.98.55-.36.12-.72.19-1.08.19h-1.15s0-6.48,0-6.48h.53c1.24,0,2.17.27,2.77.81.6.54.91,1.42.91,2.64,0,.48-.09.93-.28,1.33Z"/>
          </g>
          <g>
            <path class="cls-34" d="M156.14,158.59v1.62h3.1v10.42h1.73v-10.42h3.04v-1.62h-7.86Z"/>
            <path class="cls-34" d="M167.19,169v-3.7h4.86l.11-1.55h-4.97v-3.53h5.63l.09-1.63h-7.38v12.04h7.36l.09-1.63h-5.79ZM170.04,155.2l-1.81,2.59h1.37l2.54-2.59h-2.1Z"/>
            <path class="cls-34" d="M181.87,167.58c-.71,1.08-1.63,1.64-2.76,1.64-.57,0-1.09-.19-1.54-.58-.46-.39-.83-.93-1.09-1.63-.26-.69-.39-1.45-.39-2.3,0-1.36.28-2.45.82-3.3.55-.85,1.29-1.27,2.22-1.27s1.81.5,2.52,1.51l1.3-.94c-.26-.41-.54-.77-.87-1.07-.33-.3-.65-.53-1-.7-.35-.16-.67-.28-.97-.35-.33-.07-.64-.11-.94-.11-.65,0-1.26.11-1.8.34-.54.23-.99.53-1.37.93-.36.39-.67.85-.93,1.38-.26.52-.44,1.08-.56,1.7-.11.58-.17,1.22-.17,1.89h.01c0,.63.05,1.24.17,1.81.12.58.32,1.15.57,1.68.27.53.59.99.96,1.38.38.39.84.71,1.38.93.54.24,1.15.35,1.81.35.49,0,.96-.07,1.42-.21.46-.14.92-.4,1.37-.76.45-.36.84-.82,1.18-1.38l-1.32-.93Z"/>
            <path class="cls-34" d="M191.7,158.59v8.58h-.04s-.06-.09-.13-.2c-.06-.11-.15-.27-.27-.46-.11-.2-.23-.39-.34-.58-.11-.18-.22-.37-.33-.55l-.36-.59-3.73-6.18h-1.44v12.03h1.69v-7.83c0-.28-.01-.58-.01-.92h.04c.18.35.37.69.56,1.03.19.34.4.69.6,1.03.11.19.29.49.51.87.21.38.5.85.83,1.4.66,1.1,1.28,2.11,1.83,3.02.55.92.83,1.38.84,1.4h1.42v-12.04h-1.68Z"/>
            <path class="cls-34" d="M195.9,158.59v12.04h1.81v-12.04h-1.81Z"/>
            <path class="cls-34" d="M207.31,167.58c-.71,1.08-1.63,1.64-2.76,1.64-.57,0-1.09-.19-1.55-.58-.45-.39-.82-.93-1.08-1.63-.27-.69-.39-1.45-.39-2.3,0-1.36.28-2.45.82-3.3.55-.85,1.29-1.27,2.22-1.27s1.81.5,2.52,1.51l1.3-.94c-.26-.41-.54-.77-.87-1.07-.33-.3-.65-.53-1-.7-.35-.16-.67-.28-.97-.35-.33-.07-.64-.11-.94-.11-.65,0-1.26.11-1.8.34-.54.23-.99.53-1.37.93-.36.39-.68.85-.93,1.38-.26.52-.44,1.08-.56,1.7-.11.58-.17,1.22-.17,1.89h.01c0,.63.05,1.24.17,1.81.12.58.32,1.15.57,1.68.27.53.58.99.96,1.38.38.39.84.71,1.38.93.54.24,1.15.35,1.81.35.49,0,.96-.07,1.42-.21.46-.14.92-.4,1.36-.76.46-.36.85-.82,1.18-1.38l-1.31-.93Z"/>
            <path class="cls-34" d="M216.16,160.87c-.28-.73-.56-1.48-.89-2.28h-1.6l-4.4,12.04h1.72l1.07-2.87h4.77l1.05,2.87h1.84l-3.57-9.76ZM212.58,166.2l1.18-3.3c.04-.1.11-.31.21-.63.11-.32.27-.76.45-1.3h.03l1.08,3.09c.05.11.13.35.27.71.13.35.31.84.53,1.44h-3.75Z"/>
            <path class="cls-34" d="M233.74,162.35c-.19-.68-.48-1.26-.86-1.73-.37-.46-.82-.85-1.35-1.15-.54-.31-1.13-.53-1.75-.66-.32-.07-.65-.12-1-.15-.35-.03-.72-.05-1.1-.05h-2.69v12.02h3.77c1.04,0,1.97-.26,2.78-.77.81-.52,1.42-1.22,1.86-2.12.43-.9.64-1.91.64-3.04,0-.87-.1-1.65-.31-2.35ZM231.97,166.67c-.25.54-.55.98-.94,1.32-.39.34-.8.59-1.25.77-.45.18-.9.27-1.36.27h-1.74v-8.79h1.05c1.52,0,2.67.37,3.44,1.1.77.74,1.16,1.91,1.16,3.52,0,.66-.12,1.27-.36,1.81Z"/>
            <path class="cls-34" d="M237.67,169v-3.7h4.86l.11-1.55h-4.97v-3.53h5.63l.09-1.63h-7.38v12.04h7.36l.09-1.63h-5.79Z"/>
            <path class="cls-34" d="M256.42,167.58c-.71,1.08-1.63,1.64-2.76,1.64-.58,0-1.09-.19-1.55-.58-.46-.39-.82-.93-1.08-1.63-.27-.69-.4-1.45-.4-2.3,0-1.36.28-2.45.83-3.3.54-.85,1.29-1.27,2.21-1.27.97,0,1.81.5,2.52,1.51l1.31-.94c-.26-.41-.55-.77-.88-1.07-.32-.3-.65-.53-.99-.7-.35-.16-.68-.28-.98-.35-.33-.07-.63-.11-.93-.11-.66,0-1.26.11-1.8.34-.54.23-1,.53-1.37.93-.37.39-.68.85-.94,1.38-.25.52-.44,1.08-.55,1.7-.12.58-.18,1.22-.18,1.89h.01c0,.63.06,1.24.17,1.81.12.58.32,1.15.58,1.68s.58.99.96,1.38c.37.39.83.71,1.38.93.53.24,1.14.35,1.81.35.48,0,.95-.07,1.41-.21.47-.14.92-.4,1.37-.76.45-.36.85-.82,1.18-1.38l-1.31-.93Z"/>
            <path class="cls-34" d="M268.28,162.73c-.06-.3-.13-.58-.24-.86-.09-.28-.2-.54-.34-.8-.26-.53-.57-.98-.93-1.37-.37-.38-.81-.69-1.33-.91-.52-.22-1.09-.34-1.71-.34s-1.2.12-1.73.36c-.51.23-.96.54-1.33.95-.35.4-.65.86-.92,1.39-.25.52-.43,1.07-.55,1.66-.12.56-.18,1.16-.18,1.78l.02-.02c0,.59.05,1.17.14,1.73.1.57.26,1.14.49,1.68.22.56.51,1.05.86,1.47.35.41.8.75,1.35,1,.54.26,1.18.39,1.87.39.51,0,.99-.07,1.44-.21.44-.14.82-.34,1.14-.59.32-.24.6-.53.85-.87.25-.33.44-.69.6-1.06.15-.36.29-.76.39-1.19.1-.41.17-.81.22-1.2.02-.19.03-.38.04-.57.01-.18.02-.38.02-.56,0-.63-.06-1.25-.18-1.85ZM266.63,165.47c-.01.14-.03.31-.06.47-.02.15-.06.33-.09.51-.07.35-.18.69-.33,1.01-.14.31-.33.6-.53.86-.2.27-.47.47-.79.62-.33.15-.69.24-1.07.24s-.73-.07-1.02-.21c-.31-.14-.56-.34-.77-.58-.21-.25-.4-.51-.55-.81-.15-.31-.28-.63-.36-.99-.08-.35-.14-.69-.19-1.02-.02-.16-.03-.33-.04-.49-.01-.16-.02-.33-.02-.49v.03c-.01-.17,0-.35,0-.53.02-.17.04-.36.06-.55.06-.39.16-.79.3-1.2.15-.43.33-.81.54-1.13.21-.34.5-.6.84-.82.35-.21.75-.32,1.19-.32s.81.1,1.16.31c.34.21.62.47.84.8.22.33.41.7.54,1.1.14.41.25.81.32,1.2.06.39.09.76.09,1.13,0,.29-.01.57-.05.87Z"/>
            <path class="cls-34" d="M268.85,158.59v1.62h3.1v10.42h1.73v-10.42h3.04v-1.62h-7.86Z"/>
            <path class="cls-34" d="M286.35,162.73c-.06-.3-.13-.58-.23-.86-.1-.28-.21-.54-.34-.8-.27-.53-.57-.98-.94-1.37-.37-.38-.81-.69-1.33-.91-.52-.22-1.08-.34-1.7-.34s-1.2.12-1.73.36c-.52.23-.96.54-1.33.95-.36.4-.66.86-.92,1.39-.26.52-.44,1.07-.56,1.66-.11.56-.17,1.16-.17,1.78v-.02c.01.59.06,1.17.16,1.73.09.57.26,1.14.48,1.68.24.56.52,1.05.87,1.47.34.41.79.75,1.34,1,.55.26,1.18.39,1.87.39.52,0,1-.07,1.44-.21.44-.14.82-.34,1.14-.59.32-.24.6-.53.85-.87.25-.33.45-.69.6-1.06.16-.36.29-.76.4-1.19.1-.41.17-.81.21-1.2.02-.19.04-.38.05-.57.01-.18.01-.38.01-.56,0-.63-.06-1.25-.18-1.85ZM284.72,165.47c-.02.14-.04.31-.06.47-.03.15-.06.33-.1.51-.07.35-.17.69-.33,1.01-.14.31-.32.6-.53.86-.2.27-.47.47-.79.62-.33.15-.69.24-1.07.24s-.72-.07-1.02-.21c-.31-.14-.56-.34-.77-.58-.21-.25-.4-.51-.54-.81-.15-.31-.28-.63-.36-.99-.09-.35-.15-.69-.19-1.02-.02-.16-.04-.33-.05-.49-.01-.16-.01-.33-.01-.49v.03c-.01-.17-.01-.35.01-.53.01-.17.03-.36.06-.55.05-.39.15-.79.29-1.2.15-.43.34-.81.54-1.13.21-.34.5-.6.85-.82.35-.21.74-.32,1.19-.32.42,0,.8.1,1.15.31.35.21.62.47.84.8.23.33.41.7.55,1.1.14.41.25.81.31,1.2.06.39.1.76.1,1.13,0,.29-.02.57-.05.87Z"/>
            <path class="cls-34" d="M291.79,158.59h-3.22v12.04h1.69v-4.66h1.85c1.15,0,2.07-.32,2.76-.96.71-.63,1.05-1.53,1.05-2.68,0-2.49-1.38-3.73-4.13-3.73ZM293.63,163.85c-.41.34-.92.5-1.53.5h-1.85s0-4.16,0-4.16h1.76c.75,0,1.31.18,1.69.53.37.36.55.91.55,1.68,0,.63-.2,1.11-.61,1.45Z"/>
            <path class="cls-34" d="M302.37,160.87c-.27-.73-.56-1.48-.88-2.28h-1.6l-4.4,12.04h1.72l1.07-2.87h4.77l1.04,2.87h1.85l-3.58-9.76ZM298.8,166.2l1.18-3.3c.03-.1.11-.31.21-.63.11-.32.26-.76.45-1.3h.03l1.08,3.09c.04.11.13.35.27.71.12.35.31.84.53,1.44h-3.75Z"/>
            <path class="cls-34" d="M312.12,164.08l3.54-5.49h-2.06l-1.72,2.88c-.07.11-.16.27-.28.47-.12.2-.27.46-.44.78l-.75-1.28c-.06-.12-.25-.42-.52-.89-.29-.47-.67-1.13-1.18-1.96h-2.12l3.6,5.59-3.87,6.44h2.06l2.28-4.07c.05-.08.11-.2.2-.38.08-.16.17-.37.3-.62l.49.99c.09.18.87,1.54,2.3,4.08h2.05l-3.9-6.55Z"/>
            <path class="cls-34" d="M317.32,158.59v12.04h1.82v-12.04h-1.82Z"/>
          </g>
          <g>
            <path class="cls-4" d="M158.93,71.06c-.12-.26-1-1.09-1.82-1.09-.57,0-1.09.45-1.98,1.39-1.34,1.4-8.28,8.55-10.84,11.11h-.02c-3.28.12-12.29.84-12.2,2.86.05,1.08,1.39,1.83,1.42,1.36-.05-.49,2.96-2.37,9.54-3.09-3.59,3.19-11.09,11.06-16.38,11.06-1.05,0-1.82-.42-1.82-1.51,0-.32.21-.74.42-.91-.42,0-.99.64-.99,1.68,0,1.79,1.61,2.61,2.95,2.61,5.49,0,13.7-9.83,17.17-13.06,1.17-.13,2.27-.15,3.42-.15h.93c-1.1,2.42-2.79,6.75-2.5,9.05.07.68,1.01,1.43,1.76,1.43s1.66-.44,2.55-1.26c-.59.2-1.39.59-2.13.59-.14,0-.32-.02-.35-.3-.17-1.64,1.98-7.22,3.03-9.4h0c1.55.11,3.09.37,3.92.49.42.07.66.12.66.1-.09-.08-.29-.17-.55-.27-.87-.32-2.54-.67-3.8-.85,1.95-4.75,5.02-9.59,6.44-11.11.39-.39.66-.68,1.18-.74ZM149.01,82.59c-1.21-.1-2.39-.15-3.56-.15,7.67-8.1,8.35-8.83,8.63-9.07-1.43,1.98-4.05,7.05-5.07,9.23Z"/>
            <path class="cls-4" d="M166.7,84.3c-.58.55-1.45,1.37-2.39,2.22-1.56,1.38-3.31,2.81-4.29,3.07.04-1.17,3.89-6.38,4.53-6.87.3-.28-.5-1.62-1.08-1.62-.85,0-5.2,3.34-7.97,6.06-.52.5-.99.99-1.27,1.38.37-.69,1.66-2.52,2.82-4.05.77-.97,1.66-2,1.97-1.98.2.03.3.15.3.05,0-.61-.93-1.58-1.53-1.58-.09,0-.25.02-.34.11-.57.45-1.51,1.54-2.34,2.66-.03.05-.07.11-.11.16-.06.08-.12.17-.17.25-.81,1.15-1.76,2.6-2.35,3.76-.59,1.14-.74,1.81-.66,1.98.17.72.77,1.5,1.51,1.33-.38-.17-.2-.84.46-1.63.28-.35.59-.73.9-1.04,1.82-1.98,5.46-4.97,7.5-5.89-1.3,1.17-4.16,5.3-4.16,6.71,0,.28.2.64.44.96.29.31.52.52.78.52.92,0,2.81-1.56,4.63-3.32,1.13-1.06,2.22-2.21,3.04-3.11.07-.07-.05-.28-.2-.14Z"/>
            <path class="cls-4" d="M166.3,77.32c-.3.64-1.27,1.88-2.42,2.27-.32.11-.65.16-.99.11-1.11-.15-1.61-.5-2.42-.67-.3-.08-.67-.12-1.02-.12-.59,0-1.18.17-1.53.89-.11-.42-.02-.89.25-1.29.38-.59,1.1-1.05,2.02-1.05,1.09,0,2.15.96,2.81,1.14.25.07.52.1.75.1,1.19,0,2.1-.79,2.55-1.36Z"/>
            <path class="cls-4" d="M175.88,83.66c-.08.02-.18.03-.28.03-.99.08-1.59-.49-2.06-1.26-.05-.07-.32-.27-.57-.25-.32.02-1.05.77-1.14,1.01-.09.26.15.99.28,1.22-1.66,2.52-5.2,6.47-6.58,5.91-1.39-.59,3.78-8.94,8.25-8.94.17,0,.38.05.62.08.1,0,.17,0,.05-.08-.17-.14-.57-.41-1.51-.41-3.09,0-7.1,2.5-8.65,5.53-.18.34-.32.69-.44,1.03-.14.49-.22.99-.22,1.49,0,.94.74,1.88,1.87,1.95,2.62.14,7.75-3.42,8.41-6.7.13.04.38.09.75.09.27,0,.6-.02.95-.09.16-.03.34-.08.51-.13,1.22-.39,2.2-1.21,2.32-1.55-.26-.02-1.08.83-2.57,1.05Z"/>
            <path class="cls-4" d="M185.2,83.78c0-.08-.09-.13-.14-.13-.32,0-3.49.55-7.45,2.77-.26-.21-.84-.61-.75-1.03.32-1.17,4.16-3.52,5.3-3.42-.05.5-1.71,2.23-1.78,2.23-.03,0,.03.1.05.1.66,0,2.23-1.48,2.25-1.83.07-.73-.26-1.86-.94-1.86-1.91,0-4.89,1.43-5.86,3.06-.12.2-.21.42-.27.63,0,.02-.01.03-.01.04-.21,1.09,1.24,1.98,1.51,2.33-.87.35-4.5,2.42-4.58,3.49.12.54.4.98.94.98,1.61,0,4.87-1.3,5.22-2.91.08-.51-.53-1.24-.86-1.48,2.69-1.61,7.59-2.89,7.36-2.97ZM173.19,89.88c.72-.72,2.55-1.95,4.03-2.79,0,.94-3.07,2.53-4.03,2.79Z"/>
          </g>
          <path class="cls-5" d="M332.48,50.67c-1.16.9-2.83.7-3.74-.46-.9-1.16-.7-2.83.46-3.74,1.16-.9,2.83-.7,3.74.46.9,1.16.7,2.83-.46,3.74h0Z"/>
          <path class="cls-13" d="M323.28,26.68c-1.16.9-2.83.7-3.74-.46-.9-1.16-.7-2.83.46-3.74,1.16-.9,2.83-.7,3.74.46.9,1.16.7,2.83-.46,3.74h0Z"/>
          <path class="cls-14" d="M303,9.37c-1.16.9-2.83.7-3.74-.46-.9-1.16-.7-2.83.46-3.74,1.16-.9,2.83-.7,3.74.46.9,1.16.7,2.83-.46,3.74h0Z"/>
          <path class="cls-32" d="M274.92,4.76c-1.16.9-2.83.7-3.74-.46-.9-1.16-.7-2.83.46-3.74,1.16-.9,2.83-.7,3.74.46.9,1.16.7,2.83-.46,3.74h0Z"/>
          <path class="cls-4" d="M296.21,82.11l-.06-.04v.19c.01.34.01.67.01,1v.34l.07.05v-.34c0-.41,0-.82-.02-1.21Z"/>
          <g>
            <path class="cls-4" d="M280.16,73.68c-.02.63-1.53,1.03-3.39.9s-3.34-.75-3.33-1.38c.02-.62,1.53-1.03,3.39-.9,1.85.13,3.34.75,3.33,1.38Z"/>
            <path class="cls-4" d="M296.15,82.26c0-.12-.05-.25-.15-.32l-14.14-11.29c-.09-.06-.17-.11-.26-.17-3.64-2.45-7.83-1.94-11.24,1.33-3.21,3.11-6.42,5.86-9.51,8.28-.2.75-.36,1.48-.48,2.16,3.41-2.76,6.94-5.87,10.47-9.27,3.14-3.04,7.03-3.51,10.4-1.24.07.05.16.1.24.15l14.69,11.7v-.34c0-.33,0-.66-.01-1ZM296.15,82.26c0-.12-.05-.25-.15-.32l-14.14-11.29c-.09-.06-.17-.11-.26-.17-3.64-2.45-7.83-1.94-11.24,1.33-3.21,3.11-6.42,5.86-9.51,8.28-.2.75-.36,1.48-.48,2.16,3.41-2.76,6.94-5.87,10.47-9.27,3.14-3.04,7.03-3.51,10.4-1.24.07.05.16.1.24.15l14.69,11.7v-.34c0-.33,0-.66-.01-1ZM296.15,82.26c0-.12-.05-.25-.15-.32l-14.14-11.29c-.09-.06-.17-.11-.26-.17-3.64-2.45-7.83-1.94-11.24,1.33-3.21,3.11-6.42,5.86-9.51,8.28-.2.75-.36,1.48-.48,2.16,3.41-2.76,6.94-5.87,10.47-9.27,3.14-3.04,7.03-3.51,10.4-1.24.07.05.16.1.24.15l14.69,11.7v-.34c0-.33,0-.66-.01-1ZM296.15,82.26c0-.12-.05-.25-.15-.32l-14.14-11.29c-.09-.06-.17-.11-.26-.17-3.64-2.45-7.83-1.94-11.24,1.33-3.21,3.11-6.42,5.86-9.51,8.28-.2.75-.36,1.48-.48,2.16,3.41-2.76,6.94-5.87,10.47-9.27,3.14-3.04,7.03-3.51,10.4-1.24.07.05.16.1.24.15l14.69,11.7v-.34c0-.33,0-.66-.01-1ZM296.15,82.26c0-.12-.05-.25-.15-.32l-14.14-11.29c-.09-.06-.17-.11-.26-.17-3.64-2.45-7.83-1.94-11.24,1.33-3.21,3.11-6.42,5.86-9.51,8.28-.2.75-.36,1.48-.48,2.16,3.41-2.76,6.94-5.87,10.47-9.27,3.14-3.04,7.03-3.51,10.4-1.24.07.05.16.1.24.15l14.69,11.7v-.34c0-.33,0-.66-.01-1ZM309.18,90.63c.45.8.09,1.96.09,1.96,0,0-1.29,2.46-5.64.68-1.75-.71-2.9-2.27-3.3-3.49-.71-2.18.47-4.87,2.15-6.43.9-.84,2.51-1.81,4.29-2.64,4.5-2.07,14.51-4.04,15.15-4.15-.06-1.22-.14-1.99-.26-3.21-.33-3.44-.89-7.29-1.7-11.53-.44-2.16-.91-4.23-1.45-6.26-.54-2.01-1.16-3.97-1.85-5.84-1.35-3.72-3.21-7.46-5.57-11.21-2.36-3.77-5.05-6.91-8.06-9.45-3.07-2.58-6.83-4.67-11.3-6.29-4.46-1.62-9.38-2.41-14.76-2.41s-10.68.8-15.25,2.41c-4.61,1.62-8.47,3.71-11.53,6.29-3.12,2.64-5.84,5.78-8.15,9.45-2.36,3.7-4.21,7.41-5.56,11.12-.7,1.89-1.31,3.81-1.81,5.77-.4,1.53-.78,3.11-1.13,4.74-.04.16.03.35.18.44,10.77,7.02,18.14,21.23,18.14,37.62,0,11.49-3.62,21.91-9.5,29.53-.1.14-.11.34,0,.49,2.2,3.29,4.62,6.08,7.26,8.38,3.12,2.69,7,4.85,11.63,6.45,4.67,1.62,9.86,2.42,15.57,2.42,5.37,0,10.32-.81,14.84-2.42,4.56-1.61,8.01-3.37,11.03-6.01l-.14-.11c-.39-.15-1.29.66-3.46.2,0,0-1.11,1.01-3.09.5l-.38.17h-.43s-.66.17-1.03.02c0,0-.92.11-1.06,0,0,0-.97.48-2.16,0,0,0-.86.86-2.7.7,0,0-1.42,1.01-2.81.42l-1.75.7-2.05.3s-.43.49-1.77.33c0,0-1.34.36-2.06.11l-.76.31s-2.1.08-3.3.58c-1.2.48-3.75-.44-4.11-1.95-.36-1.5.05-2.01.05-2.01,0,0,.37-.69,1.64-.93,0,0,.73-.57,2.3-.44l4.32-.74,1.11-.24s1.14-.63,2.87-.63c0,0,.56-.11.82-.11s1.41-.78,3.48-.26l2.3-.64s1.4-.41,2.32-.26c0,0,.89-.78,3.34-.76,2.44.02,3.92-.47,3.92-.47,0,0,1.24-.22,1.41-.08,0,0,1.22-.72,2.64-.4l.89-.17s1.23-.14,2.04.14c0,0,.56-.21,1.18-.1,0,0,.93-.78,2.38-.52.86-1.09,1.68-2.24,2.45-3.44l-1.34.56s-2.91,2.86-7.32,2.27c-4.41-.6-4.11-4.53-4.11-4.53,0,0-.89,1.73-5.12,4.64-4.23,2.93-6.31,1.85-6.31,1.85-3.1-.12-2.74-3.75-2.74-3.75l-1.91,1.31s-7.68,7.27-10.96,2.68c-3.27-4.58.6-12.33.6-12.33l2.74-5.66,3.69-5.54,4.47-6.91c-1.2-1.54.65-3.15.65-3.15,0,0,1.37-1.14,5.36.41,3.99,1.55,2.66,5.98,2.66,5.98l-1.61,2.46-3.3,4.55c-.62.9-.93,1.29-1.78,2.46-.5.69-.95,1.42-1.34,2.18l-.77,1.48,7.51-8.22,8.28-9.64c-.78-1.43-.06-2.8-.06-2.8,0,0,1.67-2.74,5.89-.24,4.23,2.5,1.98,7.15,1.98,7.15l-1.96,2.8c-.95,1.42-1.34,1.99-2.98,4.47l-2.05,3.45,3.2-3.56c.69-.77,1.34-1.56,1.94-2.39l5.1-7.04,5.6-8.21,5.69-8.47s-5.54,1.47-7.33,2.36c-1.96.98-4.29,2.77-4.29,2.77ZM296.23,83.65l-.07-.05c0,1.14-.02,2.23-.06,3.32-.05-.04-.11-.09-.17-.14-3.31-3.08-4.36-3.27-4.88-2.61-.55.66-.28,1.96-.01,3.22.06.32.15.76.2,1.12.04.28-.2.52-.48.47-.47-.08-1.32-.37-2.8-1.2-1.84-1.02-3.56-2.59-5.11-4.65-1.86-2.49-3.21-3.58-4.1-3.35-.91.23-1.91,1.49-2.98,2.85-.98,1.24-2.1,2.64-2.78,2.62-.34-.01-.45-.25-.52-1.78-.05-1.1-.14-2.79-1.21-2.91-.84-.09-1.41.57-1.9,1.16-.47.55-.87,1.04-1.53.95h-.03c-.02-.08-.04-.3.03-.81.06-.39,0-.76-.17-1.02-.23-.33-.64-.93-4.2.88-.71.37-1.38.86-2.01,1.5h-.01c-.89.9-1.45,2.07-1.53,3.31-.33,4.45.01,14.87,8.6,23.32.16.11.33.2.49.31-1.62-.57-3.12-1.53-4.42-2.71-1.3-1.19-2.4-2.59-3.28-4.1-1.8-3.04-2.87-6.43-3.54-9.85-.64-3.43-.91-6.89-.89-10.35,0-2.73-.15-5.54.19-8.25.63-8.91,2.57-15.89,5.17-21.08,3.44-6.93,8.27-10.4,14.51-10.4,5.71,0,10.38,3.56,14.04,10.65,3.48,6.81,5.29,16.16,5.39,28l.06.04c.02.39.02.8.02,1.21v.34ZM296.15,82.26c0-.12-.05-.25-.15-.32l-14.14-11.29c-.09-.06-.17-.11-.26-.17-3.64-2.45-7.83-1.94-11.24,1.33-3.21,3.11-6.42,5.86-9.51,8.28-.2.75-.36,1.48-.48,2.16,3.41-2.76,6.94-5.87,10.47-9.27,3.14-3.04,7.03-3.51,10.4-1.24.07.05.16.1.24.15l14.69,11.7v-.34c0-.33,0-.66-.01-1ZM296.15,82.26c0-.12-.05-.25-.15-.32l-14.14-11.29c-.09-.06-.17-.11-.26-.17-3.64-2.45-7.83-1.94-11.24,1.33-3.21,3.11-6.42,5.86-9.51,8.28-.2.75-.36,1.48-.48,2.16,3.41-2.76,6.94-5.87,10.47-9.27,3.14-3.04,7.03-3.51,10.4-1.24.07.05.16.1.24.15l14.69,11.7v-.34c0-.33,0-.66-.01-1ZM296.15,82.26c0-.12-.05-.25-.15-.32l-14.14-11.29c-.09-.06-.17-.11-.26-.17-3.64-2.45-7.83-1.94-11.24,1.33-3.21,3.11-6.42,5.86-9.51,8.28-.2.75-.36,1.48-.48,2.16,3.41-2.76,6.94-5.87,10.47-9.27,3.14-3.04,7.03-3.51,10.4-1.24.07.05.16.1.24.15l14.69,11.7v-.34c0-.33,0-.66-.01-1ZM296.15,82.26c0-.12-.05-.25-.15-.32l-14.14-11.29c-.09-.06-.17-.11-.26-.17-3.64-2.45-7.83-1.94-11.24,1.33-3.21,3.11-6.42,5.86-9.51,8.28-.2.75-.36,1.48-.48,2.16,3.41-2.76,6.94-5.87,10.47-9.27,3.14-3.04,7.03-3.51,10.4-1.24.07.05.16.1.24.15l14.69,11.7v-.34c0-.33,0-.66-.01-1ZM296.15,82.26c0-.12-.05-.25-.15-.32l-14.14-11.29c-.09-.06-.17-.11-.26-.17-3.64-2.45-7.83-1.94-11.24,1.33-3.21,3.11-6.42,5.86-9.51,8.28-.2.75-.36,1.48-.48,2.16,3.41-2.76,6.94-5.87,10.47-9.27,3.14-3.04,7.03-3.51,10.4-1.24.07.05.16.1.24.15l14.69,11.7v-.34c0-.33,0-.66-.01-1ZM310.65,117.35l1.03-.79c.63-.49,1.23-1.04,1.76-1.66l4.45-5.14c.52-.6.95-1.26,1.3-1.96h0c.28-1.11.52-2.25.77-3.4.06-.32.11-.63.17-.94l-9.48,13.89Z"/>
          </g>
          <path class="cls-28" d="M341.27,131.64h-.32s0-.04,0-.07l.32-.02s0,.06,0,.09Z"/>
          <g>
            <path class="cls-18" d="M299.94,133.42s-.06.1-.08.15c-.02.03-.03.06-.04.08-.02.05-.03.11-.05.16-.02.08-.03.11-.05.11l-.32.91h0c-.15-.03-.43.18-.66.3-.34.15-.65.18-.92.43,0,0,0,0-.02.01-.02.01-.06.03-.11.05,0,0,0,0,0,0-.16.07-.45.17-.81.15-.14,0-.28-.03-.42-.07,0,0-.01,0-.02,0-.73-.23-.75-.23-.97-.07h0c-.07.05-.14.11-.22.16-.02.01-.04.02-.07.03,0,0,0,0,0,0h0c-.43.19-.56.09-.77.03-.18-.05-.68,0-.84.02-.04,0-.06,0-.06,0-.07.01-.13,0-.17,0-.25-.09.24-.65-.42-.52-.46.09-.38.34-.44.52-.02.09-.07.16-.22.19-.02,0-.05.01-.08.01-.46.05-1.19-.32-1.75-.37h0c-.42-.03-.19.14-.27.33-.01.05-.05.09-.11.13-.05.04-.11.07-.2.11-.68.27-1.4.25-1.56.2-.16-.04.09-.47-.31-.28-.4.2-.75.83-1.53.89-.54.04-.67-.17-1.05-.17h0c-.06,0-.12,0-.2.01,0,0,0,0-.01,0-.13.02-.3.06-.51.14-.34.12-.64.23-.94.33,0,0-.02,0-.02.01-.28.09-.55.17-.82.25-.01,0-.03,0-.04,0-.35.09-.72.17-1.11.21-.97.12-.95.4-1.35.41-.02,0-.04,0-.06,0h0c-.46-.03-.33-.3-.89-.03-.55.26-1.43.1-1.91.14-.31.02-.2.07-.49.16-.07.02-.16.05-.28.07-.15,0-.32,0-.5,0-.08,0-.17,0-.25.02-.02,0-.03,0-.04,0-.09,0-.18.01-.27.02-.14.01-.28.02-.41.04-.13.02-.95.16-1.07.18-.01,0-.02,0-.02,0-.41.12-1.06.31-1.19.34-.01,0-.02,0-.02,0-.04.01-.08.02-.11.03-.33.08-.61,0-.95,0-.09,0-.18-.02-.27-.04-.05-.02-.1-.03-.15-.06-.36-.15-.65-.45-.68-.63-.01-.07-.02-.13-.01-.19,0-.15.05-.27.21-.33.02,0,.04-.01.07-.02.29-.06.61-.23,1.09-.19l.39.05s-.02-.04-.04-.09c-.06-.14-.13-.4.09-.41.14-.01.49-.01.9-.02,0,0,.02,0,.03,0,.37-.02,1.17-.11,2.06-.24.85-.19,2.2-.5,3.05-.59.23-.02.38-.04.48-.06,0,0,.01,0,.02,0,.06-.03.13-.05.2-.09.21-.08.46-.16.74-.24.4-.11.85-.21,1.27-.26h0c.11,0,.22-.02.33-.02.82-.02.88.01,1.77-.26.04-.01.07-.02.11-.03.99-.31.77-.47,1.87-.27.84.16.43.32,1.07.12,0,0,0,0,.01,0,.19-.06.48-.15.92-.28.33-.1.61-.19.84-.26,0,0,.01,0,.02,0,.96-.3,1.23-.39,1.93-.4.11,0,.23,0,.37,0,.49,0,.75-.07.98-.17.34-.15.59-.35,1.4-.38.17,0,.36-.01.55-.02.05-.04.12-.08.21-.11.34-.13,2.05-.1,3.5-.24.02,0,.04,0,.06-.01.88-.13,1.98-.53,2.51-.2.05.03.09.06.14.09Z"/>
            <path class="cls-4" d="M354.88,130.51c-.18.01-.36,0-.52-.06h0c-.6-.19-1.08.28-1.23.45h0s-.03.05-.04.06c0,0,0,0,0,0-.03.02-.08.03-.14.05-.52.09-1.41,0-1.79-.1-.01,0-.02,0-.03-.01,0,0-.01,0-.04-.02,0,0,0,0,0,0-.13-.04-.52-.16-.67-.1-.19.07-1.12-.23-1.59.09-.41.29-1.13.44-1.3.47-.01,0-.02,0-.03,0-.37.1-.98-.39-1.71-.52-.91-.15-.97-.29-1.28.52-.31.81-.77-.68-1.58.23-.14.16-.22.22-.25.22,0,0-.25-.05-.08-.37.17-.31-.13-.68-.57-.23.12.3.16.59-.59.59-1.4.01-1.34.11-1.34-.27,0-.38-.58-.41-1.08.1-.33.33-.93.51-1.17.47h0s-.03,0-.04,0c-.31-.07.04-.73-.12-.57-.17.17-.7.13-.7.13h0c-.25,0-.2-.23-.72-.07-.66.21-.79.41-1.28-.07-.49-.47-.6.3-.92.36-.3.07-.72-.28-.79-.36-.05-.05-.17-.03-.27-.1,0,0,0,0,0,0-.34-.19-.82-.06-.88-.05h0c-.2.14-.35.24-.35.24-1.24.5-1.95.33-2.61.22-.66-.11-1.55.28-1.93.5-.38.22-.23-.24-.18-.59.06-.36-.64-.24-1.53.4-.26.18-.48.28-.67.31,0,0-.04,0-.11,0-.19.01-.63.02-1.28-.1-.32-.06-.54-.05-.7-.01-.04.01-.09.03-.13.06-.27.16-.81.13-1.22.24-.41.1-.5-.05-.95-.2-.45-.14-.61.52-.87.51-.26-.01-.44-.1-1.19.15-.75.24-1.29-.06-1.62.23-.32.28-.99.15-.94-.07.05-.22-.36-.12-.86.03-.5.15-1.09.45-.92.19.16-.27-.35-.16-.66-.02s-1.31.54-1.23.16c.08-.38-.35-.06-.87.24-.52.29-.52-.28-.77-.01-.59.75-.74.28-1.22.19-.48-.09-1.23.53-1.24.26-.01-.27-.21-.24-.5-.21-.3.03-.04.45-.17.52-.12.06-.5-.47-1.86-.13-.04.01-.07.02-.11.03-.67.21-1.77.79-2.41.47h0c-.16-.08-.29-.12-.39-.12-.24-.02-.42.1-.84.2-.19.04-.44.09-.76.11-.7.05-1.06.03-1.25.01-.13,0-.18-.03-.2-.03h0s-.03-.07-.04-.12c-.01-.11-.06-.16-.12-.17h0s.32-.91.32-.91c.01,0,.03-.04.05-.11.01-.05.03-.11.05-.16.01-.03.03-.06.04-.08.02-.05.05-.1.08-.15.17-.29.45-.52.7-.67.37-.22,1.54-.05,2.6-.19,1.06-.13,1.42.2,1.8.19.37,0,.57-.18,1.26-.19.7,0,.78-.49,1.6-.53.83-.04.33.36,1.53.07,1.19-.28,1.13.25,1.7-.13.56-.38,1.19-.35,2.26-.44,1.07-.08,1.53-.47,1.78-.55.25-.08.35.17.53.18.18.01.19-.25.49-.23.3.03.83.77,1.59.57.75-.19,1.78-.22,2.32-.12.54.1.58-.25.94-.25.36-.01.84-.11,1.31-.28.47-.16.36.09.9.2.54.12.29.05.87-.49.58-.54.86-.08,1.2-.25.34-.17.48-.04,1.34.11.85.16.57-.1,1.29,0,.73.11,1.51-.12,2.38-.02.86.1.87.24,1.59-.07.14-.06.26-.09.36-.12,0,0,.05-.01.13-.02.13-.02.34-.02.53.03.29.09.33.08.7.06,0,0,.01,0,.01,0,.18-.02.38,0,.58.07.65.25.87-.38,1.57-.4.68-.02,1.27-.39,2.27-.16,1,.22,1.55-.35,1.77-.21.22.14,1.54.46,1.65.22.11-.25.94-.47,1.3-.37s1.13-.52,2.54-.02c1.41.51,1.51.02,2.39.22.88.2,2.43-.07,3.03-.12.6-.05,1.15.25,1.5.51.35.25,1.46-.19,1.36-.27-.1-.08-.12-.45.54-.12.66.33,1.12.02,1.42.09.25.05.49.11.49.22.1.16-.54.51-1.17.54Z"/>
            <path class="cls-4" d="M305.07,112.18c-.45.62-.81,1.1-1.03,1.4-.01.02-.03.03-.04.05-.11.15-.18.26-.21.29t-.01.01h0s-1.83,2.96-2.87,6.14c-.24.22-.49.47-.56.54l-.02.02c-1.56,1.64-3.14,3.09-4.66,4.37,0,.01-.01.01-.02.02-2.54,2.15-4.91,3.81-6.81,5.04-.05.02-.1.05-.15.06-.05.02-.09.04-.14.06-.14.05-.27.08-.38.09h-.04c-.97.09-1.16-.91-1.18-1.18-.01-.02-.01-.03-.01-.04v-.03c-.35-2.64,2.46-9.14,2.56-9.36-.42.52-10.47,11.32-14.48,11.93-2.55.38-4.96-3.84,1.5-15.57,1.03-1.87,2.59-4.34,3.67-5.82,1.07-1.47,2.11-2.85,2.99-4.33,0,0,.71-1.01,1.32-2.16.01-.01.03-.04.05-.09.24-.41,1.53-2.36.52-2.59-.57-.25-.07-.45-.07-.45,1.43-.29,6.35.1,2.36,5.48-4.22,5.71-11.43,17.09-9.55,18.67.02.02.05.02.08.02.06,0,.16-.03.29-.09,1.14-.46,5.48-3.19,20.78-21.31,0,0,.01-.01.03-.04.09-.11.19-.23.3-.35.25-.33.61-.83.96-1.47.01-.02.03-.04.04-.09.11-.21.31-.61.43-1.01h0v-.02c.02-.07.04-.14.05-.2h0v-.02c.09-.58-.3-.8-.34-.82-.53-.36.11-.5.11-.5,1.44-.28,5.79.08,2.36,5.49-.91,1.44-1.1,1.73-2.12,3.26h-.01c-.25.44-.5.89-.77,1.35h0c-1.61,2.66-2.79,4.79-3.66,6.5-.87,1.72-1.42,3.03-1.77,4.01,0,0-.72,1.99-.66,2.68,0,.03,0,.05.01.07v.02s.02.07.04.09c0,.01.02.01.02.02.02.01.03.02.05.03h.01c.71.22,4.21-2.95,7.13-5.74,0,0,.01-.01.01-.02.18-.19,2.85-3.13,3.9-4.42h.01Z"/>
            <path class="cls-4" d="M363.12,76.97c-10.24.24-19.86,1.07-28.83,2.68-.91,1.49-1.84,2.98-2.53,4.05-.04.07-.08.13-.12.19-.06.11-.13.21-.19.33-.17.27-.33.5-.44.68-.03.06-.07.11-.1.16-.07.12-.12.2-.16.26-.01.02-.02.03-.03.05-4.29,6.63-9.18,12.84-10.19,14.15-.15.2-.4.52-.71.94h-.01c-.06.09-.12.18-.2.29-.24.31-.49.65-.79,1.04-.11.15-.22.31-.34.46-.44.59-.93,1.26-1.44,1.97-.15.2-.3.41-.45.61-.02.02-.03.04-.04.06-.14.19-.29.39-.42.58-.16.22-.32.44-.48.66-.15.21-.31.44-.47.65,0,.01-.01.02-.02.04-.17.25-.36.51-.54.77-.06.1-.13.19-.2.29-.12.18-.25.36-.38.54-.04.06-.08.12-.12.18-.25.36-.5.73-.75,1.08-.1.14-.19.29-.3.43-.3.44-.58.87-.88,1.31-.09.15-.19.3-.29.45-.29.42-.55.84-.83,1.26-.02.03-.04.07-.07.1-1.12,1.75-2.19,3.51-3.11,5.14-.15.28-.31.54-.45.82,0,0-.03.06-.08.15-.01.03-.03.06-.05.1-.34.7-1.23,2.58-1.15,3.56h0v.09c-.01.3,0,1.18.24,1.99.25.86.73,1.63,1.7,1.51.05-.01.09-.02.14-.03-.41.3-.82.56-1.21.8-1.17.67-2.24,1.04-3.15.93t-.02,0h-.03s-.05-.01-.08-.02c-4.37-.71-3.02-6.83-2.71-8.04.01-.03.02-.06.03-.09.01-.07.03-.11.03-.11,1.04-3.18,2.87-6.13,2.87-6.13h0s.01-.01.01-.02c.03-.03.1-.13.21-.29.01-.02.03-.03.04-.05.22-.3.58-.78,1.03-1.4,3.15-4.31,11.45-15.77,17.76-25.55,1.19-1.83,2.3-3.61,3.29-5.27-.82.19-1.63.4-2.43.61l-.32.09-7.74,2.35c-6.7,2.14-10.6,6.12-8.61,7.02-1.15.11-3.74-.99-4.2-3.31-.62-3.25,7.1-6.18,15.06-8.02l4.7-.87,3.16-.58c.72-.12,1.44-.24,2.17-.34,1.21-2.09,2.96-5.25,3.22-6.4h0c.58-2.06-.89-2.24-1.74-2.19h-.04c-.15.02-.32.04-.49.06,0,0,.05-.05.13-.12.02-.02.05-.05.08-.07.94-.88,5.07-4.28,8.47-2.3.06.04.13.08.18.11l.03.03c.44.28.91.8,1.03,1.72,0,.06.01.12.01.18.01.07.01.14.01.23,0,.04.01.09,0,.13-.01.86-.38,2.35-1.34,4.35h0c-.27.63-.95,1.87-1.8,3.3,9.47-.99,19.71-1.37,27.42-.59.59.08.89.19.02.21Z"/>
            <path class="cls-18" d="M341.72,116.25c-4.65,2.72-8.64,4.29-8.64,4.29-2.59.99-5.05,1.34-7.4,1.17-1.93-.38-2.51-2.08-2.5-3.97v-.02c.29-4.81,2.62-8.56,4.78-11.07.06-.07.12-.14.19-.21.01-.01.01-.02.02-.03,1.16-1.26,2.39-2.34,3.59-3.26.01-.01.02-.01.02-.01,1.21-.93,2.39-1.7,3.44-2.3.04-.02.32-.19.73-.41.02-.01.04-.02.06-.02,1.62-.83,5.25-2.22,5.85,1.4.03.17.06.37.07.57v.05c.01.22.03,1.13-.17,1.83-.01.06-.03.12-.05.18-.01.01-.01.02-.02.03-.02.08-.05.14-.08.21-.03.09-.05.17-.06.25-.06.47.09.73.46.78.34.04.73-.08,1.19-.39.02-.01.03-.02.04-.02.11-.08.21-.16.33-.25,5.8-4.26,5-7.66,4.77-8.35-.01-.02-.01-.05-.02-.07h-.01s-.01-.05-.01-.05c-.18-.58-.54-1.06-1.07-1.44-.07-.05-.14-.1-.23-.15-3.87-2.47-9.04-.06-9.47.14-.02,0-.03.01-.03.01-.34.14-.67.3-1.01.47l-.06.03c-4.33,1.98-8.98,5.71-12.81,10.56-.42.53-.83,1.06-1.2,1.59t-.02.02c-1.51,1.82-3.53,4.26-5.64,6.69-2.36,2.72-4.84,5.42-6.86,7.2-.03.02-.05.04-.08.06-.05.05-.11.1-.17.15-.06.05-.12.1-.17.15h-.01l-.04.04s-.03.02-.04.04c-.15.12-.45.39-.83.65-.09.07-.19.14-.3.21-.06.03-.11.06-.17.1-.08.05-.16.1-.25.15h-.01s-.01.01-.02.01c-.04.03-.07.05-.12.07h-.01s-.02.02-.03.02c-.54.29-1.07.43-1.42.18-.03-.02-.05-.04-.07-.06-.02-.02-.05-.06-.07-.09,0-.04-.03-.07-.04-.11-.01-.03-.02-.06-.03-.09s-.01-.05-.02-.08c-.01.3,0,1.18.24,1.99.25.86.73,1.63,1.7,1.51.05-.01.09-.02.14-.03.14-.09.29-.2.43-.31.32-.25.63-.49.95-.76.11-.09.23-.19.34-.3,2.23-1.91,4.43-4.35,5.98-6.16.15-.18.3-.36.44-.52.09-.11.17-.21.27-.32.85-1.02,1.38-1.72,1.43-1.79-.35.73-3.28,6.94,2.89,8.96h.01s.04.02.1.04c.02,0,.03,0,.05.01s.04.02.06.02c.02.01.05.02.07.03.05.01.09.03.14.04.26.08.56.14.91.2.11.02.21.03.33.05.02,0,.04,0,.05.01.01-.01.02,0,.03,0,.36.04.76.06,1.2.07,2.39.16,6.05-.06,10.3-1.89h.01c.37-.14.77-.3,1.18-.48,2.2-.95,5.76-2.62,7.1-3.36.05-.03.1-.07.16-.1.04-.02.08-.04.11-.05.21-.13.42-.22.61-.32.65-.34,1.29-.44,1.77-.38.06.01.19.04.34.1,0,0,.01.01.03.02.11.05.48.28.46.68v.08s.01.01.01.01c.03.27.26.32.43.26.02,0,.08-.03.11-.04.29-.18.75-.84,1.09-1.39.17-.29.33-.53.41-.67.02-.03.03-.05.04-.07l.02-.04h0s.01-.01.01-.01c2.45-4.29-1.92-4.48-6.2-1.97ZM317.89,116.41h0s.01-.01.01-.01h-.01Z"/>
          </g>
          <polygon class="cls-12" points="307.54 122.08 307.61 122.04 307.54 122.09 307.34 122.12 307.28 122.16 307.34 122.11 307.54 122.08"/>
          <path class="cls-12" d="M307.85,121.87c.3-.2.51-.4.65-.51-.14.12-.37.31-.65.51Z"/>
          <path class="cls-12" d="M308.59,119.19l.13-.23-.12.23c-.05.09-.1.18-.15.29.04-.09.1-.18.14-.29Z"/>
          <path class="cls-12" d="M313.85,110.79c-.3.43-.59.86-.88,1.3.29-.44.58-.87.87-1.3l1.03-1.5-1.02,1.5Z"/>
          <path class="cls-12" d="M320.47,101.53v.02h0s-.59.79-.59.79l.59-.81Z"/>
        </g>
        <g>
          <path class="cls-4" d="M163.03,199.79c-.38.19-1.13.38-2.1.38-2.24,0-3.93-1.42-3.93-4.03s1.69-4.18,4.16-4.18c.99,0,1.62.21,1.89.35l-.25.84c-.39-.19-.94-.33-1.61-.33-1.87,0-3.1,1.19-3.1,3.28,0,1.95,1.12,3.2,3.06,3.2.63,0,1.26-.13,1.68-.33l.21.81Z"/>
          <path class="cls-4" d="M169.32,197.14c0,2.11-1.46,3.03-2.84,3.03-1.55,0-2.74-1.13-2.74-2.94,0-1.91,1.25-3.03,2.83-3.03s2.75,1.19,2.75,2.94ZM164.78,197.2c0,1.25.72,2.2,1.74,2.2s1.74-.93,1.74-2.22c0-.97-.48-2.2-1.71-2.2s-1.76,1.13-1.76,2.22Z"/>
          <path class="cls-4" d="M170.63,195.88c0-.59-.01-1.07-.05-1.55h.92l.06.94h.02c.28-.54.94-1.07,1.89-1.07.79,0,2.02.47,2.02,2.43v3.41h-1.04v-3.29c0-.92-.34-1.69-1.32-1.69-.68,0-1.22.48-1.39,1.06-.05.13-.07.31-.07.48v3.43h-1.04v-4.17Z"/>
          <path class="cls-4" d="M177.04,198.98c.31.2.85.41,1.37.41.76,0,1.11-.38,1.11-.85s-.3-.77-1.06-1.05c-1.03-.37-1.51-.93-1.51-1.62,0-.92.74-1.68,1.97-1.68.58,0,1.09.17,1.4.35l-.26.76c-.22-.14-.64-.33-1.17-.33-.61,0-.96.35-.96.78,0,.47.34.68,1.09.97.99.38,1.5.87,1.5,1.72,0,1-.78,1.71-2.14,1.71-.63,0-1.2-.15-1.61-.39l.26-.79Z"/>
          <path class="cls-4" d="M183.11,192.69v1.64h1.49v.79h-1.49v3.08c0,.71.2,1.11.78,1.11.27,0,.47-.04.6-.07l.05.78c-.2.08-.52.14-.92.14-.48,0-.87-.15-1.12-.44-.29-.31-.4-.81-.4-1.49v-3.12h-.89v-.79h.89v-1.37l1.02-.27Z"/>
          <path class="cls-4" d="M185.76,196.11c0-.67-.01-1.25-.05-1.78h.91l.04,1.12h.05c.26-.77.89-1.25,1.58-1.25.12,0,.2.01.3.04v.98c-.11-.02-.21-.04-.35-.04-.73,0-1.25.55-1.39,1.33-.02.14-.05.31-.05.48v3.05h-1.03v-3.93Z"/>
          <path class="cls-4" d="M194.41,198.49c0,.59.01,1.11.05,1.56h-.92l-.06-.93h-.02c-.27.46-.87,1.06-1.89,1.06-.9,0-1.97-.5-1.97-2.5v-3.34h1.04v3.16c0,1.09.33,1.82,1.27,1.82.7,0,1.18-.48,1.37-.94.06-.15.09-.34.09-.53v-3.51h1.04v4.16Z"/>
          <path class="cls-4" d="M197.29,192.73c.01.35-.25.64-.66.64-.37,0-.63-.28-.63-.64s.27-.65.65-.65.64.28.64.65ZM196.13,200.05v-5.71h1.04v5.71h-1.04Z"/>
          <path class="cls-4" d="M198.89,195.88c0-.59-.01-1.07-.05-1.55h.91l.05.92h.04c.32-.54.85-1.05,1.79-1.05.78,0,1.37.47,1.62,1.15h.02c.18-.32.4-.57.64-.74.34-.26.72-.4,1.26-.4.76,0,1.88.5,1.88,2.48v3.36h-1.02v-3.23c0-1.1-.4-1.76-1.24-1.76-.59,0-1.05.44-1.23.94-.05.14-.08.33-.08.52v3.53h-1.02v-3.42c0-.91-.4-1.57-1.19-1.57-.65,0-1.12.52-1.29,1.04-.06.15-.08.33-.08.51v3.45h-1.02v-4.17Z"/>
          <path class="cls-4" d="M213.91,197.14c0,2.11-1.46,3.03-2.84,3.03-1.55,0-2.74-1.13-2.74-2.94,0-1.91,1.25-3.03,2.83-3.03s2.75,1.19,2.75,2.94ZM209.37,197.2c0,1.25.72,2.2,1.74,2.2s1.74-.93,1.74-2.22c0-.97-.48-2.2-1.71-2.2s-1.76,1.13-1.76,2.22Z"/>
          <path class="cls-4" d="M215.08,198.98c.31.2.85.41,1.37.41.76,0,1.11-.38,1.11-.85s-.3-.77-1.06-1.05c-1.03-.37-1.51-.93-1.51-1.62,0-.92.74-1.68,1.97-1.68.58,0,1.09.17,1.4.35l-.26.76c-.22-.14-.64-.33-1.17-.33-.61,0-.96.35-.96.78,0,.47.34.68,1.09.97.99.38,1.5.87,1.5,1.72,0,1-.78,1.71-2.14,1.71-.63,0-1.2-.15-1.61-.39l.26-.79Z"/>
          <path class="cls-4" d="M222.4,191.66h1.04v3.57h.02c.17-.3.42-.55.74-.73.31-.18.67-.29,1.06-.29.77,0,1.99.47,1.99,2.44v3.4h-1.04v-3.28c0-.92-.34-1.7-1.32-1.7-.67,0-1.2.47-1.39,1.04-.06.14-.07.29-.07.5v3.45h-1.04v-8.38Z"/>
          <path class="cls-4" d="M230.11,192.73c.01.35-.25.64-.66.64-.37,0-.63-.28-.63-.64s.27-.65.65-.65.64.28.64.65ZM228.95,200.05v-5.71h1.04v5.71h-1.04Z"/>
          <path class="cls-4" d="M231.57,198.98c.31.2.85.41,1.37.41.76,0,1.11-.38,1.11-.85s-.29-.77-1.06-1.05c-1.03-.37-1.51-.93-1.51-1.62,0-.92.74-1.68,1.97-1.68.58,0,1.09.17,1.41.35l-.26.76c-.22-.14-.64-.33-1.17-.33-.61,0-.96.35-.96.78,0,.47.34.68,1.09.97.99.38,1.5.87,1.5,1.72,0,1-.78,1.71-2.14,1.71-.63,0-1.2-.15-1.61-.39l.26-.79Z"/>
          <path class="cls-4" d="M237.64,192.69v1.64h1.49v.79h-1.49v3.08c0,.71.2,1.11.78,1.11.27,0,.47-.04.6-.07l.05.78c-.2.08-.52.14-.92.14-.48,0-.87-.15-1.12-.44-.3-.31-.4-.81-.4-1.49v-3.12h-.89v-.79h.89v-1.37l1.01-.27Z"/>
          <path class="cls-4" d="M245.39,197.14c0,2.11-1.46,3.03-2.85,3.03-1.55,0-2.74-1.13-2.74-2.94,0-1.91,1.25-3.03,2.83-3.03s2.75,1.19,2.75,2.94ZM240.86,197.2c0,1.25.72,2.2,1.73,2.2s1.74-.93,1.74-2.22c0-.97-.48-2.2-1.71-2.2s-1.76,1.13-1.76,2.22Z"/>
          <path class="cls-4" d="M246.71,196.11c0-.67-.01-1.25-.05-1.78h.91l.04,1.12h.05c.26-.77.89-1.25,1.58-1.25.12,0,.2.01.3.04v.98c-.11-.02-.21-.04-.35-.04-.73,0-1.25.55-1.39,1.33-.02.14-.05.31-.05.48v3.05h-1.03v-3.93Z"/>
          <path class="cls-4" d="M251.77,192.73c.01.35-.25.64-.66.64-.37,0-.63-.28-.63-.64s.27-.65.65-.65.64.28.64.65ZM250.61,200.05v-5.71h1.04v5.71h-1.04Z"/>
          <path class="cls-4" d="M256.54,200.05l-.08-.72h-.04c-.32.45-.93.85-1.75.85-1.16,0-1.75-.81-1.75-1.64,0-1.38,1.23-2.14,3.44-2.12v-.12c0-.47-.13-1.32-1.3-1.32-.53,0-1.09.17-1.49.43l-.24-.68c.47-.31,1.16-.51,1.88-.51,1.75,0,2.17,1.19,2.17,2.34v2.14c0,.5.02.98.09,1.37h-.94ZM256.38,197.13c-1.13-.02-2.42.18-2.42,1.29,0,.67.45.99.98.99.74,0,1.22-.47,1.38-.96.04-.11.06-.22.06-.33v-.99Z"/>
          <path class="cls-4" d="M258.92,198.98c.31.2.85.41,1.37.41.76,0,1.11-.38,1.11-.85s-.29-.77-1.06-1.05c-1.03-.37-1.51-.93-1.51-1.62,0-.92.74-1.68,1.97-1.68.58,0,1.09.17,1.41.35l-.26.76c-.22-.14-.64-.33-1.17-.33-.61,0-.96.35-.96.78,0,.47.34.68,1.09.97.99.38,1.5.87,1.5,1.72,0,1-.78,1.71-2.14,1.71-.63,0-1.2-.15-1.61-.39l.26-.79Z"/>
          <path class="cls-4" d="M271.18,191.66v6.91c0,.51.01,1.09.05,1.48h-.93l-.05-.99h-.02c-.32.64-1.02,1.12-1.95,1.12-1.38,0-2.44-1.17-2.44-2.9-.01-1.9,1.17-3.07,2.56-3.07.87,0,1.46.41,1.72.87h.02v-3.41h1.04ZM270.14,196.66c0-.13-.01-.31-.05-.44-.15-.66-.72-1.2-1.5-1.2-1.07,0-1.71.94-1.71,2.21,0,1.16.57,2.11,1.69,2.11.7,0,1.33-.46,1.52-1.24.04-.14.05-.28.05-.45v-.99Z"/>
          <path class="cls-4" d="M273.48,197.38c.02,1.4.92,1.98,1.96,1.98.74,0,1.19-.13,1.58-.3l.18.74c-.37.17-.99.35-1.9.35-1.76,0-2.81-1.16-2.81-2.88s1.02-3.08,2.68-3.08c1.87,0,2.36,1.64,2.36,2.69,0,.21-.02.38-.04.48h-4.01ZM276.53,196.63c.01-.66-.27-1.69-1.44-1.69-1.05,0-1.51.97-1.59,1.69h3.03Z"/>
        </g>
        <g>
          <path class="cls-4" d="M282.56,198.91c1.43-.16,4.03-2.25,5.54-3.47.05-.03.15.03.11.08-1.33,1.26-4.33,4.06-6.25,4.06-.5,0-1.06-.47-1.13-.96-.02-.12-.02-.28.03-.47.12-.65.68-1.74,1.72-2.75,1.27-1.26,2.84-2.06,3.94-2.06.36,0,.88.53.88.76,0,.59-.76,1.16-1.27,1.55-.03.03-.11,0-.08-.05.25-.25.88-1.47.76-1.58-1.66.03-4.7,3.54-4.7,4.62,0,.25.31.28.45.26Z"/>
          <path class="cls-4" d="M290.85,196.5c-.47.47-3.49,3.07-4.14,3.07-.03,0-.11-.03-.14-.05-.28-.14-.68-.73-.68-1.04,0-1.69,3.55-5.15,6.41-5.15.59,0,1.36.25,1.36.98,0,.26-.14.53-.29.73-.03.01-.06,0-.05-.02.08-.14.17-.33.17-.56,0-.47-.29-.7-.76-.67-.9.05-2.03.7-3.04,1.55-1.47,1.26-2.64,3.21-2.5,3.29.03.02.06.02.11,0,.51-.17,2.68-1.74,3.49-2.42.28-.25,1.29-1.23,1.68-1.44.31-.15.84.7.78.88-.08-.15-1.47,1.54-1.94,2.53-.09.22-.16.4-.16.53.98-.28,3.2-2.4,4.16-3.3.08-.08.16.05.11.09-1.35,1.47-3.88,4.06-4.81,4.06-.08,0-.16-.03-.26-.09-.22-.12-.51-.45-.51-.73,0-.15.06-.34.12-.57.19-.57.61-1.29.9-1.68Z"/>
          <path class="cls-4" d="M300.13,198.69c0-.88,1.69-3.47,2.5-4.22-2.82,1.96-4.44,4.64-4.87,4.64-.22,0-.71-.5-.71-.81,0-.59,1.19-2.82,2.23-3.77-1.57.95-3.01,2.4-4.14,3.68-.26.29-.43.5-.54.64-.43.51-.51.82-.28.93-.47.11-.87-.37-.99-.81-.03-.11.03-.53.43-1.24.67-1.26,1.6-2.68,2.45-3.69.22-.26.43-.48.61-.62.06-.06.16-.08.2-.08.39,0,.98.61.98.99,0,.06-.06-.02-.19-.03-.11-.02-.33.14-.53.39-.67.76-2.03,2.79-2.39,3.4.99-1.32,4.34-4.34,4.99-4.48.03-.02.06-.02.09-.02.31,0,.82.78.67.93-.79.84-2.19,3.07-2.19,3.61,1.46-1.85,4.4-4.71,5.06-4.71.34,0,.85.84.65,1.01-.39.31-2.81,3.68-2.81,4.36,1.01-.23,3.27-2.42,4.27-3.37.11-.08.19.05.14.09-1.35,1.47-3.91,4.06-4.82,4.06-.36,0-.81-.59-.81-.88Z"/>
          <path class="cls-4" d="M305.79,196.72c1.21-1.49,3.94-3.6,4.78-3.3.19.08.73.67.73.88,0,1.4-3.01,5.17-5.15,5.17-.61,0-1.29-.4-1.29-.92,0-.08.06-.11.06-.06,0,.15.28.45.59.45,1.57,0,4.39-4.13,4.53-4.9-.26-.02-3.37,1.61-4.98,3.99-.45.65-1.09,1.55-.39,1.63-.19.08-.34.02-.5-.08-.14-.05-.45-.37-.56-.62-.05-.12-.02-.59.43-1.61.87-1.94,2.79-4.76,4.39-6.89.54-.73,1.15-1.47,1.88-2.08.25-.17.45-.28.59-.28.87,0,1.47.91,1.18.74-.42-.22-1.12.47-2.06,1.64-1.54,1.92-3.04,3.94-4.24,6.24Z"/>
          <path class="cls-4" d="M310.59,199.56c-.25-.08-.64-.47-.64-.74,0-.9,2.25-4.28,3.24-5.07.08-.08.17-.09.23-.09.36,0,.98.62.98,1.01,0,.06-.08-.01-.2-.03-.64-.06-2.76,3.47-2.95,4.11.95-.25,3.21-2.4,4.16-3.32.11-.08.19.05.14.09-1.35,1.46-3.82,3.99-4.78,4.06-.06,0-.11,0-.19-.02ZM315.77,191.77c.14.15.23.39.17.39-.03,0-.16-.06-.33.01-.26.11-.98.75-1.16,1.01-.22.28-.54-.05-.56-.32-.02-.45.57-1.46.98-1.58.36-.05.7.26.9.5Z"/>
          <path class="cls-4" d="M320.08,193.6c-2.81,0-6.05,5.23-5.18,5.6.87.36,3.09-2.13,4.13-3.71-.08-.14-.23-.61-.17-.76.05-.16.51-.62.71-.64.16-.02.33.11.36.15.29.48.67.84,1.29.79,1.04-.09,1.61-.7,1.78-.68-.08.22-.7.73-1.46.98-.34.11-.67.14-.92.14-.23,0-.39-.03-.47-.06-.42,2.06-3.63,4.3-5.27,4.2-.71-.05-1.18-.64-1.18-1.22,0-2.53,3.4-5.06,5.85-5.06.59,0,.84.17.95.26.08.05.03.05-.03.05-.15-.02-.28-.05-.39-.05Z"/>
        </g>
      </g>
    </g>
  </g>
</svg>