<?xml version="1.0" encoding="UTF-8"?>
<svg id="Capa_2" data-name="Capa 2" xmlns="http://www.w3.org/2000/svg" xmlns:xlink="http://www.w3.org/1999/xlink" viewBox="0 0 774.4 109.93">
  <defs>
    <style>
      .cls-1 {
        opacity: 0;
      }

      .cls-1, .cls-2, .cls-3 {
        stroke-width: 0px;
      }

      .cls-1, .cls-3 {
        fill: #fff;
      }

      .cls-2, .cls-4 {
        fill: none;
      }

      .cls-4 {
        stroke: #fff;
        stroke-miterlimit: 10;
      }

      .cls-5 {
        clip-path: url(#clippath);
      }
    </style>
    <clipPath id="clippath">
      <rect class="cls-2" x="554.05" y="23.62" width="202" height="55"/>
    </clipPath>
  </defs>
  <g id="Capa_1-2" data-name="Capa 1">
    <g>
      <path class="cls-3" d="M0,55.39c0-.76.08-1.52.24-2.3.16-.74.42-1.48.79-2.2.36-.71.8-1.33,1.33-1.87.52-.54,1.17-.97,1.95-1.3.76-.33,1.62-.49,2.55-.49s1.76.15,2.52.46c.77.31,1.42.73,1.93,1.24s.96,1.13,1.34,1.84c.37.69.64,1.43.81,2.21s.25,1.58.25,2.39c0,.24,0,.48-.02.72-.01.24-.04.48-.06.73s-.07.5-.11.76-.11.53-.19.8c-.15.57-.33,1.09-.55,1.57-.11.25-.24.49-.39.73s-.31.48-.49.71c-.18.23-.38.45-.58.65-.21.2-.42.38-.65.54-.46.33-1.01.6-1.66.8-.64.2-1.34.3-2.12.3s-1.44-.1-2.07-.29c-.63-.19-1.18-.45-1.64-.77-.47-.33-.88-.71-1.23-1.15-.36-.45-.66-.91-.89-1.4-.12-.25-.23-.5-.32-.76s-.18-.53-.26-.8-.14-.55-.2-.81c-.05-.27-.1-.53-.13-.79-.06-.52-.1-1.04-.1-1.56l-.04.03ZM3.51,55.48c0,.61.06,1.21.18,1.8.11.57.29,1.12.54,1.63.24.5.59.91,1.04,1.22.44.3.95.46,1.54.46.5,0,.94-.12,1.34-.35.4-.23.71-.53.95-.88.24-.36.44-.77.6-1.23.16-.45.27-.9.33-1.35.06-.43.1-.87.1-1.31,0-.57-.06-1.15-.19-1.72s-.32-1.12-.57-1.63c-.25-.5-.6-.92-1.04-1.24-.44-.32-.93-.48-1.49-.48-.46,0-.88.11-1.25.33s-.69.51-.94.86c-.12.18-.23.37-.33.56-.1.2-.2.41-.28.64-.16.43-.28.88-.36,1.34-.04.23-.06.45-.08.66-.02.22-.03.43-.03.64l-.04.05Z"/>
      <path class="cls-3" d="M16.28,47.42h5.22c.89,0,1.69.09,2.39.27.71.18,1.35.46,1.93.85.57.38,1.02.91,1.34,1.58.32.67.48,1.47.48,2.38,0,.97-.23,1.83-.7,2.57-.46.74-1.12,1.31-1.97,1.73l4.36,6.58h-4.16l-3.59-6.04h-1.86v6.04h-3.42l-.02-15.97ZM21.91,54.53c.67,0,1.21-.18,1.63-.55.42-.37.64-.83.64-1.38,0-1.47-.8-2.2-2.39-2.2h-2.08v4.13h2.21Z"/>
      <path class="cls-3" d="M29.5,55.46c0-.76.07-1.51.21-2.26.13-.73.38-1.46.73-2.2.35-.73.79-1.37,1.33-1.91.54-.54,1.23-.99,2.07-1.33.85-.34,1.81-.51,2.88-.51.28,0,.54.01.8.04.26.03.51.06.76.11.47.09.99.26,1.53.5.54.23,1.06.58,1.55,1.05.5.47.97,1.04,1.39,1.71l-2.7,1.83c-.3-.45-.61-.82-.92-1.13-.31-.3-.62-.51-.92-.64-.31-.13-.58-.21-.81-.26-.23-.04-.51-.06-.83-.06-.79,0-1.47.23-2.02.7-.55.47-.95,1.07-1.19,1.8-.24.72-.36,1.56-.36,2.5,0,1.65.3,2.91.89,3.79.59.89,1.47,1.33,2.64,1.33.54,0,1.07-.16,1.59-.47.52-.3.99-.72,1.4-1.23v-1.34h-3.17v-2.79h6.53v8.7s-2.81,0-2.81,0l-.2-1.43c-1.33,1.16-2.65,1.74-3.98,1.74-.94,0-1.8-.16-2.56-.47-.75-.3-1.37-.72-1.85-1.23-.48-.51-.88-1.13-1.18-1.85-.31-.74-.53-1.49-.66-2.25-.13-.77-.19-1.6-.19-2.49l.03.06Z"/>
      <path class="cls-3" d="M50.5,47.4h3l6.29,15.99h-3.76l-1.19-3.03h-5.93l-1.18,3.03h-3.52l6.29-15.99ZM53.84,57.42c-.55-1.76-.99-3.16-1.3-4.17-.32-1.02-.52-1.67-.6-1.97h-.06l-2.02,6.17,3.99-.02Z"/>
      <path class="cls-3" d="M61.41,47.41h2.76l5.26,8.06s.07.12.16.25c.05.07.1.15.16.24s.12.19.19.29c.07.11.14.21.2.31.06.1.12.19.18.29v-9.44h3.44v15.99h-2.72s-.15-.24-.35-.56c-.21-.33-.51-.79-.9-1.4s-.81-1.24-1.22-1.89c-.42-.65-.86-1.33-1.31-2.04-.45-.71-.83-1.3-1.13-1.77-.3-.47-.53-.83-.69-1.08-.16-.24-.29-.43-.38-.57-.09-.14-.15-.24-.18-.29v9.6h-3.44l-.02-15.98Z"/>
      <path class="cls-3" d="M77.01,47.4h3.61v15.99h-3.61v-15.99Z"/>
      <path class="cls-3" d="M83.22,60.93c2.4-3.25,4.22-5.71,5.47-7.4,1.25-1.69,1.93-2.61,2.03-2.75.01-.02.05-.07.11-.14.06-.07.14-.18.25-.3h-7.56l.23-2.94h11.44v2.48c-1.68,2.27-4.23,5.78-7.65,10.52h6.54c.62,0,1.07,0,1.35.01l-.19,2.99h-12v-2.46Z"/>
      <path class="cls-3" d="M102.61,47.4h3l6.29,15.99h-3.76l-1.19-3.03h-5.93l-1.18,3.03h-3.52l6.29-15.99ZM105.95,57.42c-.55-1.76-.99-3.16-1.3-4.17-.32-1.02-.52-1.67-.6-1.97h-.06l-2.02,6.17,3.99-.02Z"/>
      <path class="cls-3" d="M113.03,53.22c0-.62.22-1.14.66-1.58.44-.44.97-.66,1.59-.66s1.14.22,1.58.66.66.97.66,1.58-.22,1.16-.66,1.59c-.44.44-.97.66-1.58.66s-1.16-.22-1.59-.66c-.44-.44-.66-.97-.66-1.59ZM113.03,61.37c0-.62.22-1.16.66-1.59.44-.44.97-.66,1.59-.66s1.14.22,1.58.66.66.97.66,1.59-.22,1.16-.66,1.59-.96.65-1.58.65-1.16-.22-1.59-.66c-.44-.44-.66-.97-.66-1.59h0Z"/>
    </g>
    <g>
      <path class="cls-3" d="M194.36,81.79s-.04.08-.05.13c0,.02-.02.05-.02.07,0,.04-.02.09-.02.13,0,.06-.02.09-.03.1l-.15.76h0c-.12,0-.32.19-.49.31-.25.16-.5.21-.69.44,0,0,0,0-.02.01-.02.01-.04.03-.08.05,0,0,0,0,0,0-.12.07-.34.18-.63.21-.11,0-.22,0-.34-.01,0,0-.01,0-.02,0-.61-.1-.62-.1-.77.05h0c-.05.05-.1.1-.16.15-.02.01-.03.02-.05.03,0,0,0,0,0,0h0c-.32.2-.43.13-.61.11-.15-.02-.54.07-.66.11-.03,0-.04.01-.04.01-.05.02-.1.02-.14.01-.21-.05.12-.55-.39-.37-.36.12-.27.31-.29.46,0,.07-.04.13-.15.18-.02,0-.04.02-.06.02-.36.09-.98-.12-1.43-.1h0c-.34.02-.14.13-.18.29,0,.04-.03.08-.07.12-.03.04-.08.07-.14.11-.51.29-1.08.35-1.22.33-.13-.02.02-.38-.27-.19-.3.2-.5.74-1.11.88-.42.09-.55-.06-.85-.02h0s-.1.02-.16.03c0,0,0,0,0,0-.1.03-.23.08-.39.17-.25.13-.48.26-.71.36,0,0-.01,0-.02.01-.21.1-.42.2-.62.29,0,0-.02,0-.03,0-.27.11-.55.21-.85.29-.76.2-.71.42-1.02.47-.02,0-.03,0-.05,0h0c-.37.03-.29-.2-.71.07-.41.27-1.12.23-1.5.32-.24.05-.15.08-.37.18-.05.02-.12.05-.21.09-.12.02-.25.04-.4.06-.06.01-.13.02-.2.04-.01,0-.02,0-.03,0-.07.02-.14.03-.22.05-.11.02-.22.05-.32.07-.1.03-.74.23-.83.26,0,0-.01,0-.01,0-.31.14-.8.36-.91.4,0,0-.02,0-.02,0-.03.02-.06.03-.09.04-.25.1-.49.07-.76.1-.07,0-.14,0-.22,0-.04,0-.08-.02-.12-.03-.3-.08-.57-.29-.61-.42-.02-.05-.03-.1-.03-.15-.02-.12,0-.22.13-.28.02,0,.03-.02.05-.02.22-.08.46-.25.84-.27h.32s-.02-.03-.04-.07c-.06-.1-.15-.3.03-.34.11-.02.39-.06.71-.12,0,0,.01,0,.02,0,.29-.06.92-.22,1.61-.41.65-.25,1.69-.64,2.36-.8.18-.04.3-.07.38-.1,0,0,0,0,.01,0,.04-.03.09-.06.15-.09.16-.08.35-.18.56-.27.31-.13.66-.26.98-.34h0c.09-.02.17-.04.26-.05.65-.1.7-.09,1.38-.4.03-.01.06-.02.08-.03.75-.35.56-.46,1.45-.42.69.04.37.21.86-.02,0,0,0,0,0,0,.14-.07.36-.17.7-.32.25-.12.46-.22.64-.3,0,0,0,0,.01,0,.73-.35.93-.44,1.49-.53.08-.01.18-.03.29-.04.39-.05.59-.14.75-.25.25-.16.43-.34,1.07-.45.13-.02.28-.05.43-.08.04-.04.09-.07.16-.11.25-.14,1.62-.3,2.75-.58.02,0,.03,0,.05-.02.69-.2,1.52-.64,1.97-.43.04.02.08.03.12.05Z"/>
      <path class="cls-3" d="M237.63,73.42c-.14.03-.29.04-.42.01h0c-.5-.08-.83.34-.93.49h0s-.02.04-.03.05c0,0,0,0,0,0-.02.02-.06.04-.11.05-.4.13-1.12.16-1.43.12-.01,0-.02,0-.03,0,0,0-.01,0-.03,0,0,0,0,0,0,0-.11-.02-.43-.07-.55,0-.14.07-.92-.06-1.25.25-.29.27-.85.47-.98.52-.01,0-.02,0-.02.01-.29.12-.82-.2-1.41-.22-.74-.02-.8-.12-.96.56-.16.68-.69-.45-1.23.36-.1.14-.15.2-.17.2,0,0-.2,0-.1-.29.1-.27-.18-.52-.48-.12.13.22.19.45-.4.54-1.11.17-1.05.24-1.09-.07-.04-.3-.5-.26-.84.2-.22.3-.68.51-.88.51h0s-.02,0-.04,0c-.26-.02-.05-.58-.16-.44-.11.15-.54.18-.54.18h0c-.2.03-.18-.16-.58.02-.5.24-.58.41-1.03.09-.44-.32-.45.31-.69.39-.23.09-.6-.14-.67-.2-.04-.03-.14,0-.23-.05,0,0,0,0,0,0-.29-.11-.66.04-.7.06h0c-.14.14-.25.23-.25.23-.92.53-1.51.48-2.04.46-.54-.01-1.2.39-1.48.61-.28.21-.21-.16-.21-.45,0-.29-.53-.12-1.17.48-.18.17-.35.27-.5.32,0,0-.03,0-.09.02-.15.03-.5.09-1.03.06-.26-.01-.43.02-.56.07-.03.02-.07.04-.1.06-.19.16-.63.19-.94.32-.31.13-.41.02-.78-.05-.37-.07-.43.48-.63.5-.21.02-.36-.03-.93.25-.57.27-1.03.1-1.26.36-.23.26-.77.23-.75.05.02-.18-.3-.06-.68.12-.38.17-.82.48-.71.25.1-.23-.29-.09-.53.06s-.98.57-.96.26c.02-.31-.28,0-.66.29-.38.29-.45-.16-.61.07-.38.66-.55.3-.94.29-.39-.02-.92.56-.95.34-.04-.21-.19-.17-.42-.11-.24.06.02.36-.08.43-.09.06-.45-.32-1.49.1-.03.01-.05.02-.08.04-.51.24-1.32.82-1.86.64h0c-.14-.05-.24-.06-.32-.05-.19,0-.32.12-.64.25-.15.06-.34.12-.59.17-.55.11-.84.14-.99.15-.11,0-.15,0-.16,0h0s-.03-.05-.04-.09c-.02-.08-.06-.12-.11-.12h0s.16-.76.16-.76c.01,0,.02-.03.03-.1,0-.04.01-.09.02-.13,0-.02.01-.05.02-.07.01-.04.03-.08.05-.13.11-.25.3-.46.48-.61.27-.21,1.22-.21,2.04-.44.82-.22,1.15,0,1.45-.05.3-.05.43-.21.98-.29.55-.08.56-.47,1.21-.6.66-.12.3.25,1.22-.11.92-.36.92.08,1.33-.29.41-.36.91-.41,1.75-.6.84-.18,1.16-.54,1.35-.64.19-.09.29.1.44.08.14-.01.13-.22.36-.23.24,0,.75.52,1.32.28.58-.24,1.39-.37,1.83-.35.44.02.43-.26.72-.3.29-.05.66-.18,1.01-.37.35-.18.3.03.74.06.44.03.23,0,.64-.49.4-.49.68-.16.93-.33.25-.17.38-.09,1.07-.06.69.03.44-.14,1.03-.14.59,0,1.19-.26,1.89-.28.69-.02.72.1,1.26-.23.1-.06.19-.1.27-.13,0,0,.04-.01.1-.03.1-.03.27-.06.42-.03.24.04.27.03.56-.03,0,0,0,0,.01,0,.14-.03.3-.04.47,0,.54.13.65-.39,1.2-.49.54-.09.97-.45,1.78-.38.82.06,1.19-.45,1.38-.36.19.09,1.27.2,1.33,0,.06-.21.69-.47.99-.44s.84-.54,2.01-.3c1.18.24,1.2-.15,1.92-.09.72.07,1.92-.32,2.39-.43.47-.11.94.07,1.25.24.31.16,1.13-.31,1.05-.36-.08-.05-.14-.34.41-.15.56.19.89-.11,1.13-.09.2.01.4.03.41.12.1.12-.37.46-.87.55Z"/>
      <path class="cls-3" d="M196.26,64.05c-.39.71-.68,1.24-.85,1.54,0,.02-.02.03-.03.05-.07.13-.12.22-.14.25,0,0,0,0,0,0s0,0,0,0c0,0-1.13,2.54-1.61,5.18-.16.21-.33.43-.38.49,0,0-.01.02-.01.02-1.07,1.47-2.16,2.8-3.22,3.98,0,0,0,0-.01.01-1.78,1.99-3.47,3.58-4.85,4.76-.04.03-.08.05-.11.07-.03.02-.07.04-.1.06-.11.06-.2.1-.29.12-.01,0-.02,0-.03,0-.76.18-1.01-.6-1.06-.81,0-.01,0-.02,0-.03,0-.01,0-.02,0-.02-.56-2.06.95-7.54.99-7.71-.27.46-7.06,10.14-10.18,11.06-1.97.58-4.36-2.5-.52-12.52.62-1.61,1.58-3.73,2.27-5.02.69-1.29,1.36-2.5,1.89-3.76,0,0,.45-.88.82-1.86,0-.01.01-.04.03-.08.14-.35.96-2.04.13-2.11-.48-.13-.11-.35-.11-.35,1.11-.38,5.05-.61,2.48,4.09-2.73,4.99-7.19,14.82-5.52,15.87h0c.05.03.15,0,.28-.1.85-.49,4-3.14,14.14-19.21,0,0,0-.01.02-.03.06-.1.13-.21.2-.31,0,0,0,0,0,0,.16-.28.4-.73.6-1.27,0-.01.02-.04.03-.08.06-.18.18-.52.22-.85,0,0,0,0,0,0h0c0-.07.01-.12.02-.18h0c0-.48-.32-.61-.36-.62-.46-.22.04-.41.04-.41,1.11-.38,4.6-.57,2.48,4.1-.57,1.25-.69,1.5-1.32,2.82,0,0,0,0,0,.01-.15.37-.3.75-.46,1.15h0c-.98,2.28-1.69,4.1-2.18,5.57-.5,1.46-.8,2.56-.96,3.38,0,0-.35,1.66-.23,2.19,0,.02,0,.04.01.06,0,0,0,0,0,0,0,.03.02.05.04.07,0,0,.02,0,.02.01.01,0,.02.01.04.02h0s0,0,0,0c.59.1,3.02-2.8,5.03-5.34,0,0,0,0,0,0,.12-.18,1.92-2.8,2.61-3.94,0,0,0,0,0,0,.08-.13.14-.23.19-.32Z"/>
      <path class="cls-3" d="M196.26,64.05c-.39.71-.68,1.24-.85,1.54.14-.26.37-.67.66-1.22,0,0,0,0,0,0,.08-.13.14-.23.19-.32Z"/>
      <path class="cls-3" d="M238.26,30.02c-8.1,1.32-15.64,3.04-22.58,5.3-.56,1.29-1.13,2.56-1.56,3.5-.02.06-.05.12-.08.17-.04.09-.08.19-.12.28-.11.23-.2.43-.27.59-.02.05-.04.1-.06.14-.04.1-.08.17-.1.21,0,.02-.02.03-.02.05-2.66,5.72-5.87,11.2-6.52,12.35-.1.18-.25.45-.45.82-.05.08-.09.16-.14.25-.15.27-.32.58-.51.92-.07.13-.14.27-.22.41-.28.52-.6,1.09-.93,1.72-.1.18-.19.36-.29.54,0,.01-.02.03-.03.05-.09.17-.18.34-.27.51-.1.19-.2.38-.3.58-.1.19-.2.38-.3.57,0,0,0,.02-.01.03-.12.22-.23.45-.35.67-.04.08-.08.17-.13.25-.08.16-.16.31-.24.47-.03.06-.06.11-.08.16-.16.31-.31.62-.47.94-.06.12-.12.25-.19.37-.19.38-.37.75-.55,1.14-.06.13-.12.25-.18.38-.18.36-.35.73-.52,1.09-.01.03-.03.06-.04.09-.7,1.51-1.36,3.02-1.9,4.43-.09.23-.18.47-.26.69,0,0-.02.05-.05.13,0,.03-.02.06-.03.09-.19.59-.69,2.18-.52,2.95h0c.01.15.11.94.42,1.62.29.66.76,1.21,1.52,1.01.04-.01.07-.02.11-.03-.29.28-.58.54-.87.76-.85.66-1.66,1.08-2.39,1.09,0,0-.01,0-.02,0h-.02s-.05,0-.07,0c-3.54-.08-3.15-5.09-3.03-6.08,0-.03,0-.06,0-.08,0-.06.01-.09.01-.09.48-2.64,1.61-5.18,1.61-5.18,0,0,0,0,0,0s0,0,0,0c.02-.03.06-.12.14-.25,0-.02.02-.03.03-.05.17-.31.46-.84.85-1.54-.05.08-.11.19-.19.32,2.41-4.47,9.48-17.75,13.31-26.78-.62.25-1.25.5-1.86.76l-6.12,2.83c-5.08,2.44-7.73,6.02-6.06,6.51-.9.22-3.08-.37-3.7-2.16-.86-2.52,4.95-5.69,11.07-8.03l6.08-2.03c.55-.17,1.11-.34,1.68-.51.72-1.79,1.76-4.49,1.84-5.44h0c.24-1.7-.95-1.68-1.62-1.54,0,0-.02,0-.03,0-.12.03-.25.06-.38.1,0,0,.03-.04.09-.11.02-.02.03-.04.06-.07.65-.8,3.55-3.95,6.47-2.76.05.02.11.05.16.07.01,0,.02,0,.03.01.38.18.81.53,1.01,1.26,0,.05.02.09.03.14.01.05.02.11.03.17,0,.03.01.07.01.11.09.68-.04,1.91-.58,3.6,0,0,0,0,0,.01-.14.52-.55,1.58-1.06,2.81,7.41-1.83,15.49-3.26,21.69-3.5.48,0,.73.06.04.17Z"/>
      <path class="cls-3" d="M225.62,63.55c-3.39,2.67-6.39,4.35-6.39,4.35-1.95,1.07-3.86,1.62-5.75,1.74-1.58-.09-2.22-1.37-2.42-2.87v-.02c-.31-3.85,1.13-7.09,2.57-9.31.04-.06.08-.13.13-.19,0,0,0-.02.01-.02.78-1.13,1.64-2.12,2.49-2.99,0,0,.02-.01.02-.01.86-.87,1.71-1.61,2.47-2.2h0s.23-.19.53-.41c.01,0,.03-.02.04-.03,1.2-.83,3.92-2.34,4.8.47.04.14.09.29.12.45,0,0,0,0,0,.02,0,0,0,.01,0,.02.03.18.15.89.06,1.47,0,.05-.01.1-.03.15,0,.01,0,.02,0,.03-.01.06-.03.12-.04.18-.02.08-.02.14-.02.2,0,.38.15.56.45.56.27,0,.57-.15.9-.44h0s.02-.01.02-.02c.08-.08.16-.15.24-.23,4.13-4.02,3.12-6.63,2.86-7.15,0-.01-.02-.03-.03-.05t0,0s-.02-.03-.02-.03c-.21-.44-.55-.78-1.01-1.03-.06-.03-.13-.06-.19-.09-3.35-1.54-7.19.95-7.51,1.15-.01,0-.02.01-.02.01-.25.15-.5.31-.75.49-.01,0-.03.02-.04.03-3.22,2.05-6.5,5.52-9.01,9.8-.28.47-.54.93-.78,1.39-.03.06-.06.11-.09.17.03-.05.05-.1.08-.15-2.12,3.42-5.72,9.31-8.39,12.4-.02.02-.03.04-.05.06-.04.05-.08.1-.12.14-.04.05-.08.09-.12.14,0,0,0,0,0,0,0,0-.01.02-.03.03,0,0-.02.02-.03.04-.1.12-.31.36-.58.61-.07.07-.14.14-.22.2-.04.03-.08.07-.12.1-.06.05-.12.1-.18.15h0s0,.01,0,.01c-.03.03-.06.05-.09.07,0,0,0,0-.01,0,0,0-.01,0-.02.02-.4.28-.81.46-1.11.3-.02-.01-.04-.03-.06-.04-.03-.02-.05-.05-.07-.07-.02-.02-.03-.05-.05-.08-.01-.02-.02-.05-.03-.07h0s-.02-.04-.02-.06c0-.02,0-.04-.02-.06.01.14.11.93.42,1.62.29.66.76,1.21,1.52,1.01.04-.01.07-.02.11-.03.1-.1.2-.2.3-.3.23-.22.45-.46.67-.7.08-.09.16-.18.24-.27,1.71-1.94,3.33-4.37,4.36-6.01.06-.1.12-.19.17-.28.56-.91.91-1.52.94-1.58-.2.61-1.84,5.87,3.29,6.79h0s.04,0,.09.02c.01,0,.02,0,.04,0,.02,0,.04,0,.06,0,.02,0,.04,0,.06.01.04,0,.08.01.12.02.21.03.46.06.74.06.09,0,.18,0,.27,0,.02,0,.03,0,.04,0,0,0,.01,0,.02,0,.29,0,.61-.03.96-.08,1.91-.14,4.8-.71,7.96-2.63,0,0,0,0,0,0,0,0,0,0,0,0,.28-.15.58-.32.89-.51,1.64-1,4.28-2.72,5.25-3.46.04-.03.08-.06.12-.1.03-.02.06-.04.08-.06.15-.12.31-.22.45-.32.48-.34.97-.49,1.36-.5.05,0,.17.02.29.05,0,0,0,0,.02,0,.09.03.41.17.44.49,0,0,0,.02,0,.03,0,.02,0,.03.01.04,0,0,0,0,0,0,.06.21.24.22.38.16,0,0,.06-.04.08-.05.21-.17.5-.75.71-1.22h0c.11-.24.2-.46.25-.58,0-.02.02-.04.03-.06,0-.02.01-.03.01-.03h0c1.48-3.68-2.02-3.35-5.13-.89ZM206.73,66.3s0,0,0,0c0,0,0,.02,0,.03,0,0,0,0,0,0,0,0,0,0-.02.01,0-.02.02-.03.03-.05.03-.12.04-.12,0,0Z"/>
      <path class="cls-3" d="M246.41,67.49v.36c1.21.2,1.99.23,2.62.04v-.38c-.62.24-1.37.19-2.62-.02Z"/>
      <path class="cls-3" d="M246.41,71.21v.36c.67.07.87.22.93.29.02.03.02.04.02.05v.03s0,.04,0,.04c-.06.11-.48.29-.94.41v.37c.47-.1,1.02-.3,1.21-.54.07-.09.09-.17.09-.23.01-.06.02-.18-.06-.3-.16-.25-.57-.41-1.24-.48Z"/>
      <path class="cls-3" d="M246.69,70.17c-.1-.02-.19-.03-.28-.05v.37c.07.01.14.02.22.04,1.66.3,1.72,1.26,1.72,1.38,0,0,0,0,0,.01h0s0,.01,0,.01c0,.41-.13.73-.43.99-.37.32-.93.49-1.51.57v.26h.56c.45-.11.87-.28,1.19-.56.37-.33.56-.75.55-1.26,0-.13,0-1.4-2.01-1.76Z"/>
      <path class="cls-3" d="M246.41,68.84v.37c.88.11,1.78.16,2.62.1v-.36c-.83.07-1.74,0-2.62-.1Z"/>
      <g>
        <path class="cls-3" d="M246.41,64.73v.36c1.13.09,1.92-.04,2.62-.36v-.4c-.7.36-1.48.5-2.62.4Z"/>
        <path class="cls-3" d="M246.41,63.39v.36c1.11.05,1.97-.03,2.62-.16v-.37c-.63.14-1.48.22-2.62.17Z"/>
        <path class="cls-3" d="M246.41,66.41c.29.01,1.41.06,2.62.06v-.36c-1.23,0-2.36-.05-2.62-.07v.36Z"/>
        <path class="cls-3" d="M246.41,61.92v.36c.82.07,1.76.03,2.62-.06v-.37c-.87.09-1.81.13-2.62.06Z"/>
      </g>
      <path class="cls-3" d="M246.41,60.56c.33.04.6.09.76.17.38.18,1.1.38,1.86.57v-.37c-.71-.18-1.37-.37-1.71-.53-.2-.1-.53-.16-.91-.2v.36Z"/>
      <path class="cls-3" d="M249.03,57.94c-.06,0-.12-.01-.17-.02.05-.01.11-.03.17-.04v-.37c-.8.17-.91.35-.95.42l-.14.23.27.04c.05,0,.36.05.82.11v-.36Z"/>
      <path class="cls-3" d="M246.41,59.48c.29.01,1.41.06,2.62.06v-.36c-1.23,0-2.36-.05-2.62-.07v.36Z"/>
      <path class="cls-3" d="M249.03,55.88c-.19.03-.33.06-.42.1-.34.15-.7.48-1.12.87-.32.3-.68.63-1.08.91v.43c.49-.32.93-.72,1.32-1.08.4-.36.74-.68,1.02-.8.06-.03.16-.05.28-.07v-.36Z"/>
      <path class="cls-3" d="M246.41,53.07c.87.5,1.78.79,2.62.94v-.37c-.85-.16-1.76-.46-2.62-.99v.42Z"/>
      <path class="cls-3" d="M249.03,51.93c-1.26-.24-2.14-.65-2.62-.92v.41c.54.28,1.42.65,2.62.87v-.37Z"/>
      <path class="cls-3" d="M249.03,54.46c-.69.05-1.15.15-1.34.28-.26.18-.48.44-.73.74-.17.2-.34.42-.55.62v.49c.33-.29.6-.61.83-.89.23-.28.44-.53.65-.67.09-.06.35-.16,1.14-.22v-.36Z"/>
      <path class="cls-3" d="M249.03,49.41c-1.04.05-1.97.14-2.62.32v.37c.57-.17,1.46-.28,2.62-.33v-.36Z"/>
      <path class="cls-3" d="M246.41,48.12v.37c.37-.08.68-.16.91-.2.29-.05.92-.1,1.72-.13v-.36c-.82.04-1.47.08-1.78.14-.21.04-.51.11-.84.18Z"/>
      <path class="cls-3" d="M246.41,47.09c.84-.06,1.73-.1,2.62-.12v-.36c-.89.02-1.78.06-2.62.12v.36Z"/>
      <path class="cls-3" d="M246.41,45.51c.83-.06,1.73-.09,2.62-.1v-.36c-.89,0-1.79.04-2.62.1v.36Z"/>
      <path class="cls-3" d="M246.41,43.82v.36c.32-.05.66-.1,1.01-.15.59-.09,1.13-.19,1.61-.29v-.37c-.5.11-1.05.21-1.66.3-.33.05-.65.1-.96.14Z"/>
      <path class="cls-3" d="M246.41,38.28c1.33-.05,2.08-.5,2.62-1.02v-.52c-.53.6-1.2,1.13-2.62,1.18v.36Z"/>
      <path class="cls-3" d="M246.41,39.69c.88-.08,1.79-.31,2.62-.75v-.41c-.82.47-1.74.71-2.62.8v.36Z"/>
      <path class="cls-3" d="M246.41,42.41v.37c.19-.04.36-.08.48-.12.64-.22,1.59-.38,2.14-.46v-.37c-.55.08-1.56.25-2.26.49-.1.03-.22.06-.36.09Z"/>
      <path class="cls-3" d="M249.03,40.75c-.66-.08-1.38-.11-1.79-.08h-.05c-.21.02-.47.04-.78.06v.36c.32-.02.59-.04.81-.05h.05c.46-.04,1.16,0,1.76.08v-.37Z"/>
      <path class="cls-3" d="M246.41,34.19v.36c.67.07.87.22.93.29.02.03.02.04.02.05v.03s0,.04,0,.04c-.06.11-.48.29-.94.41v.37c.47-.1,1.02-.3,1.21-.54.07-.09.09-.17.09-.23.01-.06.02-.18-.06-.3-.16-.25-.57-.41-1.24-.48Z"/>
      <path class="cls-3" d="M246.69,33.16c-.1-.02-.19-.03-.28-.05v.37c.07.01.14.02.22.04,1.66.3,1.72,1.26,1.72,1.38,0,0,0,0,0,.01h0s0,.01,0,.01c0,.41-.13.73-.43.99-.37.32-.93.49-1.51.57v.36c.64-.08,1.3-.27,1.74-.66.37-.33.56-.75.55-1.26,0-.13,0-1.4-2.01-1.76Z"/>
      <path class="cls-3" d="M249.03,32.4c-.3,0-.57-.02-.79-.05-.1-.02-.19.05-.21.15,0,0,0,.02,0,.03,0,.09.06.16.15.18.24.04.52.05.84.06v-.36Z"/>
      <path class="cls-3" d="M249.03,31.15c-.11,0-.21.01-.31.01-.69.02-1.22-.05-1.69-.11-.22-.03-.42-.06-.62-.07v.36c.18.02.37.04.57.07.48.06,1.03.14,1.75.12.09,0,.19,0,.3-.01v-.36Z"/>
      <path class="cls-3" d="M246.41,29.25v.37c.88.11,1.78.16,2.62.1v-.36c-.83.07-1.74,0-2.62-.1Z"/>
      <path class="cls-3" d="M246.41,27.7v.36c1.21.2,1.99.23,2.62.04v-.38c-.62.24-1.37.19-2.62-.02Z"/>
      <path class="cls-3" d="M246.41,26.44v.36c1.13.09,1.92-.04,2.62-.36v-.4c-.7.36-1.48.5-2.62.4Z"/>
      <path class="cls-3" d="M246.41,25.07v.36c1.11.05,1.97-.03,2.62-.16v-.37c-.63.14-1.48.22-2.62.17Z"/>
      <path class="cls-3" d="M256.58,25.19h2.17v7.68c0,1.81.74,2.72,2.21,2.72.46,0,.86-.07,1.18-.21.31-.13.55-.34.71-.61.17-.27.28-.56.33-.85.06-.31.09-.67.09-1.07v-7.66s2.14,0,2.14,0v7.66c0,.48-.04.93-.12,1.36-.08.43-.23.85-.44,1.27-.21.43-.48.79-.8,1.08-.32.3-.75.54-1.28.73-.53.19-1.13.28-1.8.28s-1.28-.1-1.8-.29c-.52-.19-.94-.44-1.26-.74-.32-.3-.58-.66-.78-1.09-.21-.43-.34-.85-.41-1.27-.04-.21-.07-.43-.09-.65-.02-.22-.03-.45-.03-.7l-.03-7.65Z"/>
      <path class="cls-3" d="M267.87,25.18h1.82l2.55,4.09c.11.17.22.35.35.55.12.2.26.41.4.64.14.23.26.42.36.57.1.16.17.28.23.36.1.17.24.41.41.7.17.3.35.64.56,1.02h.02c0-.38,0-1.23,0-2.55v-5.39h2.14v12.16h-1.78c-.87-1.39-1.53-2.45-1.99-3.17-.46-.73-.71-1.13-.75-1.2-.51-.82-.94-1.53-1.3-2.14s-.65-1.11-.86-1.51h-.02v8.02h-2.14l.02-12.16Z"/>
      <path class="cls-3" d="M279.24,25.18h2.28v12.16h-2.28v-12.16Z"/>
      <path class="cls-3" d="M285.18,25.19c.7,2.1,1.23,3.71,1.61,4.84.37,1.13.59,1.78.64,1.95.08.24.16.55.26.91.1.36.2.8.32,1.3h.07c.04-.13.11-.38.23-.74.11-.37.26-.86.45-1.47l2.24-6.79h2.22l-4.16,12.16h-1.98l-4.19-12.16h2.3Z"/>
      <path class="cls-3" d="M294.56,25.18h7.93l-.12,1.97h-5.67v3.06h5.02l-.13,1.91h-4.89v3.22h5.86l-.11,2.01h-7.89v-12.16Z"/>
      <path class="cls-3" d="M304.54,25.19h3.74c.66,0,1.24.07,1.75.2.53.14.99.35,1.4.64.4.29.72.68.95,1.18.23.5.34,1.08.34,1.76,0,.77-.19,1.44-.57,2.01-.38.57-.9,1-1.58,1.29l3.23,5.06h-2.6l-2.73-4.72h-1.76v4.72h-2.16v-12.16ZM308.59,30.76c.56,0,1.02-.16,1.4-.48.37-.31.56-.73.56-1.24,0-.63-.17-1.1-.52-1.43-.35-.33-.86-.5-1.54-.5h-1.8v3.65h1.89Z"/>
      <path class="cls-3" d="M315.97,34.18c.38.52.79.9,1.24,1.12.44.23.96.34,1.54.34s1.03-.15,1.35-.44c.32-.3.49-.72.49-1.26,0-.49-.26-.87-.78-1.15-.2-.11-.49-.23-.88-.36-.06-.02-.21-.06-.46-.15-.12-.04-.23-.08-.33-.11-.1-.03-.18-.05-.25-.08-.34-.1-.63-.21-.87-.32-.12-.05-.25-.12-.38-.19-.13-.07-.27-.16-.41-.25-.29-.2-.52-.41-.7-.63-.17-.22-.32-.51-.44-.87-.12-.35-.18-.75-.18-1.19,0-1.09.34-1.96,1.03-2.61.69-.66,1.59-.99,2.7-.99,1.64,0,2.94.72,3.88,2.16l-1.63,1.14c-.63-.89-1.39-1.33-2.28-1.33-.48,0-.85.15-1.12.46-.27.31-.4.71-.4,1.2s.26.86.78,1.11c.22.12.51.23.87.33.06.02.15.05.24.07.1.03.21.06.33.1.25.08.41.12.49.15.14.04.27.09.39.13.12.04.23.08.34.13.2.08.43.18.69.32.24.12.45.28.64.45.09.09.18.18.26.28.08.1.16.21.23.32.15.22.27.49.35.8.08.31.12.65.12,1.02,0,.78-.18,1.46-.53,2.02-.36.56-.84.98-1.46,1.27-.61.28-1.31.42-2.11.42-1.89,0-3.35-.78-4.38-2.35l1.64-1.05Z"/>
      <path class="cls-3" d="M324.68,25.18h2.28v12.16h-2.28v-12.16Z"/>
      <path class="cls-3" d="M329.5,25.22h2.94c.81,0,1.54.07,2.19.2.65.14,1.26.36,1.83.67.56.3,1.03.69,1.42,1.16.38.46.69,1.05.91,1.75.22.68.32,1.47.32,2.37,0,1.14-.23,2.16-.68,3.07-.45.91-1.1,1.62-1.95,2.14-.85.52-1.83.78-2.94.78h-4.04v-12.13ZM333.19,35.37c.45,0,.88-.08,1.3-.25.44-.17.83-.41,1.19-.71.37-.31.66-.72.89-1.21.23-.5.34-1.06.34-1.67,0-1.5-.36-2.6-1.09-3.28-.73-.68-1.83-1.02-3.31-1.02h-.84v8.14h1.52Z"/>
      <path class="cls-3" d="M344.13,25.18h1.97l4.6,12.16h-2.38l-.99-2.64h-4.64l-.99,2.64h-2.19l4.62-12.16ZM346.69,32.77c-.36-1.03-.67-1.95-.95-2.77-.27-.82-.51-1.54-.7-2.17h-.02c-.06.2-.14.45-.23.75-.1.3-.22.66-.36,1.08-.14.42-.27.8-.39,1.16-.12.36-.24.7-.34,1.01l-.32.94h3.32Z"/>
      <path class="cls-3" d="M351.99,25.22h2.94c.81,0,1.54.07,2.19.2.65.14,1.26.36,1.83.67.56.3,1.03.69,1.42,1.16.38.46.68,1.05.91,1.75.22.68.32,1.47.32,2.37,0,1.14-.23,2.16-.68,3.07-.45.91-1.1,1.62-1.95,2.14-.85.52-1.83.78-2.94.78h-4.04v-12.13ZM355.68,35.37c.45,0,.88-.08,1.3-.25.44-.17.83-.41,1.19-.71.37-.31.66-.72.89-1.21.23-.5.34-1.06.34-1.67,0-1.5-.36-2.6-1.09-3.28-.73-.68-1.83-1.02-3.31-1.02h-.84v8.14h1.52Z"/>
      <path class="cls-3" d="M256.34,43.31h7.95v1.63h-3.07v10.53h-1.75v-10.53h-3.13v-1.63Z"/>
      <path class="cls-3" d="M265.83,55.47v-12.16h7.47l-.09,1.64h-5.69v3.57h5.02l-.11,1.57h-4.91v3.74h5.85l-.09,1.64h-7.45ZM270.39,39.89h2.12l-2.56,2.61h-1.38l1.83-2.61Z"/>
      <path class="cls-3" d="M274.71,49.5c0-.68.06-1.32.18-1.92.12-.62.31-1.19.57-1.71.26-.54.58-1.01.95-1.4.38-.4.84-.71,1.38-.94.55-.23,1.16-.34,1.82-.34.3,0,.62.04.95.11.31.07.64.19.99.36.34.16.68.4,1.01.7.33.31.62.67.88,1.08l-1.32.95c-.71-1.02-1.56-1.53-2.54-1.53s-1.69.43-2.24,1.29c-.56.85-.83,1.96-.83,3.33,0,.86.13,1.64.4,2.33.27.7.64,1.25,1.1,1.64s.99.59,1.57.59c1.15,0,2.08-.55,2.79-1.66l1.33.95c-.33.57-.73,1.04-1.19,1.4-.45.36-.91.61-1.38.76-.46.15-.94.22-1.43.22-.67,0-1.28-.12-1.83-.35-.56-.24-1.02-.55-1.4-.95-.38-.39-.7-.86-.97-1.4-.26-.53-.46-1.1-.58-1.69-.12-.58-.18-1.19-.18-1.84v.02Z"/>
      <path class="cls-3" d="M285.57,43.31h1.46l3.77,6.24.36.61c.11.18.22.37.33.56.11.19.23.38.34.58.11.2.2.36.27.47.07.11.11.18.13.21h.04v-8.68h1.7v12.16h-1.44s-.29-.49-.85-1.41c-.56-.92-1.18-1.94-1.84-3.06-.34-.56-.62-1.03-.85-1.42-.22-.38-.4-.68-.51-.88-.21-.35-.41-.7-.61-1.04-.2-.34-.39-.69-.57-1.04h-.04c0,.34,0,.65.01.94s0,.55,0,.78v7.13h-1.71v-12.16Z"/>
      <path class="cls-3" d="M296.53,43.31h1.84v12.16h-1.84v-12.16Z"/>
      <path class="cls-3" d="M300.43,49.5c0-.68.06-1.32.18-1.92.12-.62.31-1.19.57-1.71.26-.54.58-1.01.95-1.4.38-.4.84-.71,1.38-.94.55-.23,1.16-.34,1.82-.34.3,0,.62.04.95.11.31.07.64.19.99.36.34.16.68.4,1.01.7.33.31.62.67.88,1.08l-1.32.95c-.71-1.02-1.56-1.53-2.54-1.53s-1.69.43-2.24,1.29c-.56.85-.83,1.96-.83,3.33,0,.86.13,1.64.4,2.33.27.7.64,1.25,1.1,1.64s.99.59,1.57.59c1.15,0,2.08-.55,2.79-1.66l1.33.95c-.33.57-.73,1.04-1.19,1.4-.45.36-.91.61-1.38.76-.46.15-.94.22-1.43.22-.67,0-1.28-.12-1.83-.35-.56-.24-1.02-.55-1.4-.95-.38-.39-.7-.86-.97-1.4-.26-.53-.46-1.1-.58-1.69-.12-.58-.18-1.19-.18-1.84v.02Z"/>
      <path class="cls-3" d="M314.5,43.31h1.61c.33.8.63,1.57.9,2.31l3.62,9.86h-1.87l-1.06-2.9h-4.82l-1.08,2.9h-1.74l4.45-12.16ZM317.19,51c-.23-.61-.41-1.1-.54-1.46-.13-.36-.22-.6-.26-.71l-1.1-3.12h-.03c-.19.55-.34.99-.45,1.32-.11.33-.18.54-.22.64l-1.19,3.34h3.79Z"/>
      <path class="cls-3" d="M325.93,43.33h2.73c.39,0,.76.02,1.11.05s.69.08,1.02.15c.63.13,1.22.36,1.77.67.54.3.99.69,1.37,1.16.38.47.67,1.06.87,1.75.2.71.31,1.5.31,2.38,0,1.14-.22,2.16-.66,3.07-.44.91-1.06,1.62-1.88,2.14-.82.52-1.76.78-2.81.78h-3.8l-.02-12.14ZM329.41,53.85c.46,0,.92-.09,1.38-.27.45-.18.87-.44,1.26-.78.39-.34.7-.78.95-1.33.24-.55.36-1.16.36-1.83,0-1.63-.39-2.81-1.16-3.56-.78-.74-1.93-1.12-3.47-1.12h-1.07v8.88h1.76Z"/>
      <path class="cls-3" d="M337.07,43.31h7.47l-.09,1.64h-5.69v3.57h5.02l-.11,1.57h-4.91v3.74h5.85l-.09,1.64h-7.45v-12.16Z"/>
      <path class="cls-3" d="M256.95,67.83c0-.34.02-.68.05-1,.03-.32.08-.64.14-.95.12-.6.31-1.18.57-1.72.26-.53.57-.99.95-1.38.37-.39.83-.7,1.37-.92.54-.23,1.14-.34,1.8-.34s1.34.16,2.01.49c.69.33,1.25.86,1.69,1.58l-1.05.76c-.69-1-1.59-1.5-2.69-1.5-.71,0-1.32.22-1.83.66-.52.45-.91,1.04-1.16,1.78-.26.74-.39,1.59-.39,2.52s.14,1.74.42,2.47c.29.75.68,1.34,1.2,1.77.52.44,1.1.66,1.76.66,1.27,0,2.26-.54,2.95-1.63l1.05.75c-.3.51-.67.93-1.12,1.27-.44.33-.89.57-1.34.71-.44.14-.91.2-1.42.2-.66,0-1.26-.11-1.81-.34-.54-.23-1.01-.53-1.39-.92-.38-.39-.71-.85-.97-1.38-.27-.53-.46-1.1-.58-1.7-.12-.61-.19-1.23-.19-1.87l-.02.02Z"/>
      <path class="cls-3" d="M267.12,67.73c0-.61.06-1.22.19-1.82.12-.59.3-1.15.56-1.68.25-.54.56-1.01.92-1.4.36-.39.81-.71,1.33-.95.52-.23,1.09-.35,1.72-.35.75,0,1.43.17,2.04.51.6.34,1.1.8,1.48,1.38.38.58.67,1.23.87,1.97.21.74.31,1.52.31,2.34,0,.46-.03.92-.1,1.38-.03.23-.07.47-.12.7-.05.24-.11.48-.18.72-.13.48-.33.93-.57,1.35-.24.4-.53.78-.87,1.12s-.75.59-1.24.78c-.5.19-1.04.28-1.63.28s-1.1-.09-1.59-.27c-.49-.18-.9-.42-1.24-.74-.34-.31-.63-.67-.88-1.08-.25-.39-.44-.84-.59-1.33-.08-.24-.14-.49-.19-.73s-.1-.49-.13-.73-.06-.49-.08-.73c-.02-.24-.02-.5-.02-.76v.03ZM268.57,67.78c0,.17,0,.34.02.51.01.17.03.34.05.51.04.34.1.71.19,1.1.09.38.22.74.39,1.08.17.32.37.63.61.91.23.27.52.48.87.64.36.16.74.23,1.16.23.38,0,.74-.06,1.06-.19.32-.13.6-.3.82-.53s.41-.47.58-.78c.09-.15.16-.3.23-.45.07-.15.13-.3.17-.45.1-.3.18-.61.24-.95.03-.17.06-.32.08-.47.02-.15.04-.29.05-.42.01-.13.02-.26.02-.38s0-.25,0-.37c0-.31-.02-.64-.07-.98-.05-.33-.12-.69-.22-1.08-.1-.38-.23-.74-.41-1.08-.18-.35-.39-.66-.61-.92-.24-.28-.52-.49-.86-.66-.34-.16-.71-.24-1.12-.24-.5,0-.94.12-1.33.36-.4.24-.71.54-.95.91-.24.37-.43.78-.58,1.24-.16.46-.26.89-.32,1.29-.03.2-.05.39-.06.58-.01.19-.02.37-.02.55v.02Z"/>
      <path class="cls-3" d="M276.92,61.66h7.89v1.29h-3.2v10.87h-1.42v-10.87h-3.27v-1.29Z"/>
      <path class="cls-3" d="M285.25,67.73c0-.61.06-1.22.19-1.82.12-.59.3-1.15.56-1.68.25-.54.56-1.01.92-1.4.36-.39.81-.71,1.33-.95.52-.23,1.09-.35,1.72-.35.75,0,1.43.17,2.04.51.6.34,1.1.8,1.48,1.38.38.58.67,1.23.87,1.97.21.74.31,1.52.31,2.34,0,.46-.03.92-.1,1.38-.03.23-.07.47-.12.7-.05.24-.11.48-.18.72-.13.48-.33.93-.57,1.35-.24.4-.53.78-.87,1.12s-.75.59-1.24.78c-.5.19-1.04.28-1.63.28s-1.1-.09-1.59-.27c-.49-.18-.9-.42-1.24-.74-.34-.31-.63-.67-.88-1.08-.25-.39-.44-.84-.59-1.33-.08-.24-.14-.49-.19-.73s-.1-.49-.13-.73-.06-.49-.08-.73c-.02-.24-.02-.5-.02-.76v.03ZM286.69,67.78c0,.17,0,.34.02.51.01.17.03.34.05.51.04.34.1.71.19,1.1.09.38.22.74.39,1.08.17.32.37.63.61.91.23.27.52.48.87.64.36.16.74.23,1.16.23.38,0,.74-.06,1.06-.19.32-.13.6-.3.82-.53s.41-.47.58-.78c.09-.15.16-.3.23-.45.07-.15.13-.3.17-.45.1-.3.18-.61.24-.95.03-.17.06-.32.08-.47.02-.15.04-.29.05-.42.01-.13.02-.26.02-.38s0-.25,0-.37c0-.31-.02-.64-.07-.98-.05-.33-.12-.69-.22-1.08-.1-.38-.23-.74-.41-1.08-.18-.35-.39-.66-.61-.92-.24-.28-.52-.49-.86-.66-.34-.16-.71-.24-1.12-.24-.5,0-.94.12-1.33.36-.4.24-.71.54-.95.91-.24.37-.43.78-.58,1.24-.16.46-.26.89-.32,1.29-.03.2-.05.39-.06.58-.01.19-.02.37-.02.55v.02Z"/>
      <path class="cls-3" d="M296.82,61.66h3.21c.64,0,1.2.06,1.7.19.5.13.94.33,1.31.61.38.29.67.67.87,1.15s.3,1.06.3,1.75c0,1.14-.35,2.02-1.04,2.65-.7.63-1.62.95-2.78.95h-2.17v4.86h-1.37l-.02-12.16ZM300.36,67.69c.44,0,.84-.08,1.21-.23.36-.15.66-.4.9-.75.24-.35.36-.77.36-1.26,0-1.67-.85-2.51-2.56-2.51h-2.06v4.76h2.16Z"/>
      <path class="cls-3" d="M308.24,61.66h1.42l4.45,12.16h-1.49l-1.18-3.25h-5.05l-1.2,3.25h-1.39l4.44-12.16ZM310.98,69.32l-2.07-5.7-2.09,5.7h4.16Z"/>
      <path class="cls-3" d="M318.42,67.3l-3.63-5.64h1.72l2.69,4.46,2.66-4.46h1.66l-3.56,5.53,3.96,6.63h-1.67l-3.02-5.37-3.03,5.37h-1.67l3.91-6.53Z"/>
      <path class="cls-3" d="M325.29,61.66h1.42v12.16h-1.42v-12.16Z"/>
    </g>
    <rect class="cls-4" x="153.69" y=".5" width="620.22" height="108.93" rx="29.6" ry="29.6"/>
    <g>
      <path class="cls-3" d="M395.87,72.43h-13.72v-23.75h3.72v20.03h10.01v3.72Z"/>
      <path class="cls-3" d="M416.7,55.47v16.96h-3.73v-1.43c-1.56,1.16-3.33,1.74-5.32,1.74-2.5,0-4.63-.88-6.4-2.65-1.77-1.77-2.65-3.9-2.65-6.4s.88-4.62,2.65-6.38c1.77-1.77,3.9-2.65,6.4-2.65,1.99,0,3.76.58,5.32,1.74v-.92h3.73ZM412.97,63.22c-.15-1.4-.72-2.56-1.72-3.49-1-.93-2.2-1.39-3.6-1.39-1.48,0-2.74.52-3.78,1.57-1.05,1.05-1.57,2.3-1.57,3.77s.52,2.74,1.57,3.78c1.05,1.05,2.31,1.57,3.78,1.57,1.4,0,2.6-.46,3.6-1.39,1-.93,1.57-2.09,1.72-3.49v-.94Z"/>
      <path class="cls-3" d="M427.61,59.2h-4.42v4.62c0,1.42.5,2.63,1.5,3.63.85.83,1.82,1.32,2.91,1.47v3.78c-2.09-.16-3.95-1.02-5.57-2.57-1.74-1.75-2.61-3.85-2.61-6.31v-12.39h3.72v4.04h4.47v3.73Z"/>
      <path class="cls-3" d="M447.33,55.47v16.96h-3.73v-1.43c-1.56,1.16-3.33,1.74-5.32,1.74-2.5,0-4.63-.88-6.4-2.65-1.77-1.77-2.65-3.9-2.65-6.4s.88-4.62,2.65-6.38c1.77-1.77,3.9-2.65,6.4-2.65,1.99,0,3.76.58,5.32,1.74v-.92h3.73ZM443.59,63.22c-.15-1.4-.72-2.56-1.72-3.49-1-.93-2.2-1.39-3.6-1.39-1.48,0-2.74.52-3.78,1.57-1.05,1.05-1.57,2.3-1.57,3.77s.52,2.74,1.57,3.78c1.05,1.05,2.31,1.57,3.78,1.57,1.4,0,2.6-.46,3.6-1.39,1-.93,1.57-2.09,1.72-3.49v-.94Z"/>
      <path class="cls-3" d="M464.68,56.58c1.6,1.28,2.66,2.93,3.19,4.94h-3.89c-1.08-2.11-2.71-3.17-4.89-3.17-1.48,0-2.74.52-3.78,1.57-1.04,1.05-1.56,2.3-1.56,3.77s.52,2.74,1.56,3.78c1.04,1.05,2.3,1.57,3.78,1.57,2.18,0,3.81-1.06,4.89-3.17h3.89c-.52,2.01-1.59,3.66-3.19,4.94-1.6,1.28-3.47,1.93-5.59,1.93-2.5,0-4.63-.88-6.39-2.65-1.76-1.77-2.64-3.9-2.64-6.4s.88-4.62,2.64-6.38c1.76-1.77,3.89-2.65,6.39-2.65,2.12,0,3.99.64,5.59,1.93Z"/>
      <path class="cls-3" d="M470.59,63.82v-8.35h3.77v8.35c0,1.42.51,2.63,1.52,3.63,1.11,1.01,2.32,1.52,3.63,1.52s2.52-.51,3.63-1.52c.73-.73,1.2-1.61,1.41-2.66v-9.32h3.72v16.96h-3.72v-1.26c-1.8,1.19-3.73,1.7-5.81,1.53s-3.92-1.03-5.52-2.57c-1.75-1.75-2.63-3.85-2.63-6.31Z"/>
      <path class="cls-3" d="M508.68,64.45v7.98h-3.77v-7.98c0-1.43-.51-2.66-1.52-3.68-1.11-1.02-2.32-1.53-3.63-1.53s-2.52.51-3.63,1.53c-.73.74-1.2,1.64-1.41,2.69v8.97h-3.72v-16.96h3.72v1.53c1.8-1.22,3.73-1.74,5.81-1.57s3.92,1.05,5.52,2.63c1.75,1.77,2.63,3.9,2.63,6.39Z"/>
      <path class="cls-3" d="M530.43,59.3h-1.74c.05.06.11.13.2.23.09.1.23.31.44.63.21.32.4.66.56,1.01.16.35.31.78.44,1.3.13.52.2,1.05.2,1.57,0,2.65-.86,4.81-2.58,6.49-1.72,1.68-3.87,2.52-6.45,2.52h-.66c-.52,0-.98.01-1.37.04-.39.03-.8.09-1.24.19-.43.1-.78.23-1.06.4-.27.17-.5.41-.68.72-.18.31-.27.67-.27,1.09,0,.59.2,1.07.61,1.42.4.36.89.54,1.46.54.64,0,1.25-.1,1.84-.31.59-.2,1.13-.45,1.61-.75.48-.3.97-.59,1.46-.89.49-.3,1.04-.55,1.65-.75.61-.2,1.26-.31,1.93-.31,1.7,0,2.92.47,3.63,1.4.72.93,1.07,2.23,1.07,3.9h-4.36c0-.63-.17-.94-.51-.94-.31,0-.74.15-1.3.44-.56.3-1.13.62-1.71.97-.58.35-1.36.68-2.33.97-.97.3-1.97.44-3.01.44-.25,0-.5-.01-.74-.03-.92-.08-1.78-.31-2.58-.69-1.01-.48-1.82-1.2-2.43-2.15-.61-.95-.92-2.04-.92-3.28,0-2.42,1.11-4.19,3.32-5.3-1.61-1.73-2.42-3.78-2.42-6.15,0-1.61.41-3.11,1.22-4.47.81-1.37,1.91-2.45,3.3-3.24,1.39-.79,2.89-1.18,4.5-1.18h8.93v4.16ZM522.26,59.3h-.77c-1.31,0-2.42.46-3.32,1.39-.91.93-1.36,2.04-1.36,3.35s.45,2.47,1.36,3.41c.91.94,2.02,1.41,3.32,1.41s2.43-.47,3.34-1.41c.91-.94,1.36-2.08,1.36-3.42,0-1.18-.37-2.22-1.12-3.13-.74-.9-1.69-1.44-2.82-1.61Z"/>
      <path class="cls-3" d="M552.47,55.47v16.96h-3.73v-1.43c-1.56,1.16-3.33,1.74-5.32,1.74-2.5,0-4.63-.88-6.4-2.65-1.77-1.77-2.65-3.9-2.65-6.4s.88-4.62,2.65-6.38c1.77-1.77,3.9-2.65,6.4-2.65,1.99,0,3.76.58,5.32,1.74v-.92h3.73ZM548.74,63.22c-.15-1.4-.72-2.56-1.72-3.49-1-.93-2.2-1.39-3.6-1.39-1.48,0-2.74.52-3.78,1.57-1.05,1.05-1.57,2.3-1.57,3.77s.52,2.74,1.57,3.78c1.05,1.05,2.31,1.57,3.78,1.57,1.4,0,2.6-.46,3.6-1.39,1-.93,1.57-2.09,1.72-3.49v-.94Z"/>
      <path class="cls-3" d="M382.08,78.94c.18-.34.43-.61.76-.8.32-.19.68-.28,1.08-.28.34,0,.67.08.96.24.3.16.52.37.68.63v-2.34h.74v5.98h-.74v-.83c-.15.26-.36.48-.65.65-.29.17-.62.25-1,.25s-.75-.1-1.07-.29c-.32-.19-.57-.47-.76-.82-.18-.35-.27-.75-.27-1.2s.09-.85.27-1.19ZM385.36,79.26c-.13-.25-.32-.44-.55-.57-.23-.13-.48-.2-.76-.2s-.53.06-.75.19c-.23.13-.41.32-.54.57-.13.25-.2.54-.2.87s.07.63.2.88c.13.25.32.44.54.57.23.13.48.2.75.2s.53-.07.76-.2c.23-.13.41-.32.55-.57.13-.25.2-.54.2-.88s-.07-.62-.2-.87Z"/>
      <path class="cls-3" d="M391.56,80.42h-3.54c.03.44.18.78.45,1.02.27.25.6.37.99.37.32,0,.58-.07.8-.22.21-.15.36-.35.45-.59h.79c-.12.43-.36.77-.71,1.04-.36.27-.8.4-1.33.4-.42,0-.8-.09-1.13-.28-.33-.19-.59-.46-.78-.8-.19-.35-.28-.75-.28-1.21s.09-.86.27-1.2c.18-.34.44-.61.77-.8.33-.19.71-.28,1.14-.28s.79.09,1.11.27c.32.18.57.44.75.76.18.32.26.68.26,1.09,0,.14,0,.29-.02.44ZM390.64,79.1c-.12-.2-.29-.36-.5-.46-.21-.1-.45-.16-.71-.16-.37,0-.69.12-.95.36-.26.24-.41.57-.45.99h2.8c0-.28-.06-.52-.19-.72Z"/>
      <path class="cls-3" d="M393.29,76.38v5.98h-.74v-5.98h.74Z"/>
      <path class="cls-3" d="M397.6,78.54v2.61c0,.22.05.37.14.46.09.09.25.13.48.13h.54v.62h-.66c-.41,0-.72-.09-.92-.28-.2-.19-.31-.5-.31-.93v-2.61h-.57v-.61h.57v-1.11h.74v1.11h1.16v.61h-1.16Z"/>
      <path class="cls-3" d="M399.64,78.94c.18-.34.43-.61.76-.8.32-.19.68-.28,1.07-.28s.72.08,1.01.25c.29.17.5.38.64.63v-.81h.74v4.43h-.74v-.82c-.15.26-.36.47-.65.64-.29.17-.62.25-1.01.25s-.75-.1-1.07-.29c-.32-.19-.57-.47-.75-.82-.18-.35-.27-.75-.27-1.2s.09-.85.27-1.19ZM402.91,79.26c-.13-.25-.32-.44-.55-.57-.23-.13-.48-.2-.76-.2s-.53.06-.75.19c-.23.13-.41.32-.54.57-.13.25-.2.54-.2.87s.07.63.2.88c.13.25.32.44.54.57.23.13.48.2.75.2s.53-.07.76-.2c.23-.13.41-.32.55-.57.13-.25.2-.54.2-.88s-.07-.62-.2-.87Z"/>
      <path class="cls-3" d="M411.35,78.06c.27.14.48.36.64.64.16.29.23.63.23,1.04v2.61h-.73v-2.5c0-.44-.11-.78-.33-1.01-.22-.23-.51-.35-.88-.35s-.69.12-.91.37c-.23.25-.34.6-.34,1.06v2.44h-.73v-2.5c0-.44-.11-.78-.33-1.01-.22-.23-.51-.35-.88-.35s-.69.12-.91.37c-.23.25-.34.6-.34,1.06v2.44h-.74v-4.43h.74v.64c.15-.23.34-.41.59-.53.25-.12.52-.19.81-.19.37,0,.7.08.99.25.29.17.5.41.64.74.12-.31.33-.55.61-.73.29-.17.6-.26.95-.26s.65.07.92.21Z"/>
      <path class="cls-3" d="M413.42,78.94c.18-.34.43-.61.76-.8.32-.19.68-.28,1.07-.28s.72.08,1.01.25c.29.17.5.38.64.63v-.81h.74v4.43h-.74v-.82c-.15.26-.36.47-.65.64-.29.17-.62.25-1.01.25s-.75-.1-1.07-.29c-.32-.19-.57-.47-.75-.82-.18-.35-.27-.75-.27-1.2s.09-.85.27-1.19ZM416.7,79.26c-.13-.25-.32-.44-.55-.57-.23-.13-.48-.2-.76-.2s-.53.06-.75.19c-.23.13-.41.32-.54.57-.13.25-.2.54-.2.87s.07.63.2.88c.13.25.32.44.54.57.23.13.48.2.75.2s.53-.07.76-.2c.23-.13.41-.32.55-.57.13-.25.2-.54.2-.88s-.07-.62-.2-.87Z"/>
      <path class="cls-3" d="M422.35,78.34c.33.33.5.8.5,1.41v2.61h-.73v-2.5c0-.44-.11-.78-.33-1.01-.22-.23-.52-.35-.9-.35s-.7.12-.93.36c-.23.24-.34.6-.34,1.06v2.45h-.74v-4.43h.74v.63c.15-.23.34-.4.59-.53.25-.12.53-.19.83-.19.54,0,.97.16,1.31.49ZM419.95,76.82c.14-.15.32-.22.54-.22.1,0,.19.02.26.05.07.04.16.08.26.15.08.05.14.1.2.13.06.03.12.04.19.04.09,0,.17-.03.23-.09.06-.06.1-.15.12-.26h.42c-.03.27-.12.48-.27.62-.15.15-.33.22-.54.22-.1,0-.19-.02-.27-.05-.08-.03-.17-.09-.26-.16-.09-.05-.15-.09-.21-.12-.05-.03-.11-.04-.18-.04-.09,0-.17.03-.23.09-.06.06-.1.15-.12.27h-.43c.04-.27.13-.48.27-.63Z"/>
      <path class="cls-3" d="M424.86,82.15c-.34-.19-.6-.46-.79-.8-.19-.35-.29-.75-.29-1.21s.1-.85.29-1.2c.2-.35.46-.61.8-.8.34-.19.72-.28,1.14-.28s.8.09,1.14.28c.34.19.61.45.8.8.2.34.29.75.29,1.2s-.1.86-.3,1.21c-.2.35-.48.62-.82.8-.34.19-.73.28-1.15.28s-.79-.09-1.13-.28ZM426.73,81.6c.23-.12.42-.31.56-.56.14-.25.21-.55.21-.9s-.07-.66-.21-.9c-.14-.25-.32-.43-.55-.55-.23-.12-.47-.18-.74-.18s-.52.06-.74.18c-.22.12-.4.31-.54.55-.13.25-.2.55-.2.9s.07.67.2.91c.13.25.31.43.53.55.22.12.46.18.73.18s.51-.06.74-.19Z"/>
      <path class="cls-3" d="M431.38,78.94c.18-.34.43-.61.76-.8.32-.19.68-.28,1.08-.28.34,0,.67.08.96.24.3.16.52.37.68.63v-2.34h.74v5.98h-.74v-.83c-.15.26-.36.48-.65.65-.29.17-.62.25-1,.25s-.75-.1-1.07-.29c-.32-.19-.57-.47-.76-.82-.18-.35-.27-.75-.27-1.2s.09-.85.27-1.19ZM434.66,79.26c-.13-.25-.32-.44-.55-.57-.23-.13-.48-.2-.76-.2s-.53.06-.75.19c-.23.13-.41.32-.54.57-.13.25-.2.54-.2.87s.07.63.2.88c.13.25.32.44.54.57.23.13.48.2.75.2s.53-.07.76-.2c.23-.13.41-.32.55-.57.13-.25.2-.54.2-.88s-.07-.62-.2-.87Z"/>
      <path class="cls-3" d="M440.86,80.42h-3.54c.03.44.18.78.45,1.02.27.25.6.37.99.37.32,0,.58-.07.8-.22.21-.15.36-.35.45-.59h.79c-.12.43-.36.77-.71,1.04-.36.27-.8.4-1.33.4-.42,0-.8-.09-1.13-.28-.33-.19-.59-.46-.78-.8-.19-.35-.28-.75-.28-1.21s.09-.86.27-1.2c.18-.34.44-.61.77-.8.33-.19.71-.28,1.14-.28s.79.09,1.11.27c.32.18.57.44.75.76.18.32.26.68.26,1.09,0,.14,0,.29-.02.44ZM439.94,79.1c-.12-.2-.29-.36-.5-.46-.21-.1-.45-.16-.71-.16-.37,0-.69.12-.95.36-.26.24-.41.57-.45.99h2.8c0-.28-.06-.52-.19-.72Z"/>
      <path class="cls-3" d="M447.48,78.34c.33.33.5.8.5,1.41v2.61h-.73v-2.5c0-.44-.11-.78-.33-1.01-.22-.23-.52-.35-.9-.35s-.7.12-.93.36c-.23.24-.34.6-.34,1.06v2.45h-.74v-4.43h.74v.63c.15-.23.34-.4.59-.53.25-.12.53-.19.83-.19.54,0,.97.16,1.31.49Z"/>
      <path class="cls-3" d="M453.11,77.93v4.43h-.74v-.65c-.14.23-.34.4-.59.53-.25.13-.53.19-.83.19-.34,0-.65-.07-.93-.21s-.49-.36-.65-.64c-.16-.29-.24-.63-.24-1.04v-2.59h.73v2.5c0,.44.11.77.33,1.01.22.23.52.35.9.35s.7-.12.93-.36c.23-.24.34-.6.34-1.06v-2.43h.74Z"/>
      <path class="cls-3" d="M458.37,80.42h-3.54c.03.44.18.78.45,1.02.27.25.6.37.99.37.32,0,.58-.07.8-.22.21-.15.36-.35.45-.59h.79c-.12.43-.36.77-.71,1.04-.36.27-.8.4-1.33.4-.42,0-.8-.09-1.13-.28-.33-.19-.59-.46-.78-.8-.19-.35-.28-.75-.28-1.21s.09-.86.27-1.2c.18-.34.44-.61.77-.8.33-.19.71-.28,1.14-.28s.79.09,1.11.27c.32.18.57.44.75.76.18.32.26.68.26,1.09,0,.14,0,.29-.02.44ZM457.45,79.1c-.12-.2-.29-.36-.5-.46-.21-.1-.45-.16-.71-.16-.37,0-.69.12-.95.36-.26.24-.41.57-.45.99h2.8c0-.28-.06-.52-.19-.72Z"/>
      <path class="cls-3" d="M460.02,82.26c-.27-.12-.48-.28-.64-.48-.16-.21-.24-.45-.26-.72h.76c.02.22.13.4.31.54.19.14.43.21.73.21.28,0,.5-.06.66-.19.16-.12.24-.28.24-.47s-.09-.34-.26-.43c-.17-.09-.44-.19-.8-.28-.33-.09-.6-.17-.8-.26-.21-.09-.39-.22-.53-.4-.15-.17-.22-.41-.22-.69,0-.23.07-.43.2-.62.13-.19.33-.34.57-.45.25-.11.53-.17.85-.17.49,0,.89.12,1.19.37.3.25.46.59.48,1.02h-.74c-.02-.23-.11-.42-.28-.56s-.4-.21-.68-.21c-.26,0-.47.06-.63.17-.16.11-.23.26-.23.44,0,.15.05.27.14.36.09.09.21.17.36.23.14.06.34.12.59.19.32.09.58.17.78.25.2.08.37.21.51.38.14.17.22.39.22.65,0,.24-.07.46-.2.65-.13.19-.32.35-.57.46-.25.11-.53.17-.84.17-.34,0-.64-.06-.91-.17Z"/>
      <path class="cls-3" d="M464.48,78.54v2.61c0,.22.05.37.14.46.09.09.25.13.48.13h.54v.62h-.66c-.41,0-.72-.09-.92-.28-.2-.19-.31-.5-.31-.93v-2.61h-.57v-.61h.57v-1.11h.74v1.11h1.16v.61h-1.16Z"/>
      <path class="cls-3" d="M467.81,78.06c.24-.14.53-.21.88-.21v.76h-.19c-.82,0-1.24.45-1.24,1.34v2.41h-.74v-4.43h.74v.72c.13-.25.31-.45.55-.59Z"/>
      <path class="cls-3" d="M470.34,82.15c-.34-.19-.6-.46-.79-.8-.19-.35-.29-.75-.29-1.21s.1-.85.29-1.2c.2-.35.46-.61.8-.8.34-.19.72-.28,1.14-.28s.8.09,1.14.28c.34.19.61.45.8.8.2.34.29.75.29,1.2s-.1.86-.3,1.21-.48.62-.82.8c-.34.19-.73.28-1.15.28s-.79-.09-1.13-.28ZM472.21,81.6c.23-.12.42-.31.56-.56.14-.25.21-.55.21-.9s-.07-.66-.21-.9c-.14-.25-.32-.43-.55-.55-.23-.12-.47-.18-.74-.18s-.52.06-.74.18c-.22.12-.4.31-.54.55-.13.25-.2.55-.2.9s.07.67.2.91c.13.25.31.43.53.55.22.12.46.18.73.18s.51-.06.74-.19Z"/>
      <path class="cls-3" d="M475.36,82.26c-.27-.12-.48-.28-.64-.48-.16-.21-.24-.45-.26-.72h.76c.02.22.13.4.31.54.19.14.43.21.73.21.28,0,.5-.06.66-.19.16-.12.24-.28.24-.47s-.09-.34-.26-.43c-.17-.09-.44-.19-.8-.28-.33-.09-.6-.17-.8-.26-.21-.09-.39-.22-.53-.4-.15-.17-.22-.41-.22-.69,0-.23.07-.43.2-.62.13-.19.33-.34.57-.45.25-.11.53-.17.85-.17.49,0,.89.12,1.19.37.3.25.46.59.48,1.02h-.74c-.02-.23-.11-.42-.28-.56s-.4-.21-.68-.21c-.26,0-.47.06-.63.17-.16.11-.23.26-.23.44,0,.15.05.27.14.36s.21.17.36.23c.14.06.34.12.59.19.32.09.58.17.78.25.2.08.37.21.51.38.14.17.22.39.22.65,0,.24-.07.46-.2.65-.13.19-.32.35-.57.46-.25.11-.53.17-.84.17-.34,0-.64-.06-.91-.17Z"/>
      <path class="cls-3" d="M481.74,82.26c-.27-.12-.48-.28-.64-.48-.16-.21-.24-.45-.26-.72h.76c.02.22.13.4.31.54.19.14.43.21.73.21.28,0,.5-.06.66-.19.16-.12.24-.28.24-.47s-.09-.34-.26-.43c-.17-.09-.44-.19-.8-.28-.33-.09-.6-.17-.8-.26-.21-.09-.39-.22-.53-.4-.15-.17-.22-.41-.22-.69,0-.23.07-.43.2-.62.13-.19.33-.34.57-.45.25-.11.53-.17.85-.17.49,0,.89.12,1.19.37.3.25.46.59.48,1.02h-.74c-.02-.23-.11-.42-.28-.56s-.4-.21-.68-.21c-.26,0-.47.06-.63.17-.16.11-.23.26-.23.44,0,.15.05.27.14.36s.21.17.36.23c.14.06.34.12.59.19.32.09.58.17.78.25.2.08.37.21.51.38.14.17.22.39.22.65,0,.24-.07.46-.2.65-.13.19-.32.35-.57.46-.25.11-.53.17-.84.17-.34,0-.64-.06-.91-.17Z"/>
      <path class="cls-3" d="M489.23,77.93v4.43h-.74v-.65c-.14.23-.34.4-.59.53-.25.13-.53.19-.83.19-.34,0-.65-.07-.93-.21s-.49-.36-.65-.64-.24-.63-.24-1.04v-2.59h.73v2.5c0,.44.11.77.33,1.01.22.23.52.35.9.35s.7-.12.93-.36c.23-.24.34-.6.34-1.06v-2.43h.74Z"/>
      <path class="cls-3" d="M494.49,80.42h-3.54c.03.44.18.78.45,1.02.27.25.6.37.99.37.32,0,.58-.07.8-.22.21-.15.36-.35.45-.59h.79c-.12.43-.36.77-.71,1.04-.36.27-.8.4-1.33.4-.42,0-.8-.09-1.13-.28-.33-.19-.59-.46-.78-.8-.19-.35-.28-.75-.28-1.21s.09-.86.27-1.2c.18-.34.44-.61.77-.8.33-.19.71-.28,1.14-.28s.79.09,1.12.27c.32.18.57.44.75.76.18.32.26.68.26,1.09,0,.14,0,.29-.02.44ZM493.56,79.1c-.12-.2-.29-.36-.5-.46-.21-.1-.45-.16-.71-.16-.37,0-.69.12-.95.36-.26.24-.41.57-.45.99h2.8c0-.28-.06-.52-.19-.72Z"/>
      <path class="cls-3" d="M498.95,78.34c.33.33.5.8.5,1.41v2.61h-.73v-2.5c0-.44-.11-.78-.33-1.01-.22-.23-.52-.35-.9-.35s-.7.12-.93.36c-.23.24-.34.6-.34,1.06v2.45h-.74v-4.43h.74v.63c.15-.23.34-.4.59-.53.25-.12.53-.19.83-.19.54,0,.97.16,1.31.49ZM496.54,76.82c.14-.15.32-.22.54-.22.1,0,.19.02.26.05.07.04.16.08.26.15.08.05.14.1.2.13s.12.04.19.04c.09,0,.17-.03.23-.09.06-.06.1-.15.12-.26h.42c-.03.27-.12.48-.27.62-.15.15-.33.22-.54.22-.1,0-.19-.02-.27-.05-.08-.03-.17-.09-.26-.16-.09-.05-.15-.09-.21-.12-.05-.03-.11-.04-.18-.04-.09,0-.17.03-.23.09-.06.06-.1.15-.12.27h-.43c.04-.27.13-.48.27-.63Z"/>
      <path class="cls-3" d="M501.45,82.15c-.34-.19-.6-.46-.79-.8-.19-.35-.29-.75-.29-1.21s.1-.85.29-1.2c.2-.35.46-.61.8-.8s.72-.28,1.14-.28.8.09,1.14.28c.34.19.61.45.8.8.2.34.29.75.29,1.2s-.1.86-.3,1.21-.48.62-.82.8c-.34.19-.73.28-1.15.28s-.79-.09-1.13-.28ZM503.32,81.6c.23-.12.42-.31.56-.56.14-.25.21-.55.21-.9s-.07-.66-.21-.9c-.14-.25-.32-.43-.55-.55-.23-.12-.47-.18-.74-.18s-.52.06-.74.18c-.22.12-.4.31-.54.55-.13.25-.2.55-.2.9s.07.67.2.91c.13.25.31.43.53.55.22.12.46.18.73.18s.51-.06.74-.19Z"/>
      <path class="cls-3" d="M506.48,82.26c-.27-.12-.48-.28-.64-.48-.16-.21-.24-.45-.26-.72h.76c.02.22.13.4.31.54.19.14.43.21.73.21.28,0,.5-.06.66-.19.16-.12.24-.28.24-.47s-.09-.34-.26-.43c-.17-.09-.44-.19-.8-.28-.33-.09-.6-.17-.8-.26-.21-.09-.39-.22-.53-.4-.15-.17-.22-.41-.22-.69,0-.23.07-.43.2-.62.13-.19.33-.34.57-.45.25-.11.53-.17.85-.17.49,0,.89.12,1.19.37.3.25.46.59.48,1.02h-.74c-.02-.23-.11-.42-.28-.56s-.4-.21-.68-.21c-.26,0-.47.06-.63.17-.16.11-.23.26-.23.44,0,.15.05.27.14.36s.21.17.36.23c.14.06.34.12.59.19.32.09.58.17.78.25.2.08.37.21.51.38.14.17.22.39.22.65,0,.24-.07.46-.2.65-.13.19-.32.35-.57.46-.25.11-.53.17-.84.17-.34,0-.64-.06-.91-.17Z"/>
      <path class="cls-3" d="M449.16,41.19s2.19,3.47,7.92,1.21c5.73-2.26,16.89-7.99,16.89-7.99,0,0,.19-.05.16.4s.24,1.9,2.17,3.21,3.65,2.19,5.71,1.9c2.06-.29,7.55-2.67,10.12-2.67s4.47.75,5.58,1.54,3.14,2.09,10.9,1.71c0,0,.76.04,1.15-.46s1.07-2.83-1.03-2.6c-2.1.23-7.76.69-10.82-.76-3.06-1.45-5.24-3.02-9.75-1.84-4.51,1.19-8.07,3.63-10.78,1.99,0,0-1.41-1.26.42-3.44,0,0,.27-.27.15-.65s-1.91-2.75-2.03-2.83-.57.19-.88.34-9.58,6.04-20.53,9.94c0,0-2.37,1.45-5.34-.54,0,0-1.08-.47,0,1.54Z"/>
      <path class="cls-3" d="M399.74,49.46s.02.44.57-.82c.55-1.26,1.58-3.11,4.18-3.4,2.6-.3,29.37-2.56,47.53-10.83,18.17-8.27,22.84-11.33,27.76-13.69s11.51,1.57,14.96,3.25c3.44,1.67,14.25,8.53,28.44,14.64s25.33,7.25,27.18,7.3,2.88-.92,3.18.05-.9,5.44-8.55,4.71c-7.65-.73-22.98-4.79-43.6-16.35-20.62-11.56-21.41-9.11-26.06-6.28-4.65,2.83-23.8,15.71-56.28,20.4,0,0-10.68,1.82-17.46,2.28,0,0-1.64.1-1.85-1.25Z"/>
      <rect class="cls-3" x="536.68" y="76.07" width="17.43" height="3.72"/>
      <path class="cls-3" d="M526.76,74.46c-.67,0-1.31.1-1.93.31-.61.2-1.17.45-1.66.75-.49.3-.98.59-1.46.89-.48.3-1.02.55-1.61.75-.59.2-1.21.31-1.84.31-.57,0-1.06-.18-1.46-.54-.4-.36-.61-.83-.61-1.43,0-.42.09-.79.27-1.09.18-.31.41-.55.68-.72,0,0-2.55.99-2.4,4.12.09,1.76,1.24,3.02,2.58,3.8.29.03.59.05.9.05,1.04,0,2.04-.15,3.01-.44.97-.3,1.75-.62,2.33-.97.58-.35,1.15-.68,1.72-.97.56-.3,1-.44,1.31-.44.34,0,.51.31.51.94h4.37c0-1.67-.36-2.98-1.08-3.91-.72-.93-1.93-1.4-3.64-1.4Z"/>
      <path class="cls-3" d="M548.77,55.44v.92c-1.56-1.16-3.33-1.74-5.33-1.74-2.5,0-4.64.88-6.41,2.65-1.77,1.77-2.65,3.9-2.65,6.39s.88,4.64,2.65,6.41c1.77,1.77,3.91,2.65,6.41,2.65,1.99,0,3.77-.58,5.33-1.74v1.43h3.74v-16.98h-3.74ZM548.77,64.15c-.15,1.4-.72,2.56-1.72,3.49-1,.93-2.2,1.39-3.6,1.39-1.48,0-2.74-.52-3.79-1.57-1.05-1.05-1.57-2.31-1.57-3.79s.52-2.73,1.57-3.77,2.31-1.57,3.79-1.57c1.4,0,2.6.46,3.6,1.39,1,.93,1.58,2.09,1.72,3.49v.94Z"/>
    </g>
    <g class="cls-5">
      <rect class="cls-1" x="554.05" y="23.62" width="202" height="55"/>
    </g>
    <path class="cls-3" d="M614.04,60.97h-.08s-.05-.04-.08-.06c.05.02.11.04.16.06Z"/>
    <path class="cls-3" d="M751.34,52.72s-.02.01-.04.02c-.02,0-.04-.02-.06-.03.04,0,.07,0,.1,0Z"/>
    <g>
      <path class="cls-3" d="M612.43,46.61c-.51.28-1.07.29-1.62.26-.58-.03-.95.19-1.31.66-2.46,3.32-4.9,6.66-7.38,9.96-.58.78-.67.8-1.46.4-.13-.08-.25-.18-.36-.29-1.09-1.08-1.34-1.09-2.6-.3-1.36.86-2.79,1.59-4.16,2.44-.55.34-1.14.29-1.73.08-.73-.26-1.47-.48-2.22-.62-.11-.02-.22-.04-.33-.06-.07-.03-.12-.07-.17-.12-.01-.01-.02-.02-.03-.03-.16-.36-.07-.66.17-.95.15-.12.32-.16.5-.17.94-.04,1.68-.54,2.43-1.04.32-.12.66-.17.98-.29.17-.06.33-.13.51-.18.29-.05.6-.06.83-.29.17-.16.37-.28.48-.49.02-.91.01-.91-.85-.97-.14-.01-.25-.07-.32-.19-.06-.11.06-.21,0-.32-.02.04-.04.08-.07.12-.04,1.44-1.42,1.89-3.09,2.16-.37-.04-.56-.24-.54-.62.17-.72-.06-1.48.25-2.19.34-.52.33-1.05.08-1.6-.1-.23-.21-.47-.16-.73.01-.05.03-.11.04-.16.06-.32.08-.65-.04-.96-.02-.06-.05-.11-.08-.17.16-.89.63-1.54,1.46-1.93.48-.84.06-1.67-.03-2.51-.66-1.27-2.18-1.34-2.96-.14-.12.49-.14.98.04,1.46.11.32.24.65.02.97-.4.31-.86.32-1.33.32-.48-.04-.91.09-1.32.35-.59.37-1.23.67-1.9.87-.66.19-1.23.55-1.69,1.05-.19.3,0,.56.08.84.06.17.12.34.17.51.3,1.33,1.01,2.45,1.83,3.5.78,1,.88,1.41.3,2.43-.03.05-.06.1-.09.15-.08.09-.18.15-.31.15-.03-.02-.06-.04-.09-.05-.91-.5-1.61-.18-2.31.54-1.05,1.08-2.15,2.11-3.29,3.09-.79.67-.83.63-1.68.09-.59-.38-1.07-.9-1.63-1.32-.37-.28-.72-.32-1.16-.16-2.4.91-4.85,1.7-7.25,2.63-.93.36-1.93.61-2.86,1-.28.13-.58.14-.87.2h-.76c.65-.97,1.64-1.54,2.44-2.3,1.26-1.19,2.62-2.26,3.94-3.39,2.63-2.25,5.26-4.5,7.88-6.77,1.8-1.56,3.56-3.17,5.36-4.73,2.18-1.9,4.39-3.77,6.59-5.66,1.09-.95,2.18-1.9,3.26-2.87.22-.2.47-.19.73-.19,1.51,0,3.03-.08,4.53.02,1.61.11,3.1-.22,4.52-.9.44-.21.71-.14,1.07.2,2.88,2.75,5.79,5.47,8.69,8.21.32.3.6.65.89.98Z"/>
      <path class="cls-3" d="M755.55,61.54c0-.07-.04-.15-.1-.23-.28-.06-.56-.02-.85-.03-1.31-.04-2.63.07-3.94-.06-.92.6-1.6,1.45-2.35,2.23-.79.82-.78.81-1.36-.19-.4-.7-.63-1.53-1.31-2.05-1.36.17-2.72.03-4.08.08-.27.01-.58-.11-.76.22.05.12.09.23.14.35.11.45.33.84.56,1.24.65,1.11,1.34,2.2,2.02,3.29.26.42.31.8.09,1.22-1.69,1.62-3.38,3.24-5.1,4.89-.07-.16-.12-.26-.15-.35-.82-2.97-1.6-5.95-2.46-8.9-.2-.69-.17-1.48-.75-2.04-1.51.14-3.02.14-4.53,0-.81.49-1.16,1.36-1.7,2.06-1.48,1.89-2.9,3.84-4.33,5.77-1.03,1.39-2.02,2.8-3.03,4.2.04.08.08.14.13.19.07.07.15.11.24.14h0c.18.05.38.03.57.04,1.24.02,2.48-.02,3.72.03.07.01.14.02.21,0,.02,0,.04,0,.06-.01.02-.01.04-.03.06-.05.47-.37.7-.94,1.06-1.39.03-.03.05-.07.08-.1.03-.04.06-.08.09-.12.27-.32.64-.39,1.06-.39,1.17,0,2.33,0,3.5,0,.56,0,.81.04.93.29.03.06.06.15.07.24h0c.02.1.03.21.04.34,0,.05,0,.1.01.15,0,0,0,.01,0,.01.02.33.13.62.38.86,0,0,0,0,.01.01.04.02.08.04.13.06.05.02.09.03.14.04,2.94.07,5.87,0,8.81.04.45.09.72-.19,1.01-.45.67-.6,1.21-1.33,1.9-1.92.59-.5.58-.51.94.19,0,.02.02.05.03.07.01.04.03.08.05.12.08.2.18.4.28.59.05.1.1.19.15.29,0,0,0,.01,0,.02.12.2.27.39.41.57.01.02.03.04.04.05.05.06.1.12.16.17.15.14.32.24.55.26,1.32.04,2.63.02,3.95.01.13,0,.26,0,.39-.02.01,0,.02,0,.03,0,.03,0,.05,0,.07-.02h0c.09-.03.17-.07.24-.15.05-.05.09-.11.12-.18-.11-.2-.21-.41-.33-.61-.89-1.46-1.78-2.91-2.67-4.36-.06-.12-.02-.25-.07-.37,0-.01-.01-.03-.02-.04,0,0,0-.01-.01-.01-.35-.47.03-.74.32-1.02,1.56-1.45,3.07-2.96,4.66-4.38.03-.03.06-.05.09-.08.01-.01.03-.02.05-.04.07-.26.37-.46.36-.74,0,0,0-.02,0-.03ZM732,68.39c-.64-.04-1.29,0-2.11,0,.73-1.1,1.39-2.09,2.09-3.16.18.58.34,1.07.35,1.6.06.26.11.52.16.78.34.58.2.83-.5.79Z"/>
      <path class="cls-3" d="M637.49,63.53c-2.46,2.04-5.39,2.68-8.48,2.78-2.16.07-4.26-.35-6.22-1.2-2-.87-3.52-2.34-4.36-4.42-.4-1.48-.42-2.97-.18-4.48.24-.91.55-1.79.94-2.65,2.47-4.02,6.23-5.7,10.8-5.93.83.11,1.66.11,2.5,0,2.66.16,5.16.71,7.07,2.78.24.26.68.48.28.94-.1.07-.2.14-.29.21-.32.1-.6.28-.88.48-1.05.76-2.12,1.48-3.23,2.15-.35.22-.49.17-.74-.11-.58-.63-1.23-1.13-2.1-1.4-2.8-.85-6.39.38-7.2,3.66-.2.9-.33,1.8.05,2.69.43,1.44,1.62,2,2.9,2.28,2.02.42,3.81-.22,5.31-1.58.45-.41.64-.34,1.04,0,1.01.89,2.06,1.72,3.11,2.57.26.21.47.42.16.75l-.46.48Z"/>
      <path class="cls-3" d="M621.31,65.63h0s0-.02-.01-.04c0,0-.01-.01-.02-.02-.07-.05-.16-.08-.25-.07,0,0-.01,0-.02.01-.02.01-.04.02-.06.03-.09.04-.17.06-.26.07.06-.07.1-.13.11-.18h0s0-.04,0-.06c-.01,0-.02-.01-.03-.02-.65-.31-1.14-.81-1.6-1.34-1.47-1.33-2.26-2.99-2.36-4.96-.27-1.73.09-3.37.72-4.97.25-.64.55-1.27,1.01-1.8.09-.25.03-.49-.01-.74-.42-1.13-.54-2.34-1.07-3.44-.16.13-.35.07-.53.07h-1.18c.57,0,1.13-.03,1.7-.07-.21-.24-.48-.11-.72-.11-1.58-.03-3.16-.03-4.74-.04-.43-.34-.92-.22-1.39-.16-.25.07-.38.25-.52.45-2.03,2.89-4.2,5.67-6.29,8.52-.68.93-1.49,1.79-1.97,2.86-.51.96-1.24,1.78-1.89,2.64-.81,1.07-1.52,2.21-2.44,3.19-.26.27-.12.45.15.59,2.2.15,4.4.06,6.6.05.13,0,.25-.05.36-.13.08-.07.09-.15.03-.22.25.05.42-.13.57-.34.42-.59.85-1.17,1.25-1.77.14-.27.25-.55.43-.79.01-.01.02-.02.03-.03.03-.03.06-.05.1-.07.02-.01.04-.02.06-.03,2.45-.04,4.89-.09,7.34.02,0,0,.01,0,.02.01h0s.05.04.07.06c.03.03.05.06.06.1.09.39.19.78.26,1.18.23.65.11,1.43.72,1.94.53.15,1.08.08,1.62.08,1.19,0,2.38.02,3.56-.01.15,0,.36.02.49-.05h0c.1-.06.15-.17.09-.41ZM598.05,65.65h3.26c-1.09,0-2.17.02-3.26,0ZM602.64,65.65h1.78s.06.04.1.05c-.63-.03-1.25-.05-1.88-.05ZM620.04,65.66c-.39,0-.78,0-1.17,0,.61,0,1.21,0,1.81-.03-.21.04-.43.03-.65.03ZM611.86,48.16h.02c.74,0,1.47,0,2.2.01h-2.93c.24,0,.47-.01.71-.01ZM609.95,57.93h0c.86-1.32,1.72-2.63,2.65-4.06.31.73.39,1.38.5,2.02.16.71.32,1.43.47,2.14.19.33-.04.34-.26.34-1.08,0-2.16,0-3.24,0-.49,0-.38-.21-.13-.44ZM616.85,65.65c-.26,0-.52,0-.77,0-.05,0-.06.02-.05.06.04.1-.09-.07-.03-.07.26,0,.51,0,.77,0h.01c.65,0,1.3,0,1.94,0-.62,0-1.24,0-1.87,0h0Z"/>
      <path class="cls-3" d="M665.61,57.04s.04-.02.05-.03c.11-.09.09-.21,0-.33-.88-2.71-1.48-5.5-2.41-8.2-.6-1.74-1.01-3.54-1.49-5.32-.12-.43-.31-.63-.8-.61-1.51.04-3.02.02-4.54,0-.34,0-.57.09-.79.38-1.65,2.22-3.33,4.43-4.98,6.65-1.79,2.41-3.56,4.83-5.34,7.25.22.45.65.36,1.02.37,1.53.02,3.05-.01,4.58.02.07,0,.13,0,.18,0,.01,0,.03,0,.04,0,.36-.08.49-.45.69-.72.4-.54.63-1.21,1.26-1.56,1.41-.16,2.83-.05,4.25-.06.51,0,1.03-.12,1.53.1.25.3.42.63.53.98.03.1.06.2.08.31h0c.03.14.05.28.06.43.01.08.04.16.07.24.03.08.06.16.1.23.04.06.08.12.13.17.05.05.11.09.19.12.04,0,.09,0,.13,0,0,0,0,0,0,0t0,0s.03,0,.05,0c.01,0,.03,0,.05,0,1.61.08,3.22.11,4.83,0,.02,0,.04,0,.06,0,.02,0,.05,0,.08,0,0,0,0,0,0,0,.09,0,.17-.01.25-.02.11-.08.26-.15.14-.31,0-.01-.01-.02-.02-.03h-.01c-.61,0-1.22-.01-1.83-.02.61,0,1.21,0,1.82-.02,0,0,0,0,0,0ZM658.31,51.05c-.9.01-1.79.02-2.68.03-.12,0-.27.02-.26-.18.7-1.14,1.42-2.26,2.28-3.38.22.54.31,1.02.34,1.51.14.67.59,1.29.31,2.03ZM660.29,57.13s-.02,0-.02,0c-.02.01-.02.03,0,.06.03.08-.04,0-.01-.06,0-.01.02-.03.04-.04.36-.01.72-.02,1.07-.02-.35.01-.71.03-1.06.05ZM656.02,50.92s.04-.02.05-.03c-.03,0-.07,0-.11,0,.02,0,.04.01.06.02Z"/>
      <path class="cls-3" d="M744.35,56.37c-1.23-4.45-2.47-8.89-3.68-13.34-.12-.45-.36-.48-.73-.48-1.51.01-3.02.01-4.53,0-.37,0-.62.09-.85.4-1.32,1.78-2.68,3.55-4,5.33-2.14,2.89-4.27,5.78-6.4,8.67.28.32.66.24,1.01.24,1.57.03,3.13-.03,4.7.03h.02s.06,0,.09,0c.31-.03.47-.28.64-.5.29-.37.53-.77.79-1.16.33-.51.76-.72,1.37-.71,1.43.03,2.86,0,4.3.01.85,0,.96.04,1.16.77h0c.01.06.03.12.05.19,0,.01.01.03.01.04.09.24.13.49.2.73.04.16.1.31.19.45.02.03.04.06.06.08,0,0,0,0,0,0h0c.05.04.11.06.18.06.03,0,.05,0,.07,0,.09,0,.19,0,.28,0,1.4-.01,2.8,0,4.2-.01.38,0,.81.03.88-.51,0-.1.01-.21-.01-.31ZM737.35,50.9c-.16.36-.49.17-.73.18-.77.02-1.54-.01-2.31-.03-.02,0-.05-.04-.05-.06.01-.04.04-.08.06-.12.73-1.11,1.46-2.22,2.32-3.52.1.6.17.98.23,1.36.06.25.12.5.18.75.17.24.16.52.17.8.15.19.15.41.13.63Z"/>
      <path class="cls-3" d="M712.28,43.91c-.01.08-.04.16-.06.25,0,.02-.01.04-.02.06-.06.25-.12.51-.18.76-.02.1-.04.2-.07.3-.04.18-.08.36-.13.53-.01.05-.03.1-.05.15-.18.52-.57.65-1.1.65-2.05,0-4.09,0-6.14,0-1.08,0-1.13.03-1.34,1.05,0,.03-.01.05-.02.08.01.04.02.07.04.1.01.02.03.05.05.07.01.01.03.03.04.04,1.72.18,3.43.03,5.15.08.39.01.78-.06,1.17.04.03,0,.07.02.1.03t0,0s.06.02.09.04c.03.01.06.03.09.04.11.1.12.22.07.34-.01.02-.02.04-.03.06,0,.14-.02.28-.03.42.06.82-.25,1.57-.41,2.35-.07.31-.26.49-.57.54,0,0,0,0-.01,0-.08,0-.16,0-.24.01-1.77.08-3.53,0-5.3.03-.36,0-.73-.02-1.08.09-.02,0-.05.02-.08.03-.03.04-.06.09-.09.13-.23.4-.27.84-.23,1.3.12.03.24.06.36.07.5.07,1,0,1.5,0,1.79.02,3.58,0,5.37,0,.26,0,.52-.01.68.15.07.07.13.17.15.33l-.04.59c0,.64-.14,1.26-.29,1.87-.07.3-.1.66-.51.71-.01,0-.03,0-.05,0-4.26,0-8.52,0-12.77,0-.39,0-.78.06-1.15-.12-.02-.01-.03-.02-.04-.04-.06-.05-.08-.13-.06-.22.53-2.24,1.08-4.48,1.6-6.72.54-2.29,1.07-4.59,1.59-6.89.1-.45.28-.68.82-.67,4.19.03,8.38.01,12.57.01.36,0,.77-.07.64.52,0,.04,0,.07,0,.11.04.24.01.47-.03.7Z"/>
      <path class="cls-3" d="M762.52,43.97c-.09.29-.18.59-.33.86-.02.03-.04.06-.05.1-.11.19-.23.38-.34.57,0,.01-.01.02-.02.04-.03.06-.07.12-.1.18,0,.01-.01.02-.02.04-.03.06-.07.12-.11.17-.06.1-.12.2-.17.29-.02.04-.05.08-.07.11-.01.02-.02.04-.03.05-.03.05-.05.09-.08.13,0,0-.01.01-.01.02-.04.07-.08.14-.13.2-.06.09-.13.17-.22.24-.01,0-.02.01-.04.02-.01,0-.02.02-.04.02-.54.16-1-.16-1.48-.28-.8-.2-1.6-.4-2.42-.46-.5-.01-.99,0-1.49,0-.53-.02-1.01.12-1.44.41-.03.02-.06.04-.09.06-.02.03-.04.06-.06.09-.12.23.03.38.2.52.01,0,.02.02.03.03,0,0,0,.01.01.02.12.21.36.27.54.41,1.26.25,2.55.38,3.75.88.69.28,1.44.4,2.04.89,1.21.97,1.52,2.21,1.13,3.67.1,1.07-.63,1.7-1.26,2.39,0,0,0,0-.01.01-.16.12-.32.23-.48.34-3.05,2.07-6.48,2.09-10.01,1.59-.96-.14-1.88-.43-2.81-.65,0,0-.01,0-.02,0-.12-.02-.24-.04-.36-.06-.22-.04-.42-.11-.55-.34-.39-.35-.37-.67-.06-1.1.58-.82,1.11-1.68,1.61-2.56.22-.39.4-.3.73-.18,1.85.69,3.73,1.3,5.75,1.16.27-.02.43-.07,1-.2.04,0,.53-.51.51-.63,0-.04-.02-.09-.05-.14-.01-.03-.03-.07-.06-.1-.75-.55-1.64-.68-2.5-.82-1.33-.2-2.55-.69-3.75-1.28-.04,0-.07-.02-.1-.03-.04-.01-.08-.02-.12-.04-.34-.13-.58-.37-.78-.65-.08-.11-.16-.24-.23-.36-.03-.05-.06-.1-.09-.15-.4-.79-.25-1.61-.16-2.43.7-2.96,3.01-3.96,5.62-4.51,2.67-.56,5.32-.4,7.93.44.32.1.65.17.97.26.44.12.56.39.33.79Z"/>
      <path class="cls-3" d="M677.71,65.27c-.23-.43-.29-.91-.55-1.35-1.26-2.1-3.3-2.75-5.55-3.02-.78.1-1.56.1-2.34,0-3.91.34-7.73,2.47-8.15,6.86-.04.87-.36,1.75.11,2.61.07.11.14.22.2.34.05.09.11.19.16.28.14.23.29.46.5.63.02.02.05.04.07.06h0c.77.96,1.85,1.45,2.96,1.8,3.86,1.22,7.45.72,10.62-1.93.02-.02.04-.04.06-.06.65-.58,1.1-1.29,1.47-2.05.1-.2.19-.41.28-.62.06-.15.12-.3.19-.45.22-1.03.12-2.06-.04-3.09ZM672.73,67.46c-.43,2.21-2.05,3.13-4.24,2.89-.98-.1-1.76-.43-2.06-1.46-.52-1.25-.13-2.38.63-3.33.88-1.1,2.12-1.55,3.56-1.32,1.73.28,2.55,1.52,2.11,3.21Z"/>
      <path class="cls-3" d="M697.15,67.16l-.05-.05s.03.04.05.05h0s0,0,0,0ZM697.15,67.16l-.05-.05s.03.04.05.05h0s0,0,0,0ZM697.15,67.16l-.05-.05s.03.04.05.05h0s0,0,0,0ZM697.15,67.16l-.05-.05s.03.04.05.05h0s0,0,0,0ZM708.54,66.98c0-1.07-.11-2.11-.68-3.07-1.26-2.11-3.31-2.75-5.57-3.01-.78.11-1.56.1-2.34,0-2.43.27-4.63.98-6.31,2.92-1,1.15-1.44,2.49-1.67,3.94-.19,1.35.05,2.6.91,3.7.04.05.08.11.12.16.07.09.14.17.22.25.74.8,1.72,1.24,2.71,1.66,1.36.57,2.79.59,4.22.51,2.83-.16,5.26-1.12,7.05-3.31.12-.15.24-.3.35-.46.02-.03.04-.06.06-.09.04-.07.08-.14.11-.21.02-.06.05-.12.08-.18.03-.07.06-.13.09-.2.05-.11.11-.22.17-.32.2-.44.35-.89.46-1.35.01-.1.01-.19.01-.29,0-.08,0-.16,0-.23,0-.08.01-.16.03-.24,0,0,.01-.01.01-.04,0,0,0-.02,0-.04,0-.04-.02-.09-.06-.12ZM703.41,67.64c-.02.17-.01.35-.16.48-.92,2.46-3.01,2.52-5.07,2.03-.45-.11-.82-.54-.93-1.08-.05-.07-.09-.15-.13-.22-.03-.05-.05-.1-.06-.15-.19-.52-.14-1.05.04-1.58.17-1.44,1.12-2.29,2.37-2.71,1.24-.42,2.53-.39,3.53.7.7.76.69,1.62.41,2.53ZM697.16,67.16s0,0,0,0l-.05-.05s.03.04.05.05h0ZM697.15,67.16l-.05-.05s.03.04.05.05h0s0,0,0,0ZM697.15,67.16l-.05-.05s.03.04.05.05h0s0,0,0,0Z"/>
      <path class="cls-3" d="M681.22,42.56c-4.86,0-9.72.01-14.57,0-.46,0-.64.15-.74.57-.21.93-.46,1.85-.7,2.78-.16.29-.11.47.24.57.3.09.6.13.91.14.85,0,1.7.01,2.56,0,.54,0,.93.09.83.77-.03.19.15.39.01.6-.16.73-.3,1.46-.47,2.19-.51,2.18-1.04,4.35-1.56,6.53-.13.24-.16.47.04.7.09.05.19.1.29.11,1.58.06,3.17.04,4.76.01.1,0,.21,0,.3-.04,0,0,0,0,0,0t0,0s0,0,0,0c.06-.02.11-.06.15-.11.03-.04.06-.1.07-.17,0,0-.01,0-.02-.01,0,0-.01,0-.02-.01-.04-.02-.08-.04-.12-.06.03,0,.05,0,.08,0,.02.02.03.04.05.05,0,0,0,0,.01,0,0,0,0,0,0,0,.04.02.08.04.12.03.01,0,.02,0,.03,0,0,0,.01,0,.02,0,.27-.25.32-.59.39-.91.67-2.98,1.36-5.96,2.05-8.94,0-.02.01-.05.02-.07.01-.04.02-.07.03-.11.03-.12.05-.24.11-.34.04-.06.08-.11.15-.15,0,0,.01,0,.02,0,1.24-.11,2.49-.03,3.73-.05,1.05-.02,1.14-.11,1.42-1.15.2-.77.27-1.57.36-2.36.12-.51-.18-.53-.57-.52ZM672.56,57.07s-.08,0-.12,0c-.55,0-1.09,0-1.6,0,.54,0,1.12-.01,1.72,0Z"/>
      <path class="cls-3" d="M729.5,43.36c.03.97-.24,1.88-.51,2.79-.03.06-.07.12-.11.16-.1.11-.22.18-.36.22h0c-.16.05-.35.05-.53.05-.9,0-1.81.02-2.71,0-.19,0-.38,0-.57-.01-.23,0-.43.02-.58.1,0,0,0,0-.01,0-.05.03-.1.06-.15.11-.1.1-.17.25-.2.44,0,0,0,.01,0,.02-.01.05-.03.11-.04.16-.69,2.81-1.28,5.65-1.97,8.46-.13.52-.1,1.11-.56,1.51-.02.02-.03.03-.05.04-.03,0-.06,0-.09,0-1.72.16-3.43.22-5.14,0-.12-.01-.24-.03-.36-.05-.01,0-.03,0-.04,0,0,0,0,0-.01,0-.01-.01-.03-.03-.04-.04-.08-.1-.11-.2-.09-.3h0c.01-.07.04-.14.09-.2.66-2.47,1.26-4.95,1.72-7.46.11-.16.03-.33.05-.5.06-.24.08-.47.12-.71.01-.07.03-.14.05-.21,0-.04.01-.09.02-.13.01-.07.03-.13.04-.2.06-.28.13-.56.1-.86,0,0-.01-.02-.02-.02-.21-.27-.51-.15-.77-.15-1.02-.02-2.03,0-3.05-.01-.09,0-.17,0-.26,0-.06,0-.12,0-.18-.01-.12-.02-.23-.07-.32-.17-.03-.04-.06-.09-.09-.14,0-.01-.01-.02-.01-.03h0c-.02-.47.18-.9.22-1.35,0-.03.01-.06.02-.1,0-.05.02-.1.04-.14.01-.05.03-.11.05-.16.11-.36.33-.68.41-1.06.12-.78.61-.87,1.32-.87,4.63.04,9.25.03,13.87,0,.66,0,.97.1.74.81Z"/>
      <path class="cls-3" d="M724.29,66.04s0-.04,0-.06c0-.02,0-.04,0-.06-.04-.48.08-.96-.07-1.44-.26-.64-.44-1.28-.97-1.81-1.23-1.22-2.77-1.38-4.35-1.47-.77.16-1.54.04-2.31.07-1.63.05-3.25-.09-4.88.07-.2.29-.21.64-.29.96-.85,3.58-1.7,7.17-2.55,10.76-.07.13-.07.25.03.35.01.01.02.02.03.03.09.05.17.08.26.1h0c.24.05.48.03.73.03,1.17.02,2.34-.03,3.52.03.08.01.15,0,.23-.02.01,0,.03,0,.04-.01,0,0,0,0,0,0,.22-.17.27-.43.34-.67.05-.33.12-.66.2-.98.03-.12.06-.25.1-.37.06-.24.13-.47.19-.71.01-.04.02-.09.04-.13,0-.01.01-.03.02-.04.02-.04.04-.07.06-.1,0,0,.01-.02.02-.02.83-.13,1.67-.13,2.51,0,.03,0,.05,0,.08.01.02,0,.04,0,.05,0,.15.03.29.05.44.05.11,0,.21,0,.32,0,.04,0,.09,0,.13,0,.29-.02.58-.11.87-.14,1.97-.21,3.51-1.09,4.61-2.64.06-.09.12-.17.18-.26.06-.09.11-.18.17-.27.15-.41.29-.81.26-1.25ZM719.04,66.35c-.23.44-.57.73-1.08.81-.81.28-1.64.09-2.47.13-.37.02-.35-.2-.28-.46.18-.73.37-1.46.52-2.19.06-.27.2-.33.44-.32.62.01,1.25-.03,1.87.05,1.06.13,1.46.97.99,1.98Z"/>
      <path class="cls-3" d="M694.12,54.64c.05.91-.21,1.74-.59,2.54-.01,0-.02,0-.03.01-.02,0-.03,0-.05.01-.04,0-.07.01-.11.01-.02,0-.05,0-.07,0,0,0-.01,0-.02,0-4-.02-8.01,0-12.01-.01-.45,0-.96.1-1.28-.37,1.03-4.34,2.06-8.68,3.09-13.02.29-1.25.28-1.25,1.59-1.25h3.43q.99,0,.89.95c-.02,1.49-.51,2.89-.83,4.32-.36,1.59-.72,3.18-1.1,4.77-.14.56.02.73.6.73,1.97-.02,3.95-.01,5.92,0,.25,0,.52-.09.75.08-.06.41-.12.82-.18,1.23Z"/>
      <path class="cls-3" d="M661.12,63.51c-.07.19-.2.33-.35.44-.02.02-.05.04-.08.06,0,0-.01,0-.02.01-.75.37-1.36.96-2.08,1.39-.47.29-.89.36-1.34-.07-1.18-1.12-2.57-1.22-3.99-.59-1.2.53-1.84,1.45-2.03,2.62-.02.1-.03.2-.04.3-.02.17-.03.35-.03.52,0,.13-.01.26,0,.39.04.14,0,.3.11.42.47,1.23,1.41,1.39,3,1.36,1-.02,1.95-.28,2.64-1.12.16-.2.31-.3.57-.07.71.63,1.44,1.26,2.18,1.85.33.26.3.48.05.75-.04.15-.1.29-.2.4-.03.04-.07.08-.12.11,0,0,0,0-.01,0-3.57,2.34-7.25,2.43-10.97.44-.71-.38-1.29-.94-1.74-1.62-.08-.12-.16-.25-.24-.39-.07-.12-.13-.25-.19-.37-.45-1.03-.21-2.09-.14-3.14,0-.08.01-.16.01-.24.99-4,4.14-5.7,7.83-6.07.78.09,1.56.1,2.34,0,1.72.17,3.35.56,4.62,1.85.2.2.53.4.21.76Z"/>
      <path class="cls-3" d="M692.58,61.51c-.2.92-.06,1.9-.57,2.75-.02.02-.05.04-.07.06-.05.04-.1.07-.15.1-.24.13-.52.12-.79.13-.77.01-1.55.02-2.32,0-.61-.02-.98.18-1.1.81,0,0,0,.01,0,.02-.02.12-.05.24-.08.36-.07.3-.16.6-.2.9-.43,2-.94,3.98-1.38,5.98-.07.32-.12.67-.34.94-.02.01-.04.02-.06.03-.02.01-.04.02-.06.02-.05.01-.09.02-.14.02-1.2-.07-2.4-.01-3.59-.04-.2,0-.41.01-.6-.03t0,0c-.15-.03-.29-.1-.42-.24,0,0-.01-.02-.01-.03-.07-.12-.09-.25-.01-.38.6-2.27,1.12-4.56,1.59-6.86.04-.06.05-.12.05-.19,0-.06-.01-.12-.02-.18q-.11-1.14-1.32-1.14c-.62,0-1.24.04-1.85-.03-.28-.03-.74.06-.64-.5.39-.89.31-1.92.81-2.78.85.11,1.71.04,2.56.04,3.24.01,6.49,0,9.73,0,.28,0,.57.08.84-.08.25,0,.12.2.15.31Z"/>
      <path class="cls-3" d="M762.7,61.52c-.56,3.86-1.65,7.6-2.5,11.4-.08.15-.11.34-.19.49h0c-.04.07-.1.13-.18.17-.05.02-.11.04-.18.05-1.19-.04-2.39,0-3.58-.02-.24,0-.49.02-.73-.03-.09-.02-.18-.05-.26-.1-.01-.01-.02-.02-.03-.03-.11-.1-.1-.23-.04-.36.75-3.14,1.49-6.29,2.23-9.43.17-.72.29-1.47.58-2.16.25-.21.55-.2.86-.21,1.28-.03,2.57.1,3.85-.07.22.02.12.2.16.31Z"/>
      <path class="cls-3" d="M600.27,77.75c.05.07.06.15.03.24-.31.7-1,.81-1.62,1.03-.66.07-1.32.04-1.99.03-.89-.22-1.79.15-2.68-.03-.24-.06-.45-.17-.63-.34-.09-.08-.12-.2-.18-.3-.2-.15-.23-.39-.09-.54.49-.54.4-1.18.4-1.81-.11-.3-.02-.61-.04-.91,0-.29.04-.59-.08-.88-.03-.07-.06-.14-.08-.21-.1-.25-.14-.51-.15-.77l-.49-1.57c-.28-.87-.75-1.67-1.07-2.52-.18-.33-.18-.69-.18-1.05-.03-.61.2-1.28-.45-1.73-.79-1.06-2.09-1.42-3.09-2.2-.57-.45-.86.15-1.14.55-.85,1.39-1.8,2.71-2.77,4.02-.35.47-.71.97-1.32,1.16-.58.11-1.09-.22-1.64-.3-.16-.06-.34-.08-.49-.16-.06-.03-.12-.07-.17-.13h0s0-.02.01-.03c.05-.13.12-.21.2-.26.21-.12.5-.04.74-.11.01,0,.03,0,.04-.01.02,0,.04-.01.06-.02.08-.02.16-.04.24-.04.81.22,1.27-.19,1.74-.81,1.05-1.38,1.93-2.89,2.98-4.27.76-1.01,1.24-1.03,2.19-.24.72.6,1.6.93,2.36,1.49.99.74,1.56,1.63,1.55,2.87,0,.83.26,1.58.63,2.3.38.74.66,1.52.91,2.31.28.78.32,1.62.44,2.43.07.28.07.57.05.86,0,.08-.02.15-.04.23-.14.5-.22,1.01-.31,1.52-.04.22-.06.42.23.49.2.06.42.12.61.05.81-.31,1.63-.15,2.45-.07.23,0,.47,0,.7,0,.42,0,.84-.02,1.17-.34.06-.29-.19-.19-.3-.2-.84-.07-1.55-.39-2.15-.98-.76-.52-1.49-1.08-1.93-1.92-.53-1.29-.76-2.66-.96-4.04-.02-.3.02-.6-.05-.9-.02-.07-.04-.14-.05-.21-.06-.3-.01-.62-.1-.91-.02-.06-.04-.13-.05-.19-.05-.26-.02-.53-.11-.78-.03-.07-.04-.13-.06-.2-.02-.11-.04-.21-.04-.32-.02-.31,0-.62.08-.92.06-.27.03-.53-.17-.72-.77-.75-1.25-1.71-1.81-2.6-.71-1.12-1.6-2.1-2.61-2.96-.11-.29-.36-.6.11-.78.01,0,.03-.01.04-.01.07,0,.13.01.2.02.09.05.18.11.26.17.46.34.83.79,1.29,1.12.13.17.25.34.24.57,1.19,1.36,1.85,3.1,3.15,4.37.19.23.09.49.09.74,0,1.02.09,2.02.23,3.03,0,.1.02.19.02.29.14.26-.01.57.12.83-.01,1.29.29,2.53.68,3.74.43,1.32,2.57,2.78,3.99,2.76.83-.01,1.02.24.85,1.1Z"/>
      <path class="cls-3" d="M584.62,59.09c-.41.79-.56,1.61-.38,2.48.02.08.04.16.05.24.08.45-.07.86-.23,1.28-.46,1.18-.94,2.35-1.48,3.5-.49,1.04-.94,1.27-2.1,1.15-.94-.25-1.86-.3-2.82.02-.98.32-2.03.44-3.06.52-.85.09-1.47-.2-1.95-.96-.44-.7-.58-.67-1.02.03-.69,1.1-1.58,2.06-2.21,3.19-.05.06-.08.13-.15.16.09,0,.11-.09.16-.14.39-.62,1.15-.41,1.67-.74.65-.28,1.26-.64,1.92-.93.11-.04.22-.06.33-.07.26-.02.53-.01.78-.12.07-.03.15-.05.23-.07.53-.17,1.06-.18,1.6-.09.28.1.58.1.88.1.18,0,.36.03.54.07.03,0,.06,0,.08.01.22.03.44.05.65.06.81.04,1.63-.03,2.44,0,.27.01.56-.04.8.12,0,0,.02.01.03.02.04.03.07.06.1.11-.32.29-.78-.04-1.09.25,0,.01-.02.02-.03.03-.05.06-.1.1-.16.13-.09.04-.2.06-.3.07-.81.02-1.63.02-2.44,0-.09,0-.17-.02-.25-.04-.2-.06-.39-.13-.58-.18-.26-.1-.53-.09-.8-.09-.55-.01-1.07.09-1.59.26-1.08.4-2.09.97-3.21,1.28-.37.1-.72.28-1,.56-.18.18-.31.39-.49.57-.47.48-.69.45-1.11-.13.03-.24-.1-.49.09-.71.29-1.41,1.41-2.32,2.1-3.48.33-.55.74-1.06,1.11-1.59.27-.39.49-.36.77.02.37.49.89.86,1.16,1.44.13.29.41.21.62.18,1.23-.16,2.49-.14,3.63-.76.71-.39,1.48-.15,2.21,0,1.36.3,1.53.18,2.03-1.08.45-1.12.98-2.21,1.35-3.37.1-.14,0-.3.06-.44-.34-.46-.19-.99-.14-1.47.06-.52.26-1.02.4-1.53.18-.13,0-.33.08-.48.13-.21.15-.52.45-.56.03,0,.06,0,.1,0,.06-.06.11-.12.17-.18.08-.04.15-.06.22-.06.12-.01.22.04.29.21-.03.46-.3.82-.5,1.21Z"/>
    </g>
    <path class="cls-3" d="M620.24,65.75s0,0-.01,0c0,0,0,0,0,0h0s0,0,0,0c0,0,0,0,0,0,0,0,0,.01,0,.02Z"/>
    <path class="cls-3" d="M620.23,65.73s0,.01,0,.02c0,0,0,0-.01,0,0,0,0,0,0,0h0Z"/>
    <path class="cls-3" d="M751.58,64.33c-.95.39-1.94.15-2.91.16-.73,0-1.5.23-2.21-.16,1.7-.07,3.41-.08,5.11,0Z"/>
    <path class="cls-3" d="M635.76,49.02c-.94.27-1.88.27-2.82,0,.94-.1,1.88-.11,2.82,0Z"/>
    <path class="cls-3" d="M679.9,64c-.88.25-1.76.26-2.64,0,.88-.12,1.76-.12,2.64,0Z"/>
    <path class="cls-3" d="M662.6,64c-.88.27-1.76.26-2.64,0,.88-.12,1.76-.13,2.64,0Z"/>
    <path class="cls-3" d="M588.27,53.06c-.05-.06-.1-.13-.14-.19,0,0,0,0,0,0-.18-.29-.17-.58,0-.87,0-.12.01-.23.02-.35.58.42.35.91.13,1.41Z"/>
    <path class="cls-3" d="M620.24,65.75s0,0-.01,0c0,0,0,0,0,0h0s0,0,0,0c0,0,0,0,0,0,0,0,0,.01,0,.02Z"/>
    <path class="cls-3" d="M614.04,60.97h-.08s-.05-.04-.08-.06c.05.02.11.04.16.06Z"/>
    <path class="cls-3" d="M614.04,60.97h-.08s-.05-.04-.08-.06c.05.02.11.04.16.06Z"/>
    <path class="cls-3" d="M662.37,52.7s-.04.02-.06.03c-.02,0-.04-.01-.06-.02.04,0,.08,0,.12,0Z"/>
    <path class="cls-3" d="M662.37,52.7s-.04.02-.06.03c-.02,0-.04-.01-.06-.02.04,0,.08,0,.12,0Z"/>
    <path class="cls-3" d="M662.37,52.7s-.04.02-.06.03c-.02,0-.04-.01-.06-.02.04,0,.08,0,.12,0Z"/>
    <path class="cls-3" d="M751.34,52.72s-.02.01-.04.02c-.02,0-.04-.02-.06-.03.04,0,.07,0,.1,0Z"/>
    <path class="cls-3" d="M751.34,52.72s-.02.01-.04.02c-.02,0-.04-.02-.06-.03.04,0,.07,0,.1,0Z"/>
    <path class="cls-3" d="M751.34,52.72s-.02.01-.04.02c-.02,0-.04-.02-.06-.03.04,0,.07,0,.1,0Z"/>
    <path class="cls-3" d="M708.71,71.05s0,0,0,0c-.02-.01-.04-.03-.06-.06l.06.05Z"/>
    <path class="cls-3" d="M708.68,72.96c-.05-.05-.07-.11-.07-.17.02.06.04.12.07.17Z"/>
    <path class="cls-3" d="M708.71,71.05s0,0,0,0c-.02-.01-.04-.03-.06-.06l.06.05Z"/>
    <path class="cls-3" d="M614.04,60.97h-.08s-.05-.04-.08-.06c.05.02.11.04.16.06Z"/>
    <polygon class="cls-3" points="708.71 71.05 708.71 71.06 708.71 71.06 708.71 71.05"/>
    <path class="cls-3" d="M614.04,60.97h-.08s-.05-.04-.08-.06c.05.02.11.04.16.06Z"/>
    <path class="cls-3" d="M614.04,60.97h-.08s-.05-.04-.08-.06c.05.02.11.04.16.06Z"/>
    <path class="cls-3" d="M614.04,60.97h-.08s-.05-.04-.08-.06c.05.02.11.04.16.06Z"/>
    <path class="cls-3" d="M631.35,56.23h.02s0,0,0,0c0,0-.01,0-.02,0Z"/>
  </g>
</svg>